<?xml version="1.0" standalone="no"?>
<!DOCTYPE svg PUBLIC "-//W3C//DTD SVG 1.1//EN" "http://www.w3.org/Graphics/SVG/1.1/DTD/svg11.dtd" >
<svg>
<metadata>
Created by FontForge 20090914 at Fri May 10 14:28:24 2013
 By www-data
Copyright (c) 2012 by Mariya Chughtai. All rights reserved.
</metadata>
<defs>
<font id="Baufra-Medium" horiz-adv-x="754" >
  <font-face 
    font-family="Baufra-Medium"
    font-weight="400"
    font-stretch="normal"
    units-per-em="1000"
    panose-1="0 0 6 0 0 0 0 0 0 0"
    ascent="799"
    descent="-201"
    x-height="500"
    cap-height="700"
    bbox="-16 -211.001 1123 991"
    underline-thickness="50"
    underline-position="-50"
    unicode-range="U+0020-U+FB02"
  />
<missing-glyph horiz-adv-x="250" 
 />
    <glyph glyph-name="fi" unicode="fi" horiz-adv-x="533" 
d="M270 708l53.9971 0.000976562v-55h-54c-13.333 0 -25.666 -2.33301 -36.999 -7s-20.666 -11.834 -27.999 -21.501s-11 -21.167 -11 -34.5v-90h120v-59h-120v-441h-62v441h-82v59h82v90c0 36 12.833 64.667 38.5 86s58.834 32 99.501 32zM407.497 577.001
c-11 0 -20.333 3.83301 -28 11.5s-11.5 17 -11.5 28s3.83301 20.333 11.5 28s17 11.5 28 11.5s20.333 -3.83301 28 -11.5s11.5 -17 11.5 -28s-3.83301 -20.333 -11.5 -28s-17 -11.5 -28 -11.5zM376.997 0.000976562v500h61v-500h-61z" />
    <glyph glyph-name="fl" unicode="fl" horiz-adv-x="524" 
d="M270 708l53.9971 0.000976562v-55h-54c-13.333 0 -25.666 -2.33301 -36.999 -7s-20.666 -11.834 -27.999 -21.501s-11 -21.167 -11 -34.5v-90h120v-59h-120v-441h-62v441h-82v59h82v90c0 36 12.833 64.667 38.5 86s58.834 32 99.501 32zM384.997 0.000976562v700h61v-700
h-61z" />
    <glyph glyph-name=".notdef" horiz-adv-x="250" 
 />
    <glyph glyph-name="space" unicode=" " horiz-adv-x="393" 
 />
    <glyph glyph-name="exclam" unicode="!" horiz-adv-x="183" 
d="M61 701h62v-541h-62v541zM91.5 -10c-11.667 0 -21.499 4 -29.499 12s-12 17.667 -12 29c0 12 4.16699 22 12.5 30s18.166 12 29.499 12s21 -4 29 -12s12 -18 12 -30c0 -11.333 -4 -21 -12 -29s-17.833 -12 -29.5 -12z" />
    <glyph glyph-name="quotedbl" unicode="&#x22;" horiz-adv-x="305" 
d="M93 709c11.333 0 21.001 -4.16895 29.001 -12.502s12 -18.166 12 -29.499c0 -3.33301 -0.333008 -7.16602 -1 -11.499s-1.83398 -9.66602 -3.50098 -15.999s-4.5 -12.5 -8.5 -18.5s-8.83301 -11.5 -14.5 -16.5s-13.167 -9 -22.5 -12s-19.666 -4.5 -30.999 -4.5
c16 12 27 24.667 33 38c-10 2 -18.333 6.83301 -25 14.5s-10 16.5 -10 26.5c0 11.333 4.16699 21.166 12.5 29.499s18.166 12.5 29.499 12.5zM214.001 708.998c11.333 0 21.167 -4.16699 29.5 -12.5s12.5 -18.166 12.5 -29.499c0 -6 -1 -12.667 -3 -20
s-5.5 -15.833 -10.5 -25.5s-13.5 -17.667 -25.5 -24s-26.333 -9.5 -43 -9.5c16 12 27.333 24.667 34 38c-10 2 -18.333 6.83301 -25 14.5s-10 16.5 -10 26.5c0 11.333 4 21.166 12 29.499s17.667 12.5 29 12.5z" />
    <glyph glyph-name="numbersign" unicode="#" horiz-adv-x="673" 
d="M610 405h-132l-29 -135h133l-13 -60h-133l-44 -210h-63l45 210h-133l-45 -210h-62l44 210h-128l13 60h128l29 135h-128l14 61h127l50 234h62l-50 -234h133l50 234h63l-50 -234h133zM387 270l28 135h-133l-29 -135h134z" />
    <glyph glyph-name="dollar" unicode="$" horiz-adv-x="527" 
d="M239 750h40.0039v-44c64.667 -4.66699 113.667 -23 147 -55l-40 -44c-22.667 20 -58.334 32.333 -107.001 37v-255l16 -5c119.333 -32.667 179 -101.667 179 -207c0 -52.667 -18.333 -95.667 -55 -129s-83.334 -52 -140.001 -56v-47h-40v47
c-33.333 2.66699 -67 10.667 -101 24s-61.667 32.333 -83 57l40 45c16 -18.667 37.667 -33.5 65 -44.5s53.666 -17.5 78.999 -19.5v286l-14 4c-110.667 34.667 -166 93 -166 175c0 30.667 5.5 58 16.5 82s25.5 43.167 43.5 57.5s37.167 25.5 57.5 33.5s41.166 13 62.499 15
v43zM239.004 403v237.998c-12.667 -2 -25 -5.5 -37 -10.5s-24 -12 -36 -21s-21.833 -21.167 -29.5 -36.5s-11.5 -32.666 -11.5 -51.999c0 -53.333 38 -92.666 114 -117.999zM279.004 325.998l-0.00195312 -271c38.667 4 70.334 17.167 95.001 39.5s37 49.833 37 82.5
c0 38.667 -10.167 69.5 -30.5 92.5s-54.166 41.833 -101.499 56.5z" />
    <glyph glyph-name="percent" unicode="%" horiz-adv-x="714" 
d="M193 709c37.333 0 69.333 -13.332 96 -39.999s40 -58.834 40 -96.501s-13.333 -69.667 -40 -96s-58.667 -39.5 -96 -39.5c-24.667 0 -47.5 6 -68.5 18s-37.5 28.5 -49.5 49.5s-18 43.833 -18 68.5c0 37.333 13.333 69.333 40 96s58.667 40 96 40zM529 700.001h58
l-406 -700h-59zM193 657.001c-16 0 -30.501 -3.50098 -43.501 -10.501s-23 -17 -30 -30s-10.5 -27.5 -10.5 -43.5c0 -24.667 7.83301 -45 23.5 -61s35.834 -24 60.501 -24s45 8 61 24s24 36.333 24 61s-8 44.834 -24 60.501s-36.333 23.5 -61 23.5zM519.499 264
c37.667 0 69.834 -13.333 96.501 -40s40 -58.834 40 -96.501s-13.333 -69.834 -40 -96.501s-58.834 -40 -96.501 -40s-69.834 13.333 -96.501 40s-40 58.834 -40 96.501s13.333 69.834 40 96.501s58.834 40 96.501 40zM519.999 212c-24.667 0 -45 -8 -61 -24
s-24 -36.333 -24 -61s8 -45 24 -61s36.333 -24 61 -24s44.834 8 60.501 24s23.5 36.333 23.5 61s-7.83301 45 -23.5 61s-35.834 24 -60.501 24z" />
    <glyph glyph-name="ampersand" unicode="&#x26;" horiz-adv-x="707" 
d="M666 0h-83l-76 90c-16 -19.333 -34.833 -36.166 -56.5 -50.499s-46.334 -25.833 -74.001 -34.5s-57.167 -13.334 -88.5 -14.001c-70.667 1.33301 -127.834 22.166 -171.501 62.499s-65.5 86.5 -65.5 138.5c0 28.667 4.5 54.667 13.5 78s22.167 43.833 39.5 61.5
s35.333 32.834 54 45.501s41 25.667 67 39c-35.333 42 -58.5 76 -69.5 102s-15.833 51.333 -14.5 76c1.33301 22.667 9.33301 42.834 24 60.501s34.5 31.167 59.5 40.5s53.5 14 85.5 14c46.667 0 85.834 -12.333 117.501 -37s47.5 -57.334 47.5 -98.001
c0 -12.667 -1.66699 -24.667 -5 -36s-9.83301 -24.333 -19.5 -39s-25.167 -30.167 -46.5 -46.5s-47.666 -32.5 -78.999 -48.5l176 -208c7.33301 18.667 12 37.667 14 57h66c-4 -40 -15.333 -77 -34 -111zM204 583c-0.666992 -17.333 4.50195 -36.3301 15.502 -56.9971
s31.167 -47.667 60.5 -81c24 12.667 44.667 24.5 62 35.5s30.666 20.667 39.999 29s16.5 16.666 21.5 24.999s8 15.166 9 20.499s1.5 11.666 1.5 18.999c0 15.333 -4.33301 28.833 -13 40.5s-20.834 20.667 -36.501 27s-33.5 9.5 -53.5 9.5c-32 0 -57.667 -6.5 -77 -19.5
s-29.333 -29.167 -30 -48.5zM468.002 136.003l-198.999 236.003c-21.333 -11.333 -38 -20.5 -50 -27.5s-25.667 -16.5 -41 -28.5s-27 -23.333 -35 -34s-14.833 -23.667 -20.5 -39s-8.5 -32 -8.5 -50c0 -38.667 16.167 -71.834 48.5 -99.501s74.166 -42.167 125.499 -43.5
c41.333 1.33301 77.333 9.66602 108 24.999s54.667 35.666 72 60.999z" />
    <glyph glyph-name="quotesingle" unicode="'" horiz-adv-x="184" 
d="M93 708c11.333 0 21.001 -4.00098 29.001 -12.001s12 -17.667 12 -29c0 -4 -0.333008 -8.16699 -1 -12.5s-1.83398 -9.66602 -3.50098 -15.999s-4.5 -12.333 -8.5 -18s-8.83301 -11.167 -14.5 -16.5s-13.167 -9.5 -22.5 -12.5s-19.666 -4.5 -30.999 -4.5
c16 12 27 25 33 39c-6.66699 0.666992 -12.667 3 -18 7s-9.5 8.83301 -12.5 14.5s-4.5 12.167 -4.5 19.5c0 11.333 4.16699 21 12.5 29s18.166 12 29.499 12z" />
    <glyph glyph-name="parenleft" unicode="(" horiz-adv-x="363" 
d="M313 -106l-25 -34.001c-28 10.667 -55.833 28.834 -83.5 54.501s-53 57 -76 94s-41.833 81 -56.5 132s-22 103.833 -22 158.5s7.33301 107.667 22 159s33.5 95.666 56.5 132.999s48.5 68.833 76.5 94.5s55.667 42.834 83 51.501l24 -33
c-51.333 -24.667 -97.5 -74.667 -138.5 -150s-61.5 -160.333 -61.5 -255s20.5 -179 61.5 -253s87.5 -124.667 139.5 -152z" />
    <glyph glyph-name="parenright" unicode=")" horiz-adv-x="363" 
d="M51 704l25 33.001c27.333 -8.66699 54.833 -25.834 82.5 -51.501s53.167 -57.167 76.5 -94.5s42.166 -81.666 56.499 -132.999s21.5 -104.333 21.5 -159s-7.16699 -107.5 -21.5 -158.5s-33.166 -95 -56.499 -132s-48.833 -68.333 -76.5 -94
s-55.167 -43.834 -82.5 -54.501l-26 34c52 27.333 98.5 78 139.5 152s61.5 158.333 61.5 253s-20.5 179.667 -61.5 255s-87.167 125.333 -138.5 150z" />
    <glyph glyph-name="asterisk" unicode="*" horiz-adv-x="468" 
d="M418 572l-133 -57l90 -116l-48 -40l-91 117l-90 -117l-49 40l89 115l-136 58l29 55l123 -51v140h63v-140l125 52z" />
    <glyph glyph-name="plus" unicode="+" horiz-adv-x="539" 
d="M239 528h61v-189h189v-61h-189v-189h-61v189h-189v61h189v189z" />
    <glyph glyph-name="comma" unicode="," horiz-adv-x="184" 
d="M93 72c11.333 0 21.001 -4.00098 29.001 -12.001s12 -17.667 12 -29c0 -6 -0.833008 -12.667 -2.5 -20s-5 -16 -10 -26s-13.5 -18.167 -25.5 -24.5s-26.333 -9.5 -43 -9.5c15.333 12 26.333 25 33 39c-10 1.33301 -18.333 5.83301 -25 13.5s-10 16.834 -10 27.501
c0 11.333 4.16699 21 12.5 29s18.166 12 29.499 12z" />
    <glyph glyph-name="hyphen" unicode="-" horiz-adv-x="386" 
d="M50 312h286v-61h-286v61z" />
    <glyph glyph-name="period" unicode="." horiz-adv-x="183" 
d="M91.5 -10c-11.667 0 -21.499 4 -29.499 12s-12 17.667 -12 29c0 12 4.16699 22 12.5 30s18.166 12 29.499 12s21 -4 29 -12s12 -18 12 -30c0 -11.333 -4 -21 -12 -29s-17.833 -12 -29.5 -12z" />
    <glyph glyph-name="slash" unicode="/" horiz-adv-x="480" 
d="M50 0l315 700h65l-315 -700h-65z" />
    <glyph glyph-name="zero" unicode="0" horiz-adv-x="675" 
d="M336 669c74.667 0 136.5 -32.001 185.5 -96.001s73.5 -146 73.5 -246c0 -94 -24.667 -173 -74 -237s-111 -96 -185 -96c-73.333 0 -134.333 31.833 -183 95.5s-73 142.834 -73 237.501c0 100 24.333 182 73 246s109.667 96 183 96zM337 605.999
c-58 0 -104.499 -25.667 -139.499 -77s-52.5 -118.666 -52.5 -201.999c0 -78.667 17.5 -143.334 52.5 -194.001s81.167 -76 138.5 -76s104.166 25.333 140.499 76s54.5 115.334 54.5 194.001c0 83.333 -17.833 150.666 -53.5 201.999s-82.5 77 -140.5 77z" />
    <glyph glyph-name="one" unicode="1" horiz-adv-x="252" 
d="M93 0v660h64v-660h-64z" />
    <glyph glyph-name="two" unicode="2" horiz-adv-x="557" 
d="M116 550l-43.001 42.9971c60 50.667 128.667 76.334 206 77.001c59.333 0.666992 108.333 -16 147 -50s57.667 -78 57 -132c0 -16.667 -2.66699 -32.334 -8 -47.001s-12.333 -27.167 -21 -37.5s-20.167 -20.666 -34.5 -30.999s-28.333 -19 -42 -26
s-30.5 -15.167 -50.5 -24.5s-37.5 -17.833 -52.5 -25.5s-30.833 -17.167 -47.5 -28.5s-30.667 -23.5 -42 -36.5s-22 -27.667 -32 -44s-17.667 -35.166 -23 -56.499s-8 -44.666 -8 -69.999h362v-61h-429v53c0.666992 37.333 5.83398 71.5 15.501 102.5s21.5 57 35.5 78
s32.167 40.667 54.5 59s43.666 33.166 63.999 44.499s44.166 23.333 71.499 36c18 7.33301 31.333 13 40 17s19.5 9.83301 32.5 17.5s22.5 14.834 28.5 21.501s11.5 15.167 16.5 25.5s7.5 21.5 7.5 33.5c0.666992 36 -11.666 65.333 -36.999 88s-59.333 34 -102 34
c-63.333 0.666992 -118.666 -19.333 -165.999 -60z" />
    <glyph glyph-name="three" unicode="3" horiz-adv-x="548" 
d="M102 550l-46.001 44.9971c63.333 50.667 136 76 218 76c57.333 0 104.833 -15.5 142.5 -46.5s56.5 -73.167 56.5 -126.5c0 -40 -11.167 -73.5 -33.5 -100.5s-52.166 -45.167 -89.499 -54.5c39.333 -9.33301 71.166 -29.166 95.499 -59.499s36.5 -67.833 36.5 -112.5
c0 -56 -19.667 -100 -59 -132s-89.666 -48 -150.999 -48c-80.667 0 -153 25.333 -217 76l46 46c46.667 -38.667 101.667 -58 165 -58c44.667 -0.666992 81 10.333 109 33s42 54 42 94c0 24.667 -6.33301 46.5 -19 65.5s-31.5 34.167 -56.5 45.5s-54.833 17.333 -89.5 18h-74
v58l65 1c53.333 0.666992 94.333 11.334 123 32.001s43 50.334 43 89.001c0 36 -13.5 64.5 -40.5 85.5s-60.833 31.5 -101.5 31.5c-64 0 -119 -19.333 -165 -58z" />
    <glyph glyph-name="four" unicode="4" horiz-adv-x="542" 
d="M485 239v-61h-50v-178h-62v179h-327v65l323 416h66v-421h50zM373 239v334l-259 -334h259z" />
    <glyph glyph-name="five" unicode="5" horiz-adv-x="549" 
d="M90 346l170.004 0.00195312c52.667 0 91.667 -14.167 117 -42.5s38 -65.5 38 -111.5c0 -40.667 -13.833 -74 -41.5 -100s-62.834 -39 -105.501 -39c-56.667 0 -111.667 19 -165 57l-44 -45c28 -22.667 60.5 -40.5 97.5 -53.5s74.5 -19.5 112.5 -19.5
c59.333 -0.666992 109 18.166 149 56.499s60 85.166 60 140.499c0 22 -2.33301 43.167 -7 63.5s-12.334 40 -23.001 59s-23.834 35.5 -39.501 49.5s-35.334 25.167 -59.001 33.5s-50.167 12.5 -79.5 12.5h-118v193h294v60h-356v-314z" />
    <glyph glyph-name="six" unicode="6" horiz-adv-x="556" 
d="M455 669l-0.000976562 -61c-77.333 0 -144 -19.667 -200 -59c-65.333 -47.333 -103.666 -113 -114.999 -197c15.333 28 36.5 50.333 63.5 67s58.833 25 95.5 25c63.333 0 114.833 -21.667 154.5 -65s59.5 -97 59.5 -161c0 -38.667 -7.83301 -74.834 -23.5 -108.501
s-40.5 -61.667 -74.5 -84s-74.333 -33.5 -121 -33.5c-61.333 0 -111.333 21.333 -150 64s-62.667 96.667 -72 162c-11.333 79.333 -3.5 151.833 23.5 217.5s68.167 118.834 123.5 159.501c68 49.333 146.667 74 236 74zM292.999 384
c-33.333 0 -62.167 -7.83008 -86.5 -23.4971s-42.333 -35.667 -54 -60s-17.5 -51.5 -17.5 -81.5c5.33301 -48 22.166 -87.667 50.499 -119s64.166 -47 107.499 -47c49.333 0 87.833 16.167 115.5 48.5s41.5 71.166 41.5 116.499c0 29.333 -5.66699 56.166 -17 80.499
s-29.166 44.666 -53.499 60.999s-53.166 24.5 -86.499 24.5z" />
    <glyph glyph-name="seven" unicode="7" horiz-adv-x="495" 
d="M50 660h403l-296 -660h-68l268 599h-307v61z" />
    <glyph glyph-name="eight" unicode="8" horiz-adv-x="565" 
d="M283 671c12.667 0 25.832 -1.00098 39.499 -3.00098s28.334 -5.33301 44.001 -10s30.334 -11.5 44.001 -20.5s26.167 -19.5 37.5 -31.5s20.166 -26.833 26.499 -44.5s9.5 -37.5 9.5 -59.5c0 -79.333 -36.667 -132 -110 -158c38.667 -12 69.334 -33.167 92.001 -63.5
s34 -65.166 34 -104.499c0 -40.667 -10.5 -75.334 -31.5 -104.001s-47.5 -49.334 -79.5 -62.001s-67.667 -19 -107 -19c-38.667 0 -74 6.33301 -106 19s-58.5 33.334 -79.5 62.001s-31.5 63.334 -31.5 104.001c0 39.333 11.667 74.333 35 105s54.333 51.667 93 63
c-74 26.667 -111 79.334 -111 158.001c0 25.333 4.5 48 13.5 68s20.667 36.167 35 48.5s30.666 22.666 48.999 30.999s36 14 53 17s33.833 4.5 50.5 4.5zM282.998 611.999c-15.333 0 -30.333 -1.99902 -45 -5.99902s-29.167 -10 -43.5 -18s-25.833 -19.833 -34.5 -35.5
s-13 -34.167 -13 -55.5c0 -34.667 12.167 -62.334 36.5 -83.001s57.5 -31.334 99.5 -32.001c42 0.666992 75.167 11.334 99.5 32.001s36.5 48.5 36.5 83.5s-12 62.5 -36 82.5s-57.333 30.667 -100 32zM283.998 305c-48.667 -0.666992 -85.8369 -12.668 -111.504 -36.001
s-38.5 -53.333 -38.5 -90c0 -24 4.83301 -44.833 14.5 -62.5s22.334 -31 38.001 -40s31.334 -15.5 47.001 -19.5s31.834 -6 48.501 -6c10 0 19.667 0.666992 29 2s19 3.33301 29 6s19.5 6.16699 28.5 10.5s17.333 10 25 17s14.334 14.833 20.001 23.5
s10.167 18.834 13.5 30.501s5 24.5 5 38.5c0 36.667 -13 66.667 -39 90s-62.333 35.333 -109 36z" />
    <glyph glyph-name="nine" unicode="9" horiz-adv-x="582" 
d="M130 -8l-0.00195312 60.999c70.667 0 133 17.667 187 53c71.333 46.667 113.666 114.334 126.999 203.001c-14.667 -28 -35.5 -50.5 -62.5 -67.5s-59.167 -25.5 -96.5 -25.5c-62.667 0 -114 21.833 -154 65.5s-60 97.5 -60 161.5c0 28.667 4.66699 56.334 14 83.001
s22.833 50.667 40.5 72s40.834 38.5 69.501 51.5s60.667 19.5 96 19.5c60.667 0 110.334 -21.333 149.001 -64s62.667 -96.667 72 -162c11.333 -79.333 3.5 -151.833 -23.5 -217.5s-68.167 -118.834 -123.5 -159.501c-67.333 -49.333 -145.666 -74 -234.999 -74z
M290.998 607.999c-49.333 0 -87.833 -16.332 -115.5 -48.999s-41.5 -71.334 -41.5 -116.001c0 -45.333 13.833 -84.333 41.5 -117s66.167 -49 115.5 -49c33.333 0 62.166 7.83301 86.499 23.5s42.5 35.667 54.5 60s18 51.5 18 81.5c-6 48 -23.167 87.667 -51.5 119
s-64.166 47 -107.499 47z" />
    <glyph glyph-name="colon" unicode=":" horiz-adv-x="183" 
d="M92 345c11.333 0 21.001 -4.16895 29.001 -12.502s12 -18.166 12 -29.499s-4 -21.166 -12 -29.499s-17.667 -12.5 -29 -12.5c-8 0 -15.167 1.83301 -21.5 5.5s-11.333 8.83398 -15 15.501s-5.5 13.667 -5.5 21c0 11.333 4.16699 21.166 12.5 29.499
s18.166 12.5 29.499 12.5zM92.001 73.998c11.333 0 21.001 -4.16602 29.001 -12.499s12 -18.166 12 -29.499s-4 -21 -12 -29s-17.667 -12 -29 -12c-8 0 -15.167 1.83301 -21.5 5.5s-11.333 8.66699 -15 15s-5.5 13.166 -5.5 20.499c0 11.333 4.16699 21.166 12.5 29.499
s18.166 12.5 29.499 12.5z" />
    <glyph glyph-name="semicolon" unicode=";" horiz-adv-x="184" 
d="M92 343c11.333 0 21.166 -4 29.499 -12s12.5 -17.667 12.5 -29c0 -12 -4.16699 -22 -12.5 -30s-18.166 -12 -29.499 -12c-5.33301 0 -10.666 1.16699 -15.999 3.5s-9.83301 5.33301 -13.5 9s-6.66699 8 -9 13s-3.5 10.5 -3.5 16.5c0 11.333 4.16699 21 12.5 29
s18.166 12 29.499 12zM93 73c11.333 0 21.001 -4 29.001 -12s12 -18 12 -30c0 -6 -0.833008 -12.667 -2.5 -20s-5 -15.833 -10 -25.5s-13.5 -17.667 -25.5 -24s-26.333 -9.5 -43 -9.5c15.333 11.333 26.333 24 33 38c-6.66699 1.33301 -12.667 3.83301 -18 7.5
s-9.5 8.5 -12.5 14.5s-4.5 12.333 -4.5 19c0 12 4.16699 22 12.5 30s18.166 12 29.499 12z" />
    <glyph glyph-name="less" unicode="&#x3c;" horiz-adv-x="450" 
d="M62 356l326 197v-72l-242 -146l242 -145v-72l-326 196v42z" />
    <glyph glyph-name="equal" unicode="=" horiz-adv-x="539" 
d="M50 424h439v-61h-439v61zM50 262h439v-61h-439v61z" />
    <glyph glyph-name="greater" unicode="&#x3e;" horiz-adv-x="425" 
d="M50 481v72l325 -197v-42l-325 -196v72l242 145z" />
    <glyph glyph-name="question" unicode="?" horiz-adv-x="510" 
d="M93 588l-42.998 44.0039c59.333 49.333 126.666 75 201.999 77c57.333 1.33301 105 -13.667 143 -45c42.667 -32.667 64.334 -77.334 65.001 -134.001c0.666992 -40 -9.83301 -71.5 -31.5 -94.5s-53.5 -43.833 -95.5 -62.5c-14 -6 -25 -11.167 -33 -15.5
s-16.833 -10.333 -26.5 -18s-17 -15.834 -22 -24.501s-9.16699 -20 -12.5 -34s-5 -30 -5 -48h-65c0 19.333 1.33301 37 4 53s7.16699 30 13.5 42s13.166 22.5 20.499 31.5s16.666 17.333 27.999 25s22 14.167 32 19.5s22.333 11.333 37 18
c31.333 13.333 54.833 27.666 70.5 42.999s23.5 36.666 23.5 63.999c0 38 -14 67.667 -42 89c-26 20.667 -59.333 31 -100 31c-62 -0.666992 -116.333 -21 -163 -61zM202.002 73.0039c11.333 0 21.168 -4.00098 29.501 -12.001s12.5 -18 12.5 -30
c0 -7.33301 -1.83301 -14.166 -5.5 -20.499s-8.83398 -11.333 -15.501 -15s-13.667 -5.5 -21 -5.5c-11.333 0 -21.166 4 -29.499 12s-12.5 17.833 -12.5 29.5s4.16699 21.5 12.5 29.5s18.166 12 29.499 12z" />
    <glyph glyph-name="at" unicode="@" horiz-adv-x="876" 
d="M482 -62l55.999 -56.999c-26 -4.66699 -63.333 -7 -112 -7c-57.333 0 -107.333 7 -150 21s-77.167 32.5 -103.5 55.5s-47.5 51.833 -63.5 86.5s-26.833 70.167 -32.5 106.5s-8.5 77 -8.5 122s2.83301 85.5 8.5 121.5s16.667 71 33 105s38 62.333 65 85
s62.667 40.834 107 54.501s95.833 20.5 154.5 20.5c46 0 87.167 -3.5 123.5 -10.5s67.166 -16.5 92.499 -28.5s47.5 -27.667 66.5 -47s34 -39.333 45 -60s19.833 -44.834 26.5 -72.501s11 -54.5 13 -80.5s3 -55.333 3 -88v-154c0 -23.333 -5.33301 -44 -16 -62
s-26 -31.833 -46 -41.5s-42.667 -14.5 -68 -14.5c-37.333 0 -68.833 9.66699 -94.5 29s-40.167 44.666 -43.5 75.999c-34 -23.333 -72.333 -35 -115 -35c-57.333 0 -103.666 19.167 -138.999 57.5s-53 88.833 -53 151.5c0 65.333 17.5 116.333 52.5 153s81.5 55 139.5 55
c44.667 0 83 -11 115 -33v27h54v-356c0.666992 -22.667 8.16699 -40.167 22.5 -52.5s34.5 -18.5 60.5 -18.5c16 0 29.333 3.33301 40 10s18.5 15.5 23.5 26.5s7.5 24.5 7.5 40.5v140c0 22 -0.666992 41.667 -2 59s-3.33301 35.5 -6 54.5s-6.5 36 -11.5 51s-11.5 30 -19.5 45
s-17.5 28.167 -28.5 39.5s-24.333 22 -40 32s-33.167 18.167 -52.5 24.5s-41.5 11.333 -66.5 15s-52.833 5.5 -83.5 5.5c-50 0 -93.667 -5.83301 -131 -17.5s-67.166 -26.834 -89.499 -45.501s-40.166 -42.5 -53.499 -71.5s-22.333 -58.333 -27 -88s-7 -63.667 -7 -102
s2.33301 -72.666 7 -102.999s13.5 -60 26.5 -89s30.333 -53.167 52 -72.5s50.5 -35 86.5 -47s78.333 -18 127 -18c25.333 0 43.666 0.666992 54.999 2zM531.999 155.001l-0.000976562 238.001c-23.333 18 -57.666 27 -102.999 27c-43.333 0 -77 -12.833 -101 -38.5
s-36 -62.5 -36 -110.5c0 -46.667 12.167 -83.167 36.5 -109.5s57.833 -39.5 100.5 -39.5c18 0 37 3.16699 57 9.5s35.333 14.166 46 23.499z" />
    <glyph glyph-name="A" unicode="A" 
d="M340 700h72l297 -700h-68l-94 218h-342l-94 -218h-68zM521 282l-145 342l-145 -342h290z" />
    <glyph glyph-name="B" unicode="B" horiz-adv-x="645" 
d="M106 700h250.999c57.333 0 105.333 -16.833 144 -50.5s58 -77.5 58 -131.5c0 -34.667 -8.5 -65.167 -25.5 -91.5s-40.5 -46.833 -70.5 -61.5c38.667 -12.667 69.834 -34.5 93.501 -65.5s35.5 -67.167 35.5 -108.5c0 -55.333 -19.833 -101 -59.5 -137
s-88.167 -54 -145.5 -54h-281v700zM170.999 390h173c43.333 0 78.833 11 106.5 33s41.5 52.333 41.5 91s-14 69 -42 91s-63.333 33 -106 33h-173v-248zM171.999 62h204c42.667 0 78.167 12.333 106.5 37s42.5 56.667 42.5 96c0 26 -6.66699 49.167 -20 69.5
s-31.333 35.833 -54 46.5s-47.667 16 -75 16h-204v-265z" />
    <glyph glyph-name="C" unicode="C" horiz-adv-x="730" 
d="M631 113l45.9971 -43.001c-66.667 -52.667 -141.667 -79 -225 -79c-64.667 0 -124.667 16 -180 48s-99.166 75.5 -131.499 130.5s-48.5 115.167 -48.5 180.5s16.167 125.5 48.5 180.5s76.166 98.5 131.499 130.5s115.333 48 180 48c84.667 0 159.667 -26.333 225 -79
l-45 -44c-52.667 40 -112.667 60 -180 60c-53.333 0 -102.666 -13.167 -147.999 -39.5s-81.166 -62.166 -107.499 -107.499s-39.5 -95 -39.5 -149c0 -82 28.667 -152 86 -210s127 -87 209 -87c66.667 0 126.334 20 179.001 60z" />
    <glyph glyph-name="D" unicode="D" horiz-adv-x="805" 
d="M106 700h246c65.333 0 125.666 -15.667 180.999 -47s99 -73.833 131 -127.5s48 -112.167 48 -175.5s-16 -121.833 -48 -175.5s-75.667 -96.167 -131 -127.5s-115.666 -47 -180.999 -47h-246v700zM170 62l181.999 0.000976562c82 0 151.833 28.167 209.5 84.5
s86.5 124.166 86.5 203.499c0 52 -13.167 100 -39.5 144s-62.166 79 -107.499 105s-95 39 -149 39h-182v-576z" />
    <glyph glyph-name="E" unicode="E" horiz-adv-x="578" 
d="M106 700h416v-60h-352v-246h348v-60h-348v-274h355v-60h-419v700z" />
    <glyph glyph-name="F" unicode="F" horiz-adv-x="572" 
d="M106 700h413v-60h-349v-264h342v-60h-342v-316h-64v700z" />
    <glyph glyph-name="G" unicode="G" horiz-adv-x="763" 
d="M663 334l-0.00195312 -265c-65.333 -52 -139.666 -78 -222.999 -78c-64.667 0 -124.667 16 -180 48s-99.166 75.5 -131.499 130.5s-48.5 115.167 -48.5 180.5s16.167 125.5 48.5 180.5s76.166 98.5 131.499 130.5s115.333 48 180 48
c84.667 0 159.334 -26.333 224.001 -79l-44 -44c-52.667 40 -112.667 60 -180 60c-82 0 -151.667 -28.833 -209 -86.5s-86 -127.5 -86 -209.5s28.667 -151.833 86 -209.5s127 -86.5 209 -86.5c58 0 111 16 159 48v232h64z" />
    <glyph glyph-name="H" unicode="H" horiz-adv-x="726" 
d="M556 397v303h64v-700h-64v335h-386v-335h-64v700h64v-303h386z" />
    <glyph glyph-name="I" unicode="I" horiz-adv-x="276" 
d="M106 0v700h64v-700h-64z" />
    <glyph glyph-name="J" unicode="J" horiz-adv-x="473" 
d="M301 700l65 0.000976562v-411c0 -94.667 -27.833 -168 -83.5 -220s-127.5 -78 -215.5 -78h-24v64h25c69.333 -0.666992 125.5 19.166 168.5 59.499s64.5 98.5 64.5 174.5v411z" />
    <glyph glyph-name="K" unicode="K" horiz-adv-x="639" 
d="M478 700h76l-235 -269l276 -431h-76l-243 381l-106 -120v-261h-64v700h64v-353z" />
    <glyph glyph-name="L" unicode="L" horiz-adv-x="553" 
d="M106 700h65v-639h338v-61h-403v700z" />
    <glyph glyph-name="M" unicode="M" horiz-adv-x="904" 
d="M726 700h72v-700h-64v611l-282 -353l-282 354v-612h-64v700h72l274 -348z" />
    <glyph glyph-name="N" unicode="N" horiz-adv-x="746" 
d="M106 700h72l398 -597v597h64v-700h-72l-398 598v-598h-64v700z" />
    <glyph glyph-name="O" unicode="O" horiz-adv-x="880" 
d="M440.5 709c65 0 125.167 -16 180.5 -48s99 -75.5 131 -130.5s48 -115.167 48 -180.5s-16 -125.5 -48 -180.5s-75.667 -98.5 -131 -130.5s-115.5 -48 -180.5 -48s-125.167 16 -180.5 48s-99.166 75.5 -131.499 130.5s-48.5 115.167 -48.5 180.5s16.167 125.5 48.5 180.5
s76.166 98.5 131.499 130.5s115.5 48 180.5 48zM440 646c-82 0 -151.667 -28.833 -209 -86.5s-86 -127.5 -86 -209.5s28.667 -151.833 86 -209.5s127 -86.5 209 -86.5s151.833 28.833 209.5 86.5s86.5 127.5 86.5 209.5s-28.833 151.833 -86.5 209.5
s-127.5 86.5 -209.5 86.5z" />
    <glyph glyph-name="P" unicode="P" horiz-adv-x="634" 
d="M106 700l230.999 0.000976562c65.333 0.666992 117.833 -17.833 157.5 -55.5s59.5 -87.834 59.5 -150.501c0 -62 -19.667 -112 -59 -150s-91.666 -57 -156.999 -57h-169v-287h-63v700zM169.999 350.001l164.001 0.000976562c46.667 0 84.334 13.167 113.001 39.5
s43 61.166 43 104.499c0 28.667 -6.83301 54 -20.5 76s-32.334 38.833 -56.001 50.5s-49.834 17.5 -78.501 17.5h-165v-288z" />
    <glyph glyph-name="Q" unicode="Q" horiz-adv-x="881" 
d="M799 37l-45.001 -44.999l-83 83c-67.333 -56 -144.666 -84 -231.999 -84c-64.667 0 -124.667 16 -180 48s-99.166 75.5 -131.499 130.5s-48.5 115.167 -48.5 180.5s16.167 125.5 48.5 180.5s76.166 98.5 131.499 130.5s115.5 48 180.5 48s125.167 -16 180.5 -48
s99 -75.5 131 -130.5s48 -115.167 48 -180.5c0 -86.667 -27.667 -163.334 -83 -230.001zM143.999 350.001c0 -82 28.668 -151.833 86.001 -209.5s127 -86.5 209 -86.5c54 0 103.667 13.167 149 39.5s81.166 62.166 107.499 107.499s39.5 95 39.5 149
c0 82 -28.833 151.833 -86.5 209.5s-127.5 86.5 -209.5 86.5c-54 0 -103.667 -13.167 -149 -39.5s-81 -62.166 -107 -107.499s-39 -95 -39 -149z" />
    <glyph glyph-name="R" unicode="R" horiz-adv-x="661" 
d="M106 700h235.998c42.667 0 80 -8 112 -24s56.667 -38.833 74 -68.5s26 -63.834 26 -102.501c0 -35.333 -7.16699 -66.666 -21.5 -93.999s-34.666 -49.5 -60.999 -66.5s-57.166 -27.833 -92.499 -32.5l202 -312h-75l-199 309h-137v-309h-64v700zM169.998 372
l170.999 0.00195312c29.333 0 55.166 5.33301 77.499 16s39.833 26.167 52.5 46.5s19 43.666 19 69.999s-6.66699 49.666 -20 69.999s-31.166 36 -53.499 47s-47.166 16.5 -74.499 16.5h-172v-266z" />
    <glyph glyph-name="S" unicode="S" horiz-adv-x="523" 
d="M287 324l-45.0029 16.0029c-38 10 -70.333 23 -97 39s-48 36.5 -64 61.5s-24 53.167 -24 84.5c0 58.667 20.167 104.167 60.5 136.5s88.166 48.5 143.499 48.5c68 -0.666992 122.333 -20.334 163 -59.001l-40 -44c-32.667 29.333 -73.667 43 -123 41
c-24 -0.666992 -46.167 -5.33398 -66.5 -14.001s-37.166 -22.334 -50.499 -41.001s-20 -40.667 -20 -66c0 -32.667 11.5 -59.834 34.5 -81.501s58.167 -39.167 105.5 -52.5l49 -15c106 -34.667 159 -100 159 -196c0 -39.333 -10.167 -73.5 -30.5 -102.5
s-46.666 -50.667 -78.999 -65s-67.5 -22.166 -105.5 -23.499c-38.667 -0.666992 -76.167 6 -112.5 20s-66.833 34.667 -91.5 62l40 45c20.667 -22.667 45.334 -39.5 74.001 -50.5s58.334 -15.833 89.001 -14.5c27.333 1.33301 52.5 7 75.5 17s41.667 24.833 56 44.5
s21.5 42.167 21.5 67.5c0 24.667 -4.5 46 -13.5 64s-22.333 33 -40 45s-40.5 23 -68.5 33z" />
    <glyph glyph-name="T" unicode="T" horiz-adv-x="578" 
d="M43 700h490v-60h-213v-640h-64v639h-213v61z" />
    <glyph glyph-name="U" unicode="U" 
d="M591 265l-0.00195312 435h65v-442c0 -73.333 -26.333 -136.166 -79 -188.499s-118 -78.5 -196 -78.5s-143.333 26.167 -196 78.5s-79 115.166 -79 188.499v442h66v-435c0 -29.333 5.5 -57 16.5 -83s25.833 -48.333 44.5 -67s40.834 -33.5 66.501 -44.5
s52.834 -16.5 81.501 -16.5c58 0 107.5 20.5 148.5 61.5s61.5 90.833 61.5 149.5z" />
    <glyph glyph-name="V" unicode="V" horiz-adv-x="747" 
d="M636 700h67l-294 -700h-72l-294 700h66l264 -617z" />
    <glyph glyph-name="W" unicode="W" horiz-adv-x="1067" 
d="M955 700h67l-233 -700h-72l-184 599l-186 -599h-70l-234 700h67l203 -598l183 598h74l183 -598z" />
    <glyph glyph-name="X" unicode="X" horiz-adv-x="649" 
d="M604 0h-72l-208 318l-210 -318h-71l240 366l-220 334h72l190 -289l187 289h72l-219 -336z" />
    <glyph glyph-name="Y" unicode="Y" horiz-adv-x="670" 
d="M555 700h70l-259 -407v-293h-64v293l-259 407h71l220 -346z" />
    <glyph glyph-name="Z" unicode="Z" horiz-adv-x="576" 
d="M66 700h454v-61l-394 -579h397v-60h-470v61l394 579h-381v60z" />
    <glyph glyph-name="bracketleft" unicode="[" horiz-adv-x="227" 
d="M177 689h-65v-768h65v-61h-127v890h127v-61z" />
    <glyph glyph-name="backslash" unicode="\" horiz-adv-x="480" 
d="M50 700h65l315 -700h-65z" />
    <glyph glyph-name="bracketright" unicode="]" horiz-adv-x="227" 
d="M50 750h127v-890h-127v61h65v768h-65v61z" />
    <glyph glyph-name="asciicircum" unicode="^" horiz-adv-x="533" 
d="M246 664h41l196 -325h-71l-145 241l-146 -241h-71z" />
    <glyph glyph-name="underscore" unicode="_" horiz-adv-x="539" 
d="M50 -64h439v-61h-439v61z" />
    <glyph glyph-name="grave" unicode="`" horiz-adv-x="252" 
d="M143 575l-93 125h84l68 -125h-59z" />
    <glyph glyph-name="a" unicode="a" horiz-adv-x="553" 
d="M110 408l-25 48.999c45.333 34.667 108.666 52 189.999 52c68 0 120.5 -19.167 157.5 -57.5s55.5 -91.166 55.5 -158.499v-293h-56v53c-17.333 -18 -42.666 -32.667 -75.999 -44s-66.333 -17 -99 -17c-40 0 -74.5 6.66699 -103.5 20s-51.5 33.333 -67.5 60s-24 59 -24 97
c0 52 18 93.5 54 124.5s87 46.5 153 46.5c57.333 -0.666992 109.333 -13.667 156 -39c-1.33301 48 -15.333 84.833 -42 110.5s-64.667 38.5 -114 38.5c-68.667 0 -121.667 -14 -159 -42zM425 106.999l0.000976562 137.999c-40.667 24 -92.667 36 -156 36
c-48 0 -84 -10.167 -108 -30.5s-36 -48.166 -36 -83.499c0 -36.667 11.5 -64.667 34.5 -84s57.5 -29 103.5 -29c25.333 0 53.666 4.83301 84.999 14.5s57 22.5 77 38.5z" />
    <glyph glyph-name="b" unicode="b" horiz-adv-x="592" 
d="M86 700h63.0029v-235c41.333 28 88.333 42 141 42c73.333 0.666992 130.166 -20.833 170.499 -64.5s60.166 -109.167 59.499 -196.5c-0.666992 -169.333 -77.334 -254 -230.001 -254c-27.333 0 -54 4.5 -80 13.5s-48.333 21.167 -67 36.5v-42h-57v700zM149.003 409
l0.000976562 -310c10 -10.667 22.667 -19.667 38 -27s31.166 -12.833 47.499 -16.5s32.5 -5.5 48.5 -5.5c62 0 106.5 16.333 133.5 49s40.5 81.667 40.5 147c0 134.667 -57.667 202 -173 202c-56 0 -101 -13 -135 -39z" />
    <glyph glyph-name="c" unicode="c" horiz-adv-x="559" 
d="M447 92l44 -44c-46.667 -36.667 -100 -55 -160 -55c-71.333 0 -132.333 25 -183 75s-76 111 -76 183c0 71.333 25.333 132 76 182s111.667 75 183 75c60.667 0 114.334 -18.667 161.001 -56l-44 -44c-34 26 -73 39 -117 39c-54.667 0 -101 -19 -139 -57
s-57 -84.333 -57 -139c0 -22 3.16699 -43 9.5 -63s15.666 -38 27.999 -54s26.5 -30 42.5 -42s34 -21.333 54 -28s40.667 -10 62 -10c44 0 82.667 12.667 116 38z" />
    <glyph glyph-name="d" unicode="d" horiz-adv-x="592" 
d="M444 700h62v-700h-57v42c-18 -15.333 -40 -27.5 -66 -36.5s-52.667 -13.5 -80 -13.5c-152.667 0 -229.667 84.667 -231 254c0 87.333 20 152.833 60 196.5s97 65.167 171 64.5c52.667 0 99.667 -14 141 -42v235zM444 99v309.998c-34 26 -79 39 -135 39
c-115.333 0 -173 -67.333 -173 -202c0 -43.333 5.5 -79.166 16.5 -107.499s29.5 -50.166 55.5 -65.499s59.667 -23 101 -23c25.333 0 50.333 4.33301 75 13s44.667 20.667 60 36z" />
    <glyph glyph-name="e" unicode="e" horiz-adv-x="630" 
d="M480 98l44.001 -44c-44 -41.333 -105.333 -62 -184 -62c-35.333 0 -69 6.16699 -101 18.5s-60.333 29.5 -85 51.5s-44.5 49.333 -59.5 82s-22.5 68 -22.5 106c0 71.333 25.167 132.166 75.5 182.499s111.166 75.5 182.499 75.5c78 0 140.333 -27.333 187 -82
c35.333 -41.333 50.333 -82.666 45 -123.999c-4.66699 -38.667 -26.667 -61.667 -66 -69c-7.33301 -1.33301 -15.333 -2 -24 -2h-329c0 -51.333 19 -94 57 -128s83.667 -51 137 -51c62 0 109.667 15.333 143 46zM144.001 289h304c23.333 0 38 8.66699 44 26
s2.33301 36 -11 56c-12 22 -31 40.667 -57 56s-57.333 23 -94 23c-33.333 0 -64 -7.5 -92 -22.5s-50.167 -34.667 -66.5 -59s-25.5 -50.833 -27.5 -79.5z" />
    <glyph glyph-name="f" unicode="f" horiz-adv-x="374" 
d="M270 708l53.9971 0.000976562v-55h-54c-13.333 0 -25.666 -2.33301 -36.999 -7s-20.666 -11.834 -27.999 -21.501s-11 -21.167 -11 -34.5v-90h120v-59h-120v-441h-62v441h-82v59h82v90c0 36 12.833 64.667 38.5 86s58.834 32 99.501 32z" />
    <glyph glyph-name="g" unicode="g" horiz-adv-x="593" 
d="M108 -125l8.00098 50c53.333 -26.667 112.666 -39.667 177.999 -39c55.333 0.666992 93.833 12.334 115.5 35.001s33.5 65 35.5 127c-34.667 -33.333 -82 -50.333 -142 -51c-74 0 -131 21 -171 63s-60 106.667 -60 194c1.33301 169.333 78.333 254 231 254
c27.333 0 54 -4.5 80 -13.5s48 -21.167 66 -36.5v42h58v-443c-0.666992 -81.333 -17.167 -139.833 -49.5 -175.5s-86.833 -52.834 -163.5 -51.501c-72 0.666992 -134 15.667 -186 45zM444.001 107v294c-15.333 15.333 -35.5 27.333 -60.5 36s-49.833 13 -74.5 13
c-61.333 0 -105.5 -16.333 -132.5 -49s-40.5 -81.667 -40.5 -147c0 -64 13.667 -112.833 41 -146.5s71.333 -50.5 132 -50.5c52 0 97 16.667 135 50z" />
    <glyph glyph-name="h" unicode="h" horiz-adv-x="613" 
d="M532 0h-63v241c0 72 -12.833 124.667 -38.5 158s-69.167 50 -130.5 50c-50 0 -98.667 -16 -146 -48v-401h-63v700h62v-246c48 36 101.333 53.667 160 53c74.667 0 129.667 -22 165 -66s53.333 -110.667 54 -200v-241z" />
    <glyph glyph-name="i" unicode="i" horiz-adv-x="239" 
d="M122.5 577c-11 0 -20.333 3.83301 -28 11.5s-11.5 17 -11.5 28s3.83301 20.333 11.5 28s17 11.5 28 11.5s20.333 -3.83301 28 -11.5s11.5 -17 11.5 -28s-3.83301 -20.333 -11.5 -28s-17 -11.5 -28 -11.5zM92 0v500h61v-500h-61z" />
    <glyph glyph-name="j" unicode="j" horiz-adv-x="349" 
d="M224 656c10.667 0 19.834 -3.83301 27.501 -11.5s11.5 -17 11.5 -28s-3.83301 -20.333 -11.5 -28s-16.834 -11.5 -27.501 -11.5c-11.333 0 -20.833 3.83301 -28.5 11.5s-11.5 17 -11.5 28s3.83301 20.333 11.5 28s17.167 11.5 28.5 11.5zM193 500h61v-526
c0 -45.333 -12 -81.5 -36 -108.5s-59 -40.167 -105 -39.5h-24v56h24c26.667 0 46.667 8.33301 60 25s20 39 20 67v526z" />
    <glyph glyph-name="k" unicode="k" horiz-adv-x="558" 
d="M438 0l-202 265l-82 -82v-183h-63v700h63v-427l228 227h84l-186 -189l232 -311h-74z" />
    <glyph glyph-name="l" unicode="l" horiz-adv-x="233" 
d="M91 0v700h61v-700h-61z" />
    <glyph glyph-name="m" unicode="m" horiz-adv-x="985" 
d="M148 500l-1 -46c46 34.667 97.333 52.334 154 53.001c86.667 2 148 -25.667 184 -83c26.667 23.333 58 43 94 59s70.667 24 104 24c75.333 0.666992 131 -21 167 -65s54 -111 54 -201v-241h-63v241c0 72 -12.667 124.667 -38 158s-68.333 50 -129 50
c-18 0 -37.833 -3.5 -59.5 -10.5s-41.667 -15.333 -60 -25s-34.833 -19.834 -49.5 -30.501c14.667 -36 22 -83.333 22 -142v-241h-63v241c0 72 -12.833 124.667 -38.5 158s-69.167 50 -130.5 50c-50 0 -98.667 -16 -146 -48v-401h-63v500h62z" />
    <glyph glyph-name="n" unicode="n" horiz-adv-x="608" 
d="M527 0l-63.001 -0.000976562v241c0 72 -12.833 124.833 -38.5 158.5s-69.167 50.167 -130.5 49.5c-50 0 -98.667 -16 -146 -48v-401h-63v500h62v-46c48.667 36.667 103.334 54.334 164.001 53.001c74 -0.666992 128.167 -23 162.5 -67s51.833 -110.333 52.5 -199v-241z
" />
    <glyph glyph-name="o" unicode="o" horiz-adv-x="662" 
d="M331 508c34.667 0 68 -6.83203 100 -20.499s59.667 -32 83 -55s41.833 -50.5 55.5 -82.5s20.5 -65.333 20.5 -100c0 -71.333 -25.333 -132.166 -76 -182.499s-111.667 -75.5 -183 -75.5s-132.333 25.167 -183 75.5s-76 111.166 -76 182.499s25.333 132.166 76 182.499
s111.667 75.5 183 75.5zM331 446.001c-54.667 0 -101 -19 -139 -57s-57 -84.333 -57 -139s19 -101 57 -139s84.333 -57 139 -57s101 19 139 57s57 84.333 57 139s-19 101 -57 139s-84.333 57 -139 57z" />
    <glyph glyph-name="p" unicode="p" horiz-adv-x="592" 
d="M143 500l-0.00292969 -42c18.667 15.333 41 27.5 67 36.5s52.667 13.5 80 13.5c152.667 0 229.334 -84.667 230.001 -254c0.666992 -87.333 -19.166 -152.833 -59.499 -196.5s-97.166 -65.5 -170.499 -65.5c-51.333 0.666992 -98.333 15.667 -141 45v-215h-63v678h57z
M148.997 402l-0.00195312 -308c10.667 -8.66699 23.334 -16.167 38.001 -22.5s30.334 -11.166 47.001 -14.499s33.334 -5 50.001 -5c115.333 0 173 67.333 173 202c0 65.333 -13.5 114.333 -40.5 147s-71.5 49 -133.5 49c-24.667 0 -49.334 -4.33301 -74.001 -13
s-44.667 -20.334 -60 -35.001z" />
    <glyph glyph-name="q" unicode="q" horiz-adv-x="592" 
d="M444 -178v215c-43.333 -29.333 -90.333 -44.333 -141 -45c-74 0 -131 21.833 -171 65.5s-60 109.167 -60 196.5c1.33301 169.333 78.333 254 231 254c27.333 0 54 -4.5 80 -13.5s48 -21.167 66 -36.5v42h57v-678h-62zM444 94l-0.000976562 306.999
c-10.667 10.667 -23.5 19.667 -38.5 27s-30.833 12.833 -47.5 16.5s-33 5.5 -49 5.5c-61.333 0 -105.5 -16.333 -132.5 -49s-40.5 -81.667 -40.5 -147c0 -134.667 57.667 -202 173 -202c24.667 0 49.334 3.83301 74.001 11.5s45 17.834 61 30.501z" />
    <glyph glyph-name="r" unicode="r" horiz-adv-x="488" 
d="M148 500v-82.998c22.667 27.333 49.667 49.166 81 65.499s63.666 24.5 96.999 24.5c42 0.666992 81 -12.333 117 -39l-45 -45c-27.333 18.667 -56.666 27.667 -87.999 27c-58 -0.666992 -111.667 -30.334 -161 -89.001v-361h-63v500h62z" />
    <glyph glyph-name="s" unicode="s" horiz-adv-x="412" 
d="M50 60l39.999 39.9971c38 -31.333 75.667 -47.333 113 -48c17.333 0 33.333 3.5 48 10.5s26.334 16.333 35.001 28s13 24.834 13 39.501c1.33301 17.333 -1.16699 32.333 -7.5 45s-17.166 24 -32.499 34s-35.666 19 -60.999 27c-30.667 8 -55.834 18 -75.501 30
s-34.834 27.167 -45.501 45.5s-16 40.166 -16 65.499c0 38.667 14.167 70.167 42.5 94.5s62.166 36.833 101.499 37.5c45.333 0 89 -15 131 -45l-42 -41c-26.667 16 -54.334 24 -83.001 24c-22.667 0 -42.5 -5.83301 -59.5 -17.5s-25.833 -27.5 -26.5 -47.5
c-1.33301 -21.333 4.33398 -39.166 17.001 -53.499s35.334 -26.166 68.001 -35.499c54.667 -15.333 93.667 -35.666 117 -60.999s35 -59 35 -101c0 -41.333 -15 -75 -45 -101s-68 -39 -114 -39c-53.333 0 -104.333 23 -153 69z" />
    <glyph glyph-name="t" unicode="t" horiz-adv-x="364" 
d="M122 627h62.999v-127h129v-59h-129v-331c0 -19.333 7.33301 -34.5 22 -45.5s32.334 -16.5 53.001 -16.5h54v-56h-54c-40 0 -73 10.667 -99 32s-39 50 -39 86v331h-72v59h72v127z" />
    <glyph glyph-name="u" unicode="u" horiz-adv-x="617" 
d="M466 500h64.002v-500h-62v61c-51.333 -46.667 -111 -69.667 -179 -69c-72 1.33301 -124.667 24 -158 68s-50 110.333 -50 199v241h63v-241c0 -72 12.167 -124.833 36.5 -158.5s66.166 -50.167 125.499 -49.5c57.333 0 110.666 21.333 159.999 64v385z" />
    <glyph glyph-name="v" unicode="v" horiz-adv-x="559" 
d="M452 500h60l-201 -500h-63l-202 500h61l173 -425z" />
    <glyph glyph-name="w" unicode="w" horiz-adv-x="830" 
d="M784 500l-168 -500h-65l-136 409l-136 -409h-64l-169 500h61l140 -408l136 408h65l136 -408l139 408h61z" />
    <glyph glyph-name="x" unicode="x" horiz-adv-x="503" 
d="M457 500l-165 -254l165 -246h-74l-134 201l-128 -201h-75l167 252l-167 248h75l135 -203l127 203h74z" />
    <glyph glyph-name="y" unicode="y" horiz-adv-x="579" 
d="M444 500l63.001 0.000976562v-455c-2 -76 -20.667 -131.167 -56 -165.5s-91.666 -50.833 -168.999 -49.5c-72 0.666992 -134 15.667 -186 45l8 50c51.333 -26.667 110.666 -39.667 177.999 -39c56.667 0 97.167 10.5 121.5 31.5s38.5 58.5 42.5 112.5v23
c-20.667 -15.333 -44.834 -28 -72.501 -38s-55.834 -15 -84.501 -15c-75.333 -0.666992 -131.166 21 -167.499 65s-54.5 111.333 -54.5 202v233h63v-233c0 -48 5.16699 -86.833 15.5 -116.5s28 -52.334 53 -68.001s58.167 -23.5 99.5 -23.5c49.333 0 98 16 146 48v393z" />
    <glyph glyph-name="z" unicode="z" horiz-adv-x="446" 
d="M128 59h268v-59h-346v55l264 385h-251v60h329v-56z" />
    <glyph glyph-name="braceleft" unicode="{" horiz-adv-x="361" 
d="M234 750l77 -0.00195312v-59h-43c-8 0 -15.167 -2 -21.5 -6s-11.5 -9.5 -15.5 -16.5s-6 -14.833 -6 -23.5v-226c0 -26 -7.16699 -49.167 -21.5 -69.5s-33.833 -35.166 -58.5 -44.499c24.667 -9.33301 44.167 -24.166 58.5 -44.499s21.5 -43.5 21.5 -69.5v-226
c0 -13.333 4.16699 -24.333 12.5 -33s18.5 -13 30.5 -13h43v-59h-77c-19.333 0 -36 7.16699 -50 21.5s-21 32.5 -21 54.5v236c0 28 -10.333 51.667 -31 71s-46.334 29.666 -77.001 30.999h-5v62h5c30.667 0.666992 56.334 10.834 77.001 30.501s31 43.5 31 71.5v236
c0 22 7 40.167 21 54.5s30.667 21.5 50 21.5z" />
    <glyph glyph-name="bar" unicode="|" horiz-adv-x="163" 
d="M50 700h63v-760h-63v760z" />
    <glyph glyph-name="braceright" unicode="}" horiz-adv-x="361" 
d="M50 750l77.001 -0.000976562c20 0 36.833 -7.16699 50.5 -21.5s20.5 -32.5 20.5 -54.5v-236c0 -28 10.333 -51.833 31 -71.5s46.334 -29.834 77.001 -30.501h5v-62h-5c-30.667 -1.33301 -56.334 -11.666 -77.001 -30.999s-31 -43 -31 -71v-236
c0 -14.667 -3.16699 -27.834 -9.5 -39.501s-15 -20.667 -26 -27s-22.833 -9.5 -35.5 -9.5h-77v59h43c12.667 0 23 4.33301 31 13s12 19.667 12 33v226c0 17.333 3.33301 33.5 10 48.5s16 28.167 28 39.5s26 20 42 26c-12 4.66699 -23 10.834 -33 18.501
s-18.333 16.334 -25 26.001s-12 20.5 -16 32.5s-6 24.333 -6 37v226c0 8.66699 -1.83301 16.5 -5.5 23.5s-8.83398 12.5 -15.501 16.5s-14 6 -22 6h-43v59z" />
    <glyph glyph-name="asciitilde" unicode="~" horiz-adv-x="466" 
d="M417 341v-68.999l-35 -35c-30.667 -30.667 -72.334 -30.334 -125.001 0.999023l-61 35c-40.667 24 -73 24.333 -97 1l-49 -49v69l35 36c30.667 30 72.334 29.667 125.001 -1l61 -36c40.667 -24 73 -24.333 97 -1z" />
    <glyph glyph-name="exclamdown" unicode="&#xa1;" horiz-adv-x="183" 
d="M91.5 548c11.667 0 21.499 -4 29.499 -12s12 -17.667 12 -29c0 -12 -4 -22 -12 -30s-17.667 -12 -29 -12s-21.166 4 -29.499 12s-12.5 18 -12.5 30c0 11.333 4 21 12 29s17.833 12 29.5 12zM122.999 378v-541h-63v541h63z" />
    <glyph glyph-name="cent" unicode="&#xa2;" horiz-adv-x="554" 
d="M290 601l40 -0.000976562v-93c60 -1.33301 112.333 -20 157 -56l-44 -44c-32 24.667 -69.667 37.334 -113 38.001v-391c42 0.666992 79.333 13.334 112 38.001l44 -45c-24 -19.333 -49.5 -33 -76.5 -41s-53.5 -12.667 -79.5 -14v-91h-40v93
c-63.333 8.66699 -116.166 37.167 -158.499 85.5s-63.5 105.166 -63.5 170.499c0 64.667 21.167 121.167 63.5 169.5s95.166 76.833 158.499 85.5v95zM290 58.999v384c-46 -8 -84.167 -30 -114.5 -66s-45.5 -78.167 -45.5 -126.5s15.167 -90.5 45.5 -126.5
s68.5 -57.667 114.5 -65z" />
    <glyph glyph-name="sterling" unicode="&#xa3;" horiz-adv-x="625" 
d="M139 382l-17.002 103c-6 32.667 -6 62.167 0 88.5s15.833 47.666 29.5 63.999s30.667 29.833 51 40.5s41 18.167 62 22.5s42.833 6.5 65.5 6.5c80.667 0 152 -25 214 -75l-41 -40c-50.667 37.333 -106.667 55 -168 53c-22 -0.666992 -41.667 -3.66699 -59 -9
s-33.833 -13.833 -49.5 -25.5s-26.667 -29.167 -33 -52.5s-7.16602 -51.333 -2.49902 -84l15 -92h196v-60h-186l11 -67c18 -104.667 2.66699 -171 -46 -199h393v-62h-523v62c50.667 2.66699 84.334 19.834 101.001 51.501s19.667 79.167 9 142.5l-12 72h-98v60h88z" />
    <glyph glyph-name="currency" unicode="&#xa4;" horiz-adv-x="600" 
 />
    <glyph glyph-name="yen" unicode="&#xa5;" horiz-adv-x="648" 
d="M542 700h72l-186 -269h125v-61h-167l-29 -49v-20h196v-61h-198v-240h-63v240h-196v61h195v20l-30 49h-165v61h123l-185 269h71l218 -320z" />
    <glyph glyph-name="brokenbar" unicode="&#xa6;" horiz-adv-x="162" 
d="M50 700h62v-329h-62v329zM50 268h62v-328h-62v328z" />
    <glyph glyph-name="section" unicode="&#xa7;" horiz-adv-x="455" 
d="M246 161l-101 37.0029c-16 6 -30 13.333 -42 22s-21.667 18 -29 28s-12.833 20.5 -16.5 31.5s-5.5 22.833 -5.5 35.5c0 37.333 14.333 67.333 43 90c-28 23.333 -42 54.666 -42 93.999c0 36 14.5 65.833 43.5 89.5s69.5 35.5 121.5 35.5c24 0 47.667 -2.16699 71 -6.5
s43.166 -9.5 59.499 -15.5s30.5 -12.333 42.5 -19l-25 -51c-14.667 9.33301 -35.667 16.666 -63 21.999s-53.333 8 -78 8c-33.333 0 -58.833 -5.83301 -76.5 -17.5s-26.5 -27.167 -26.5 -46.5c0 -30 22.667 -53.333 68 -70l93 -34c40 -14.667 70.333 -34.667 91 -60
s31 -53.666 31 -84.999c0 -34.667 -11 -64.334 -33 -89.001c22 -26 33 -55.667 33 -89c0 -40.667 -15.667 -74.167 -47 -100.5s-73.333 -39.5 -126 -39.5c-37.333 0 -72.166 4.5 -104.499 13.5s-57.833 19.5 -76.5 31.5l23 45c36 -18 83.333 -27 142 -27
c36.667 0 64.5 7 83.5 21s28.5 32.667 28.5 56c0 20 -5.83301 37.167 -17.5 51.5s-33.167 27.166 -64.5 38.499zM252 341.003l-91.001 33c-28 -10 -42 -30 -42 -60c0 -28 18 -48.667 54 -62l88 -32c28 -12 44.333 -19.333 49 -22c14.667 18.667 21.334 38 20.001 58
c-0.666992 38 -26.667 66.333 -78 85z" />
    <glyph glyph-name="dieresis" unicode="&#xa8;" horiz-adv-x="393" 
d="M92 623c-8 0 -15.166 1.83398 -21.499 5.50098s-11.333 8.66699 -15 15s-5.5 13.166 -5.5 20.499c0 11.333 4.16699 21.166 12.5 29.499s18.166 12.5 29.499 12.5s21 -4.16699 29 -12.5s12 -18.166 12 -29.499s-4 -21 -12 -29s-17.667 -12 -29 -12zM301.001 623.001
c-11.333 0 -21.166 4 -29.499 12s-12.5 17.667 -12.5 29s4.16699 21.166 12.5 29.499s18.166 12.5 29.499 12.5s21.166 -4.16699 29.499 -12.5s12.5 -18.166 12.5 -29.499s-4.16699 -21 -12.5 -29s-18.166 -12 -29.499 -12z" />
    <glyph glyph-name="copyright" unicode="&#xa9;" horiz-adv-x="818" 
d="M409 709c64.667 0 124.667 -16 180 -48s99 -75.667 131 -131s48 -115.5 48 -180.5s-16 -125 -48 -180s-75.667 -98.5 -131 -130.5s-115.333 -48 -180 -48c-48.667 0 -95.167 9.5 -139.5 28.5s-82.5 44.5 -114.5 76.5s-57.5 70.167 -76.5 114.5s-28.5 90.833 -28.5 139.5
c0 64.667 16 124.667 48 180s75.667 99 131 131s115.333 48 180 48zM409 651c-54.667 0 -105 -13.5 -151 -40.5s-82.5 -63.5 -109.5 -109.5s-40.5 -96.333 -40.5 -151c0 -83.333 29.333 -154.333 88 -213s129.667 -88 213 -88s154.333 29.333 213 88s88 129.667 88 213
s-29.333 154.333 -88 213s-129.667 88 -213 88zM489 252l43.001 -43c-34.667 -28.667 -74.334 -43 -119.001 -43c-50.667 0 -94 18.167 -130 54.5s-54 79.833 -54 130.5s18 94 54 130s79.333 54 130 54c45.333 0 85.333 -14.667 120 -44l-43 -42
c-22.667 16.667 -47.667 25 -75 25c-22.667 0 -43.5 -5.33301 -62.5 -16s-34 -25.5 -45 -44.5s-16.5 -39.833 -16.5 -62.5c0 -34.667 12 -64 36 -88s53.333 -36 88 -36c27.333 0 52 8.33301 74 25z" />
    <glyph glyph-name="ordfeminine" unicode="&#xaa;" horiz-adv-x="553" 
d="M110 408l-25 48.999c45.333 34.667 108.666 52 189.999 52c68 0 120.5 -19.167 157.5 -57.5s55.5 -91.166 55.5 -158.499v-293h-56v53c-17.333 -18 -42.666 -32.667 -75.999 -44s-66.333 -17 -99 -17c-40 0 -74.5 6.66699 -103.5 20s-51.5 33.333 -67.5 60s-24 59 -24 97
c0 52 18 93.5 54 124.5s87 46.5 153 46.5c57.333 -0.666992 109.333 -13.667 156 -39c-1.33301 48.667 -15.333 85.667 -42 111s-64.667 38 -114 38c-68.667 0 -121.667 -14 -159 -42zM425 106.999l0.000976562 137.999c-40.667 24 -92.667 36 -156 36
c-48 0 -84 -10.167 -108 -30.5s-36 -48.166 -36 -83.499c0 -36.667 11.5 -64.667 34.5 -84s57.5 -29 103.5 -29c25.333 0 53.666 4.83301 84.999 14.5s57 22.5 77 38.5z" />
    <glyph glyph-name="guillemotleft" unicode="&#xab;" horiz-adv-x="443" 
d="M50 308l167 120v-68l-120 -80l120 -80v-68l-167 119v57zM226 308l167 120v-68l-120 -80l120 -80v-68l-167 119v57z" />
    <glyph glyph-name="logicalnot" unicode="&#xac;" horiz-adv-x="539" 
d="M489 154h-61v124h-378v61h439v-185z" />
    <glyph glyph-name="softhyphen" unicode="&#xad;" horiz-adv-x="386" 
d="M50 312h286v-61h-286v61z" />
    <glyph glyph-name="registered" unicode="&#xae;" horiz-adv-x="818" 
d="M409 709c64.667 0 124.667 -16 180 -48s99 -75.667 131 -131s48 -115.5 48 -180.5s-16 -125 -48 -180s-75.667 -98.5 -131 -130.5s-115.333 -48 -180 -48c-48.667 0 -95.167 9.5 -139.5 28.5s-82.5 44.5 -114.5 76.5s-57.5 70.167 -76.5 114.5s-28.5 90.833 -28.5 139.5
c0 64.667 16 124.667 48 180s75.667 99 131 131s115.333 48 180 48zM409 651c-54.667 0 -105 -13.5 -151 -40.5s-82.5 -63.5 -109.5 -109.5s-40.5 -96.333 -40.5 -151c0 -83.333 29.333 -154.333 88 -213s129.667 -88 213 -88s154.333 29.333 213 88s88 129.667 88 213
s-29.333 154.333 -88 213s-129.667 88 -213 88zM292 534h124c33.333 0 60.5 -9.66699 81.5 -29s31.5 -44 31.5 -74c0 -24 -7.16699 -44.833 -21.5 -62.5s-33.5 -29.5 -57.5 -35.5l102 -156h-58l-91 151h-59v-151h-52v357zM345 376h71c18 0 32.667 4.83301 44 14.5
s17 23.167 17 40.5c0 16.667 -5.66699 30 -17 40s-26 15 -44 15h-71v-110z" />
    <glyph glyph-name="macron" unicode="&#xaf;" horiz-adv-x="406" 
d="M50 700h306v-52h-306v52z" />
    <glyph glyph-name="degree" unicode="&#xb0;" horiz-adv-x="372" 
d="M186 708c37.333 0 69.333 -13.167 96 -39.5s40 -58.166 40 -95.499c0 -38 -13.333 -70 -40 -96s-58.667 -39 -96 -39c-24.667 0 -47.5 5.83301 -68.5 17.5s-37.5 28 -49.5 49s-18 43.833 -18 68.5c0 37.333 13.333 69.166 40 95.499s58.667 39.5 96 39.5zM186 647
c-20.667 0 -38.166 -7.16797 -52.499 -21.501s-21.5 -31.833 -21.5 -52.5c0 -13.333 3.33301 -25.666 10 -36.999s15.667 -20.333 27 -27s23.666 -10 36.999 -10c20.667 0 38.167 7.16699 52.5 21.5s21.5 31.833 21.5 52.5s-7.16699 38.167 -21.5 52.5
s-31.833 21.5 -52.5 21.5z" />
    <glyph glyph-name="plusminus" unicode="&#xb1;" horiz-adv-x="539" 
d="M239 536h61v-139h189v-61h-189v-139h-61v139h-189v61h189v139zM50 61h439v-61h-439v61z" />
    <glyph glyph-name="twosuperior" unicode="&#xb2;" horiz-adv-x="308" 
d="M81 630l-33.0039 33.001c31.333 28 67.666 42.667 108.999 44c32.667 0.666992 59.334 -8 80.001 -26c20 -18 29.333 -41.333 28 -70c-0.666992 -12 -3.16699 -22.333 -7.5 -31s-11.166 -16.5 -20.499 -23.5s-17.666 -12.333 -24.999 -16s-18.333 -8.83398 -33 -15.501
c-25.333 -10.667 -44.333 -23.167 -57 -37.5s-19 -37.166 -19 -68.499h160v-53h-218v33c0 27.333 3 51 9 71s14.667 36 26 48s22 21 32 27s22.333 12 37 18c1.33301 0.666992 4.83301 2 10.5 4l11.5 4c2 0.666992 5.33301 2 10 4s7.83398 3.66699 9.50098 5l7 5.5
c3 2.33301 5 4.66602 6 6.99902l3.5 8.5c1.33301 3.33301 2 7 2 11c0.666992 13.333 -4 24.333 -14 33s-23.667 13 -41 13c-27.333 -0.666992 -51.666 -10 -72.999 -28z" />
    <glyph glyph-name="threesuperior" unicode="&#xb3;" horiz-adv-x="302" 
d="M75 635l-32.002 33.002c32.667 25.333 69 38 109 38c30.667 0 55.667 -7.83301 75 -23.5s29 -37.167 29 -64.5c0 -13.333 -2.66699 -25.5 -8 -36.5s-12.666 -20.167 -21.999 -27.5s-20.333 -12.333 -33 -15c20.667 -3.33301 37 -12.833 49 -28.5s18 -35.5 18 -59.5
c0 -27.333 -9.66699 -49 -29 -65s-45.666 -24.667 -78.999 -26c-40 0 -76.667 13 -110 39l33 33c22 -15.333 45 -23 69 -23c16.667 -0.666992 30.667 3.5 42 12.5s17 21.5 17 37.5c0 16.667 -5.33301 29.667 -16 39s-26 14.666 -46 15.999h-33v48h32
c18 0 32.333 4.66699 43 14s16 21.666 16 36.999c0 14.667 -5 26.167 -15 34.5s-23 12.5 -39 12.5c-24.667 0 -48 -8.33301 -70 -25z" />
    <glyph glyph-name="acute" unicode="&#xb4;" horiz-adv-x="252" 
d="M118 700h84l-93 -125h-59z" />
    <glyph glyph-name="paragraph" unicode="&#xb6;" horiz-adv-x="600" 
d="M285 700h265v-61h-38v-802h-62v802h-105v-802h-63v471c-78 0 -137.833 17 -179.5 51s-62.5 81 -62.5 141c0 71.333 20 122.5 60 153.5s101.667 46.5 185 46.5z" />
    <glyph glyph-name="periodcentered" unicode="&#xb7;" horiz-adv-x="183" 
d="M91.5 272c-11.667 0 -21.499 4 -29.499 12s-12 17.667 -12 29s4.16699 21.166 12.5 29.499s18.166 12.5 29.499 12.5s21 -4.16699 29 -12.5s12 -18.166 12 -29.499s-4 -21 -12 -29s-17.833 -12 -29.5 -12z" />
    <glyph glyph-name="cedilla" unicode="&#xb8;" horiz-adv-x="259" 
d="M89 0h35.998v-45h10c23.333 0 41.5 -6.66699 54.5 -20s19.5 -30 19.5 -50s-7 -37.167 -21 -51.5s-32.333 -21.5 -55 -21.5h-83v38h80c12.667 0 22.334 3.5 29.001 10.5s10 14.833 10 23.5c0 10.667 -3.16699 19.5 -9.5 26.5s-16.166 10.5 -29.499 10.5h-41v79z" />
    <glyph glyph-name="onesuperior" unicode="&#xb9;" horiz-adv-x="156" 
d="M50 362v338h56v-338h-56z" />
    <glyph glyph-name="ordmasculine" unicode="&#xba;" horiz-adv-x="662" 
d="M331 508c34.667 0 68 -6.83203 100 -20.499s59.667 -32 83 -55s41.833 -50.5 55.5 -82.5s20.5 -65.333 20.5 -100c0 -71.333 -25.333 -132.166 -76 -182.499s-111.667 -75.5 -183 -75.5s-132.333 25.167 -183 75.5s-76 111.166 -76 182.499s25.333 132.166 76 182.499
s111.667 75.5 183 75.5zM331 446.001c-54.667 0 -101 -19 -139 -57s-57 -84.333 -57 -139s19 -101 57 -139s84.333 -57 139 -57s101 19 139 57s57 84.333 57 139s-19 101 -57 139s-84.333 57 -139 57z" />
    <glyph glyph-name="guillemotright" unicode="&#xbb;" horiz-adv-x="443" 
d="M50 360v68l167 -120v-57l-167 -119v68l120 80zM226 360v68l167 -120v-56l-167 -120v68l119 80z" />
    <glyph glyph-name="onequarter" unicode="&#xbc;" horiz-adv-x="650" 
d="M50 700h56v-338h-56v338zM416 700h64l-315 -700h-64zM512 338h63v-207h25v-50h-25v-81h-56v81h-167v53zM519 131v148l-114 -148h114z" />
    <glyph glyph-name="onehalf" unicode="&#xbd;" horiz-adv-x="670" 
d="M50 700h56v-338h-56v338zM410 700h64l-315 -700h-64zM436 264l-33.001 33c30.667 27.333 65.667 42 105 44c36 2 64.667 -7.33301 86 -28c18 -17.333 26.667 -39.666 26 -66.999c-1.33301 -22.667 -8.66602 -39.667 -21.999 -51s-34.666 -23.333 -63.999 -36
c-25.333 -10 -44.333 -22.167 -57 -36.5s-19 -37.5 -19 -69.5h160v-53h-218v34c0 22 2.33301 41.667 7 59s10 31.333 16 42s14 20.334 24 29.001s19 15.167 27 19.5s17.667 8.83301 29 13.5l11.5 4l11.5 4c2 0.666992 5.16699 2 9.5 4s7.5 3.66699 9.5 5
s4.5 3.16602 7.5 5.49902s5 4.66602 6 6.99902l3.5 8.5c1.33301 3.33301 2 7 2 11c0.666992 12 -3 22 -11 30c-10 11.333 -25.333 16.666 -46 15.999c-26.667 -1.33301 -50.334 -10.666 -71.001 -27.999z" />
    <glyph glyph-name="threequarters" unicode="&#xbe;" horiz-adv-x="743" 
d="M82 635l-33.002 33.002c33.333 25.333 70 38 110 38c30 0 54.833 -7.83301 74.5 -23.5s29.5 -37.167 29.5 -64.5c0 -13.333 -2.66699 -25.5 -8 -36.5s-12.666 -20.167 -21.999 -27.5s-20.333 -12.333 -33 -15c20 -3.33301 36.167 -12.833 48.5 -28.5
s18.5 -35.5 18.5 -59.5c0 -27.333 -9.83301 -49 -29.5 -65s-46.167 -24.667 -79.5 -26c-39.333 0 -75.666 13 -108.999 39l33 33c21.333 -15.333 44.333 -23 69 -23c16.667 -0.666992 30.667 3.5 42 12.5s17 21.5 17 37.5c0 16.667 -5.5 29.667 -16.5 39
s-26.5 14.666 -46.5 15.999h-32v48h31c18.667 0 33.167 4.66699 43.5 14s15.5 21.666 15.5 36.999c0 14.667 -5 26.167 -15 34.5s-22.667 12.5 -38 12.5c-24.667 0 -48 -8.33301 -70 -25zM506.998 700.002h65l-315 -700h-65zM603.998 338.002h63v-207h25v-50h-25v-81h-57v81
h-166v53zM609.998 131.002v148l-113 -148h113z" />
    <glyph glyph-name="questiondown" unicode="&#xbf;" horiz-adv-x="510" 
d="M309 556c12 0 21.999 -4 29.999 -12s12 -17.667 12 -29s-4.16699 -21.166 -12.5 -29.499s-18.166 -12.5 -29.499 -12.5s-21.166 4.16699 -29.499 12.5s-12.5 18.166 -12.5 29.499s4.16699 21 12.5 29s18.166 12 29.499 12zM277.999 313l65.001 -0.00390625
c0 -28.667 -3.16699 -53.5 -9.5 -74.5s-16.5 -38.5 -30.5 -52.5s-27.833 -25.167 -41.5 -33.5s-31.834 -17.833 -54.501 -28.5c-31.333 -13.333 -54.833 -27.666 -70.5 -42.999s-23.5 -36.666 -23.5 -63.999c0 -37.333 14.333 -67 43 -89c25.333 -20.667 58.333 -31 99 -31
c62 0.666992 116.333 21 163 61l43 -44c-59.333 -49.333 -126.666 -74.666 -201.999 -75.999c-57.333 -2 -105 13 -143 45c-42.667 32 -64.334 76.333 -65.001 133c-0.666992 40 9.83301 71.5 31.5 94.5s53.5 43.833 95.5 62.5c14 6 25 11.167 33 15.5
s16.833 10.333 26.5 18s17 15.834 22 24.501s9.33301 20 13 34s5.5 30 5.5 48z" />
    <glyph glyph-name="Agrave" unicode="&#xc0;" 
d="M277 900h84l68 -125h-59zM340 700h72l297 -700h-67l-95 218h-342l-94 -218h-68zM521 282l-145 342l-145 -342h290z" />
    <glyph glyph-name="Aacute" unicode="&#xc1;" 
d="M391 900h84l-93 -125h-59zM340 700h72l297 -700h-67l-95 218h-342l-94 -218h-68zM521 282l-145 342l-145 -342h290z" />
    <glyph glyph-name="Acircumflex" unicode="&#xc2;" 
d="M345 900h64l123 -134h-71l-84 95l-84 -95h-72zM340 700h72l297 -700h-67l-95 218h-342l-94 -218h-68zM521 282l-145 342l-145 -342h290z" />
    <glyph glyph-name="Atilde" unicode="&#xc3;" 
d="M473 863l35.999 36v-62l-23 -22c-24 -24 -55.667 -24.667 -95 -2l-45 27c-29.333 17.333 -52 18 -68 2l-42 -42v61l29 29c22.667 22.667 53.334 22.667 92.001 0l45 -26c30 -18 53.667 -18.333 71 -1zM339.999 700h72l297 -700h-67l-95 218h-342l-94 -218h-68z
M520.999 282l-145 342l-145 -342h290z" />
    <glyph glyph-name="Adieresis" unicode="&#xc4;" 
d="M272 823c-7.33301 0 -14.167 1.83398 -20.5 5.50098s-11.333 8.66699 -15 15s-5.5 13.166 -5.5 20.499c0 11.333 4 21.166 12 29.499s17.667 12.5 29 12.5s21.166 -4.16699 29.499 -12.5s12.5 -18.166 12.5 -29.499s-4.16699 -21 -12.5 -29s-18.166 -12 -29.499 -12z
M480.999 823.001c-11.333 0 -21 4 -29 12s-12 17.667 -12 29s4 21.166 12 29.499s17.667 12.5 29 12.5c12 0 22 -4.16699 30 -12.5s12 -18.166 12 -29.499s-4 -21 -12 -29s-18 -12 -30 -12zM339.999 700.001h72l297 -700h-68l-94 218h-342l-94 -218h-68zM520.999 282.001
l-145 342l-145 -342h290z" />
    <glyph glyph-name="Aring" unicode="&#xc5;" 
d="M413 698l296.001 -698.002h-67l-95 218h-342l-94 -218h-68l296 698c-12.667 4.66699 -23.834 11.667 -33.501 21s-17.167 20.5 -22.5 33.5s-8 26.5 -8 40.5c0 28 9.83301 51.833 29.5 71.5s43.5 29.5 71.5 29.5s52 -9.83301 72 -29.5s30 -43.5 30 -71.5
c0 -21.333 -6 -40.666 -18 -57.999s-27.667 -29.666 -47 -36.999zM376.001 843.998c-14 0 -25.832 -4.99707 -35.499 -14.9971s-14.5 -22 -14.5 -36c0 -9.33301 2.16699 -18 6.5 -26s10.333 -14.333 18 -19s16.167 -7 25.5 -7c6 0 11.5 0.833008 16.5 2.5
s9.66699 4.16699 14 7.5s8.16602 7.16602 11.499 11.499s5.83301 9.16602 7.5 14.499s2.5 10.666 2.5 15.999c0 14 -5 26 -15 36s-22.333 15 -37 15zM231.002 282.001h290l-145 342z" />
    <glyph glyph-name="AE" unicode="&#xc6;" horiz-adv-x="842" 
d="M340 700h444v-60h-352v-246h348v-60h-348v-274h356v-60h-420v218h-163l-95 -218h-67zM368 282v324l-137 -324h137z" />
    <glyph glyph-name="Ccedilla" unicode="&#xc7;" horiz-adv-x="730" 
d="M436 -45h9c24 0 42.5 -6.66699 55.5 -20s19.5 -30.333 19.5 -51c0 -20 -7 -37 -21 -51s-32.333 -21 -55 -21h-83v38h79c12.667 0 22.5 3.5 29.5 10.5s10.5 15.167 10.5 24.5c0 6 -1.16699 11.667 -3.5 17s-6.66602 9.83301 -12.999 13.5s-14.166 5.5 -23.499 5.5h-40v74
c-87.333 12.667 -160.5 52.5 -219.5 119.5s-88.5 145.5 -88.5 235.5c0 65.333 16.167 125.5 48.5 180.5s76.166 98.5 131.499 130.5s115.666 48 180.999 48c84 0 158.667 -26.333 224 -79l-45 -44c-52.667 40 -112.334 60 -179.001 60
c-82.667 0 -152.667 -28.833 -210 -86.5s-86 -127.5 -86 -209.5s28.667 -152 86 -210s127 -87 209 -87c66.667 0 126.334 20 179.001 60l46 -43c-66.667 -52.667 -141.667 -79 -225 -79h-16v-36z" />
    <glyph glyph-name="Egrave" unicode="&#xc8;" horiz-adv-x="578" 
d="M233 900h83l69 -125h-60zM106 700h416v-60h-352v-246h348v-60h-348v-274h355v-60h-419v700z" />
    <glyph glyph-name="Eacute" unicode="&#xc9;" horiz-adv-x="578" 
d="M319 900h83l-92 -125h-59zM106 700h416v-60h-352v-246h348v-60h-348v-274h355v-60h-419v700z" />
    <glyph glyph-name="Ecircumflex" unicode="&#xca;" horiz-adv-x="578" 
d="M277 900h64l123 -134h-71l-84 95l-84 -95h-72zM106 700h416v-60h-352v-246h348v-60h-348v-274h355v-60h-419v700z" />
    <glyph glyph-name="Edieresis" unicode="&#xcb;" horiz-adv-x="579" 
d="M204 823c-7.33301 0 -14.3311 1.83301 -20.998 5.5s-11.834 8.66699 -15.501 15s-5.5 13.166 -5.5 20.499c0 11.333 4.16699 21.166 12.5 29.499s18.166 12.5 29.499 12.5s21.166 -4.16699 29.499 -12.5s12.5 -18.166 12.5 -29.499c0 -7.33301 -2 -14.166 -6 -20.499
s-9.16699 -11.333 -15.5 -15s-13.166 -5.5 -20.499 -5.5zM413.002 823c-11.333 0 -21 4 -29 12s-12 17.667 -12 29s4 21.166 12 29.499s17.667 12.5 29 12.5s21.166 -4.16699 29.499 -12.5s12.5 -18.166 12.5 -29.499s-4.16699 -21 -12.5 -29s-18.166 -12 -29.499 -12z
M106.002 700h415v-60h-351v-246h348v-60h-348v-274h355v-60h-419v700z" />
    <glyph glyph-name="Igrave" unicode="&#xcc;" horiz-adv-x="295" 
d="M137 0v700h64v-700h-64zM185 775l-93 125h84l68 -125h-59z" />
    <glyph glyph-name="Iacute" unicode="&#xcd;" horiz-adv-x="276" 
d="M105 0v700h64v-700h-64zM130 900h84l-93 -125h-59z" />
    <glyph glyph-name="Icircumflex" unicode="&#xce;" horiz-adv-x="277" 
d="M107 900h64l123 -134h-71l-84 95l-84 -95h-71zM107 700h64v-700h-64v700z" />
    <glyph glyph-name="Idieresis" unicode="&#xcf;" horiz-adv-x="277" 
d="M35 823c-7.33301 0 -14.3311 1.83398 -20.998 5.50098s-11.834 8.66699 -15.501 15s-5.5 13.166 -5.5 20.499c0 11.333 4.16699 21.166 12.5 29.499s18.166 12.5 29.499 12.5s21.166 -4.16699 29.499 -12.5s12.5 -18.166 12.5 -29.499s-4.16699 -21 -12.5 -29
s-18.166 -12 -29.499 -12zM244.002 823.001c-7.33301 0 -14.167 1.83398 -20.5 5.50098s-11.333 8.66699 -15 15s-5.5 13.166 -5.5 20.499c0 11.333 4 21.166 12 29.499s17.667 12.5 29 12.5c12 0 22 -4.16699 30 -12.5s12 -18.166 12 -29.499s-4 -21 -12 -29
s-18 -12 -30 -12zM108.001 0.00195312v700h64v-700h-64z" />
    <glyph glyph-name="Eth" unicode="&#xd0;" horiz-adv-x="836" 
d="M143 700h246c65.333 0 125.666 -15.667 180.999 -47s99.166 -73.833 131.499 -127.5s48.5 -112.167 48.5 -175.5s-16.167 -121.833 -48.5 -175.5s-76.166 -96.167 -131.499 -127.5s-115.666 -47 -180.999 -47h-246v324h-107v61h107v315zM207 62l181.999 0.000976562
c82 0 151.833 28.167 209.5 84.5s86.5 124.166 86.5 203.499c0 52 -13.167 100 -39.5 144s-62.166 79 -107.499 105s-95 39 -149 39h-182v-253h115v-61h-115v-262z" />
    <glyph glyph-name="Ntilde" unicode="&#xd1;" horiz-adv-x="746" 
d="M476 863l35.999 36v-62l-23 -22c-24 -24 -55.667 -24.667 -95 -2l-45 27c-30 17.333 -52.667 18 -68 2l-42 -42v61l29 29c22.667 22.667 53.334 22.667 92.001 0l44 -26c30.667 -18 54.667 -18.333 72 -1zM105.999 700h72l398 -597v597h64v-700h-72l-398 598v-598h-64
v700z" />
    <glyph glyph-name="Ograve" unicode="&#xd2;" horiz-adv-x="880" 
d="M440.5 709c65 0 125.167 -16 180.5 -48s99 -75.5 131 -130.5s48 -115.167 48 -180.5s-16 -125.5 -48 -180.5s-75.667 -98.5 -131 -130.5s-115.5 -48 -180.5 -48s-125.167 16 -180.5 48s-99.166 75.5 -131.499 130.5s-48.5 115.167 -48.5 180.5s16.167 125.5 48.5 180.5
s76.166 98.5 131.499 130.5s115.5 48 180.5 48zM440 646c-82 0 -151.667 -28.833 -209 -86.5s-86 -127.5 -86 -209.5s28.667 -151.833 86 -209.5s127 -86.5 209 -86.5s151.833 28.833 209.5 86.5s86.5 127.5 86.5 209.5s-28.833 151.833 -86.5 209.5
s-127.5 86.5 -209.5 86.5zM437 775l-93 125h84l68 -125h-59z" />
    <glyph glyph-name="Oacute" unicode="&#xd3;" horiz-adv-x="880" 
d="M439.5 709c65 0 125.167 -16 180.5 -48s99 -75.5 131 -130.5s48 -115.167 48 -180.5s-16 -125.5 -48 -180.5s-75.667 -98.5 -131 -130.5s-115.5 -48 -180.5 -48s-125.167 16 -180.5 48s-99.166 75.5 -131.499 130.5s-48.5 115.167 -48.5 180.5s16.167 125.5 48.5 180.5
s76.166 98.5 131.499 130.5s115.5 48 180.5 48zM439 646c-82 0 -151.667 -28.833 -209 -86.5s-86 -127.5 -86 -209.5s28.667 -151.833 86 -209.5s127 -86.5 209 -86.5s151.833 28.833 209.5 86.5s86.5 127.5 86.5 209.5s-28.833 151.833 -86.5 209.5
s-127.5 86.5 -209.5 86.5zM452 900h84l-93 -125h-59z" />
    <glyph glyph-name="Ocircumflex" unicode="&#xd4;" horiz-adv-x="880" 
d="M408 900h64l123 -134h-71l-84 95l-84 -95h-71zM440.5 709c65 0 125.167 -16 180.5 -48s99 -75.5 131 -130.5s48 -115.167 48 -180.5s-16 -125.5 -48 -180.5s-75.667 -98.5 -131 -130.5s-115.5 -48 -180.5 -48s-125.167 16 -180.5 48s-99.166 75.5 -131.499 130.5
s-48.5 115.167 -48.5 180.5s16.167 125.5 48.5 180.5s76.166 98.5 131.499 130.5s115.5 48 180.5 48zM440 646c-82 0 -151.667 -28.833 -209 -86.5s-86 -127.5 -86 -209.5s28.667 -151.833 86 -209.5s127 -86.5 209 -86.5s151.833 28.833 209.5 86.5s86.5 127.5 86.5 209.5
s-28.833 151.833 -86.5 209.5s-127.5 86.5 -209.5 86.5z" />
    <glyph glyph-name="Otilde" unicode="&#xd5;" horiz-adv-x="880" 
d="M542 864l35.999 35.999v-62l-23 -23c-24 -24 -55.333 -24.667 -94 -2l-46 27c-29.333 17.333 -52 18 -68 2l-42 -42v61l29 30c22.667 22.667 53.334 22.334 92.001 -0.999023l45 -26c30 -17.333 53.667 -17.333 71 0zM440.499 708.999c65 0 125.167 -16 180.5 -48
s99 -75.5 131 -130.5s48 -115.167 48 -180.5s-16 -125.5 -48 -180.5s-75.667 -98.5 -131 -130.5s-115.5 -48 -180.5 -48s-125.167 16 -180.5 48s-99.166 75.5 -131.499 130.5s-48.5 115.167 -48.5 180.5s16.167 125.5 48.5 180.5s76.166 98.5 131.499 130.5
s115.5 48 180.5 48zM439.999 645.999c-82 0 -151.667 -28.833 -209 -86.5s-86 -127.5 -86 -209.5s28.667 -151.833 86 -209.5s127 -86.5 209 -86.5s151.833 28.833 209.5 86.5s86.5 127.5 86.5 209.5s-28.833 151.833 -86.5 209.5s-127.5 86.5 -209.5 86.5z" />
    <glyph glyph-name="Odieresis" unicode="&#xd6;" horiz-adv-x="880" 
d="M335 823c-12 0 -22 4 -30 12s-12 17.667 -12 29s4 21.166 12 29.499s18 12.5 30 12.5c11.333 0 21 -4.16699 29 -12.5s12 -18.166 12 -29.499s-4 -21 -12 -29s-17.667 -12 -29 -12zM544 823c-11.333 0 -21.166 3.99902 -29.499 11.999s-12.5 17.667 -12.5 29
s4.16699 21.166 12.5 29.499s18.166 12.5 29.499 12.5s21.166 -4.16699 29.499 -12.5s12.5 -18.166 12.5 -29.499c0 -7.33301 -2 -14.166 -6 -20.499s-9.16699 -11.333 -15.5 -15s-13.166 -5.5 -20.499 -5.5zM439.5 708.999c65 0 125.167 -16 180.5 -48s99 -75.5 131 -130.5
s48 -115.167 48 -180.5s-16 -125.5 -48 -180.5s-75.667 -98.5 -131 -130.5s-115.5 -48 -180.5 -48s-125.167 16 -180.5 48s-99.166 75.5 -131.499 130.5s-48.5 115.167 -48.5 180.5s16.167 125.5 48.5 180.5s76.166 98.5 131.499 130.5s115.5 48 180.5 48zM439 645.999
c-82 0 -151.667 -28.833 -209 -86.5s-86 -127.5 -86 -209.5s28.667 -151.833 86 -209.5s127 -86.5 209 -86.5s151.833 28.833 209.5 86.5s86.5 127.5 86.5 209.5s-28.833 151.833 -86.5 209.5s-127.5 86.5 -209.5 86.5z" />
    <glyph glyph-name="multiply" unicode="&#xd7;" horiz-adv-x="453" 
d="M227 352l133 133l43 -43l-133 -134l133 -133l-43 -43l-133 133l-134 -133l-43 43l133 133l-133 134l43 43z" />
    <glyph glyph-name="Oslash" unicode="&#xd8;" horiz-adv-x="880" 
d="M645 750l-36.999 -81.9971c58 -30.667 104.5 -74.334 139.5 -131.001s52.5 -119 52.5 -187c0 -65.333 -16 -125.5 -48 -180.5s-75.667 -98.5 -131 -130.5s-115.666 -48 -180.999 -48c-44 0 -86 7.66699 -126 23l-29 -64h-65l40 89
c-54.667 31.333 -98.334 74.666 -131.001 129.999s-49 115.666 -49 180.999s16.167 125.5 48.5 180.5s76.166 98.5 131.499 130.5s115.333 48 180 48c39.333 0 77.333 -6 114 -18l26 59h65zM286.001 97.0029l242.001 535.999c-28.667 8.66699 -58 13 -88 13
c-54 0 -103.667 -13.167 -149 -39.5s-81 -62.166 -107 -107.499s-39 -95 -39 -149c0 -53.333 12.667 -102.333 38 -147s59.666 -80 102.999 -106zM582.002 610.002l-242.999 -539.003c32.667 -11.333 66.334 -17 101.001 -17c82 0 151.833 28.833 209.5 86.5
s86.5 127.5 86.5 209.5c0 22 -2.33301 43.833 -7 65.5s-11.5 41.834 -20.5 60.501s-19.833 36.334 -32.5 53.001s-26.834 31.834 -42.501 45.501s-32.834 25.5 -51.501 35.5z" />
    <glyph glyph-name="Ugrave" unicode="&#xd9;" 
d="M317 861l-18 57l95 -68l18 -57zM591 265l-0.00195312 435h65v-442c0 -73.333 -26.333 -136.166 -79 -188.499s-118 -78.5 -196 -78.5s-143.333 26.167 -196 78.5s-79 115.166 -79 188.499v442h66v-435c0 -29.333 5.5 -57 16.5 -83s25.833 -48.333 44.5 -67
s40.834 -33.5 66.501 -44.5s52.834 -16.5 81.501 -16.5c58 0 107.5 20.5 148.5 61.5s61.5 90.833 61.5 149.5z" />
    <glyph glyph-name="Uacute" unicode="&#xda;" 
d="M591 265l-0.00195312 435h65v-442c0 -73.333 -26.333 -136.166 -79 -188.499s-118 -78.5 -196 -78.5s-143.333 26.167 -196 78.5s-79 115.166 -79 188.499v442h66v-435c0 -29.333 5.5 -57 16.5 -83s25.833 -48.333 44.5 -67s40.834 -33.5 66.501 -44.5
s52.834 -16.5 81.501 -16.5c58 0 107.5 20.5 148.5 61.5s61.5 90.833 61.5 149.5zM388.998 900h84l-93 -125h-59z" />
    <glyph glyph-name="Ucircumflex" unicode="&#xdb;" 
d="M349 900h64l123 -134h-71l-84 95l-84 -95h-71zM591 265l-0.00195312 435h65v-442c0 -73.333 -26.333 -136.166 -79 -188.499s-118 -78.5 -196 -78.5s-143.333 26.167 -196 78.5s-79 115.166 -79 188.499v442h66v-435c0 -29.333 5.5 -57 16.5 -83s25.833 -48.333 44.5 -67
s40.834 -33.5 66.501 -44.5s52.834 -16.5 81.501 -16.5c58 0 107.5 20.5 148.5 61.5s61.5 90.833 61.5 149.5z" />
    <glyph glyph-name="Udieresis" unicode="&#xdc;" 
d="M277 823c-7.33301 0 -14.167 1.83398 -20.5 5.50098s-11.333 8.66699 -15 15s-5.5 13.166 -5.5 20.499c0 11.333 4 21.166 12 29.499s17.667 12.5 29 12.5c12 0 22 -4.16699 30 -12.5s12 -18.166 12 -29.499s-4 -21 -12 -29s-18 -12 -30 -12zM486.999 823.001
c-12 0 -22 4 -30 12s-12 17.667 -12 29s4 21.166 12 29.499s18 12.5 30 12.5c11.333 0 21 -4.16699 29 -12.5s12 -18.166 12 -29.499s-4 -21 -12 -29s-17.667 -12 -29 -12zM590.999 265.001l-0.00195312 435h65v-442c0 -73.333 -26.333 -136.166 -79 -188.499
s-118 -78.5 -196 -78.5s-143.333 26.167 -196 78.5s-79 115.166 -79 188.499v442h66v-435c0 -29.333 5.5 -57 16.5 -83s25.833 -48.333 44.5 -67s40.834 -33.5 66.501 -44.5s52.834 -16.5 81.501 -16.5c58 0 107.5 20.5 148.5 61.5s61.5 90.833 61.5 149.5z" />
    <glyph glyph-name="Yacute" unicode="&#xdd;" horiz-adv-x="670" 
d="M555 700h70l-259 -407v-293h-64v293l-259 407h71l220 -346zM347 900h84l-93 -125h-59z" />
    <glyph glyph-name="Thorn" unicode="&#xde;" horiz-adv-x="604" 
d="M106 700h64v-128h146c62 0 112.167 -17.5 150.5 -52.5s57.5 -81.833 57.5 -140.5c0 -38 -8.5 -71.5 -25.5 -100.5s-41.167 -51.5 -72.5 -67.5s-68 -24 -110 -24h-146v-187h-64v700zM171 250l144 -0.000976562c42.667 0 77.5 11.833 104.5 35.5s40.5 54.834 40.5 93.501
c0 26 -6.5 48.833 -19.5 68.5s-30.5 34.667 -52.5 45s-46.333 15.5 -73 15.5h-144v-258z" />
    <glyph glyph-name="germandbls" unicode="&#xdf;" horiz-adv-x="680" 
d="M86 0l0.000976562 523.002c0 38.667 9.5 71.834 28.5 99.501s46.667 48.667 83 63s79.833 21.833 130.5 22.5c39.333 -0.666992 74.5 -5.33398 105.5 -14.001s56.667 -21 77 -37s36 -35.333 47 -58s16.5 -48 16.5 -76c0 -36 -9.83301 -67.667 -29.5 -95
s-46.5 -48.333 -80.5 -63c39.333 -15.333 71 -38.5 95 -69.5s36 -66.833 36 -107.5c0 -57.333 -21.5 -102.833 -64.5 -136.5s-97.167 -50.834 -162.5 -51.501h-156v62h144c51.333 0.666992 92.833 12 124.5 34s47.5 54 47.5 96c0 40.667 -16 73.5 -48 98.5
s-74 37.167 -126 36.5v65c47.333 1.33301 84.666 13.166 111.999 35.499s41 52.833 41 91.5c0 40.667 -15.167 71.834 -45.5 93.501s-74.5 32.834 -132.5 33.501c-39.333 -0.666992 -72.333 -5.83398 -99 -15.501s-46.667 -23.834 -60 -42.501s-20 -41.667 -20 -69v-519h-64
z" />
    <glyph glyph-name="agrave" unicode="&#xe0;" horiz-adv-x="553" 
d="M186 711h84l68 -125h-59zM110 408l-25 48.999c45.333 34.667 108.666 52 189.999 52c68 0 120.5 -19.167 157.5 -57.5s55.5 -91.166 55.5 -158.499v-293h-56v53c-17.333 -18 -42.666 -32.667 -75.999 -44s-66.333 -17 -99 -17c-40 0 -74.5 6.66699 -103.5 20
s-51.5 33.333 -67.5 60s-24 59 -24 97c0 52 18 93.5 54 124.5s87 46.5 153 46.5c57.333 -0.666992 109.333 -13.667 156 -39c-1.33301 48 -15.333 84.833 -42 110.5s-64.667 38.5 -114 38.5c-68.667 0 -121.667 -14 -159 -42zM425 106.999l0.000976562 137.999
c-40.667 24 -92.667 36 -156 36c-48 0 -84 -10.167 -108 -30.5s-36 -48.166 -36 -83.499c0 -36.667 11.5 -64.667 34.5 -84s57.5 -29 103.5 -29c25.333 0 53.666 4.83301 84.999 14.5s57 22.5 77 38.5z" />
    <glyph glyph-name="aacute" unicode="&#xe1;" horiz-adv-x="553" 
d="M274 711h84l-93 -125h-59zM110 408l-25 49c45.333 34.667 108.666 52 189.999 52c68 0 120.5 -19.167 157.5 -57.5s55.5 -91.166 55.5 -158.499v-293h-56v53c-17.333 -18 -42.666 -32.667 -75.999 -44s-66.333 -17 -99 -17c-40 0 -74.5 6.66699 -103.5 20
s-51.5 33.333 -67.5 60s-24 59 -24 97c0 52 18 93.5 54 124.5s87 46.5 153 46.5c57.333 -0.666992 109.333 -13.667 156 -39c-0.666992 32 -7.16699 59.167 -19.5 81.5s-30 39.166 -53 50.499s-50.833 17 -83.5 17c-68.667 0 -121.667 -14 -159 -42zM425 107
l0.000976562 137.999c-40.667 24 -92.667 36 -156 36c-48 0 -84 -10.167 -108 -30.5s-36 -48.166 -36 -83.499c0 -36.667 11.5 -64.667 34.5 -84s57.5 -29 103.5 -29c25.333 0 53.666 4.83301 84.999 14.5s57 22.5 77 38.5z" />
    <glyph glyph-name="acircumflex" unicode="&#xe2;" horiz-adv-x="553" 
d="M235 711h64l123 -134h-71l-84 95l-84 -95h-71zM110 408l-24.999 49c45.333 34.667 108.666 52 189.999 52c45.333 0 84.166 -8.83301 116.499 -26.5s56.5 -42.667 72.5 -75s24 -70.5 24 -114.5v-293h-56v53c-17.333 -18 -42.666 -32.667 -75.999 -44s-66.333 -17 -99 -17
c-40 0 -74.5 6.66699 -103.5 20s-51.5 33.333 -67.5 60s-24 59 -24 97c0 52 18 93.5 54 124.5s87 46.5 153 46.5c57.333 -0.666992 109.333 -13.667 156 -39c-1.33301 48 -15.333 84.833 -42 110.5s-64.667 38.5 -114 38.5c-68.667 0 -121.667 -14 -159 -42zM425.001 107
l0.000976562 137.999c-40.667 24 -92.667 36 -156 36c-48 0 -84 -10.167 -108 -30.5s-36 -48.166 -36 -83.499c0 -36.667 11.5 -64.667 34.5 -84s57.5 -29 103.5 -29c25.333 0 53.666 4.83301 84.999 14.5s57 22.5 77 38.5z" />
    <glyph glyph-name="atilde" unicode="&#xe3;" horiz-adv-x="553" 
d="M376 674l36 35.999v-62l-22 -22c-24.667 -24 -56.334 -24.667 -95.001 -2l-45 27c-30 17.333 -53 18 -69 2l-42 -42v61l29 30c22.667 22 53.667 21.667 93 -1l44 -26c30.667 -17.333 54.334 -17.666 71.001 -0.999023zM110 407.999l-24.999 49
c45.333 34.667 108.666 52 189.999 52c45.333 0 84.166 -8.83301 116.499 -26.5s56.5 -42.667 72.5 -75s24 -70.5 24 -114.5v-293h-56v53c-17.333 -18 -42.666 -32.667 -75.999 -44s-66.333 -17 -99 -17c-40 0 -74.5 6.66699 -103.5 20s-51.5 33.333 -67.5 60s-24 59 -24 97
c0 52 18 93.5 54 124.5s87 46.5 153 46.5c57.333 -0.666992 109.333 -13.667 156 -39c-1.33301 48.667 -15.333 85.667 -42 111s-64.667 38 -114 38c-68.667 0 -121.667 -14 -159 -42zM425.001 106.999l0.000976562 137.999c-40.667 24 -92.667 36 -156 36
c-48 0 -84 -10.167 -108 -30.5s-36 -48.166 -36 -83.499c0 -36.667 11.5 -64.667 34.5 -84s57.5 -29 103.5 -29c25.333 0 53.666 4.83301 84.999 14.5s57 22.5 77 38.5z" />
    <glyph glyph-name="adieresis" unicode="&#xe4;" horiz-adv-x="553" 
d="M166.5 634c-7.66699 0 -14.666 1.83301 -20.999 5.5s-11.333 8.66699 -15 15s-5.5 13.166 -5.5 20.499c0 11.333 4 21.166 12 29.499s17.667 12.5 29 12.5s21.166 -4.16699 29.499 -12.5s12.5 -18.166 12.5 -29.499c0 -7.33301 -1.83301 -14.166 -5.5 -20.499
s-8.66699 -11.333 -15 -15s-13.333 -5.5 -21 -5.5zM376.001 634c-12 0 -22 4 -30 12s-12 17.667 -12 29s4 21.166 12 29.499s18 12.5 30 12.5c11.333 0 21 -4.16699 29 -12.5s12 -18.166 12 -29.499s-4 -21 -12 -29s-17.667 -12 -29 -12zM110.001 408l-25 48.999
c45.333 34.667 108.666 52 189.999 52c68 0 120.5 -19.167 157.5 -57.5s55.5 -91.166 55.5 -158.499v-293h-56v53c-17.333 -18 -42.666 -32.667 -75.999 -44s-66.333 -17 -99 -17c-40 0 -74.5 6.66699 -103.5 20s-51.5 33.333 -67.5 60s-24 59 -24 97c0 52 18 93.5 54 124.5
s87 46.5 153 46.5c57.333 -0.666992 109.333 -13.667 156 -39c-1.33301 48 -15.333 84.833 -42 110.5s-64.667 38.5 -114 38.5c-68.667 0 -121.667 -14 -159 -42zM425.001 106.999l0.000976562 137.999c-40.667 24 -92.667 36 -156 36c-48 0 -84 -10.167 -108 -30.5
s-36 -48.166 -36 -83.499c0 -36.667 11.5 -64.667 34.5 -84s57.5 -29 103.5 -29c25.333 0 53.666 4.83301 84.999 14.5s57 22.5 77 38.5z" />
    <glyph glyph-name="aring" unicode="&#xe5;" horiz-adv-x="553" 
d="M291 748c28 0 52.001 -9.99902 72.001 -29.999s30 -43.667 30 -71c0 -28.667 -9.83301 -53 -29.5 -73s-43.834 -30 -72.501 -30c-28 0 -51.833 10 -71.5 30s-29.5 44.333 -29.5 73c0 8.66699 1.16699 17.334 3.5 26.001s5.66602 16.667 9.99902 24
s9.5 14.166 15.5 20.499s12.833 11.666 20.5 15.999s15.834 7.83301 24.501 10.5s17.667 4 27 4zM291.001 697.001c-14 0 -26.001 -5 -36.001 -15s-15 -21.667 -15 -35c0 -10 2.33301 -19 7 -27s10.834 -14.333 18.501 -19s16.167 -7 25.5 -7s18 2.33301 26 7
s14.333 11 19 19s7 17 7 27c0 13.333 -5.16699 25 -15.5 35s-22.5 15 -36.5 15zM110 408.001l-25 48.999c45.333 34.667 108.666 52 189.999 52c68 0 120.5 -19.167 157.5 -57.5s55.5 -91.166 55.5 -158.499v-293h-56v53c-17.333 -18 -42.666 -32.667 -75.999 -44
s-66.333 -17 -99 -17c-40 0 -74.5 6.66699 -103.5 20s-51.5 33.333 -67.5 60s-24 59 -24 97c0 52 18 93.5 54 124.5s87 46.5 153 46.5c57.333 -0.666992 109.333 -13.667 156 -39c-1.33301 48.667 -15.333 85.667 -42 111s-64.667 38 -114 38
c-68.667 0 -121.667 -14 -159 -42zM425 107l0.000976562 137.999c-40.667 24 -92.667 36 -156 36c-48 0 -84 -10.167 -108 -30.5s-36 -48.166 -36 -83.499c0 -36.667 11.5 -64.667 34.5 -84s57.5 -29 103.5 -29c25.333 0 53.666 4.83301 84.999 14.5s57 22.5 77 38.5z" />
    <glyph glyph-name="ae" unicode="&#xe6;" horiz-adv-x="988" 
d="M110 408l-25.001 49c46 34.667 109.333 52 190 52c51.333 0 93.5 -11.5 126.5 -34.5s55.5 -56.5 67.5 -100.5c20.667 40.667 50.667 73.167 90 97.5s82.666 36.5 129.999 36.5c78 0 140.333 -27.333 187 -82c35.333 -40.667 50.333 -82 45 -124
c-4.66699 -38.667 -26.667 -61.667 -66 -69c-7.33301 -1.33301 -15.333 -2 -24 -2h-329c0 -51.333 19 -94 57 -128s83.667 -51 137 -51c62 0 109.333 15.333 142 46l45 -44c-44 -41.333 -105.667 -62 -185 -62c-43.333 0 -83.666 10.5 -120.999 31.5s-67 48.833 -89 83.5
v-107h-56v53c-17.333 -18 -42.666 -32.667 -75.999 -44s-66.333 -17 -99 -17c-30 0 -57 3.83301 -81 11.5s-44.5 18.834 -61.5 33.501s-30 33.167 -39 55.5s-13.5 47.833 -13.5 76.5c0 52 18 93.5 54 124.5s87 46.5 153 46.5c57.333 -0.666992 109.333 -13.667 156 -39
c-0.666992 32 -7.16699 59.167 -19.5 81.5s-30 39.166 -53 50.499s-50.833 17 -83.5 17c-68.667 0 -121.667 -14 -159 -42zM502.999 289l304.004 -0.000976562c22.667 0 37 8.66699 43 26s2.66699 36 -10 56c-12 22 -31.167 40.667 -57.5 56s-57.5 23 -93.5 23
c-20 0 -39.333 -2.83301 -58 -8.5s-35.334 -13.5 -50.001 -23.5s-27.834 -21.667 -39.501 -35s-20.834 -28.166 -27.501 -44.499s-10.334 -32.833 -11.001 -49.5zM425.003 106.999l0.000976562 137.999c-40 24.667 -92 37 -156 37c-48 -0.666992 -84 -11.167 -108 -31.5
s-36 -48.166 -36 -83.499c0 -36 11.5 -63.833 34.5 -83.5s57.5 -29.5 103.5 -29.5c25.333 0 53.666 4.83301 84.999 14.5s57 22.5 77 38.5z" />
    <glyph glyph-name="ccedilla" unicode="&#xe7;" horiz-adv-x="559" 
d="M276 -68v66.9971c-58.667 12.667 -107.334 42.334 -146.001 89.001s-58 101 -58 163c0 71.333 25.333 132 76 182s111.667 75 183 75c60.667 0 114.334 -18.667 161.001 -56l-44 -44c-34 26 -73 39 -117 39c-36 0 -69 -8.66699 -99 -26s-53.667 -41.166 -71 -71.499
s-26 -63.166 -26 -98.499c0 -55.333 19 -102 57 -140s84.333 -57 139 -57c44 0 82.667 12.667 116 38l44 -44c-45.333 -36 -97 -54.333 -155 -55h-24v-27h10c23.333 0 41.5 -6.83301 54.5 -20.5s19.5 -30.5 19.5 -50.5s-6.83301 -37 -20.5 -51s-31.834 -21 -54.501 -21h-84
v37h80c12.667 0 22.334 3.66699 29.001 11s10 15.333 10 24c0 6.66699 -1.16699 12.667 -3.5 18s-6.5 9.83301 -12.5 13.5s-13.667 5.5 -23 5.5h-41z" />
    <glyph glyph-name="egrave" unicode="&#xe8;" horiz-adv-x="630" 
d="M256 711h84l68 -125h-59zM480 98l44.001 -44c-44 -41.333 -105.333 -62 -184 -62c-35.333 0 -69 6.16699 -101 18.5s-60.333 29.5 -85 51.5s-44.5 49.333 -59.5 82s-22.5 68 -22.5 106c0 71.333 25.167 132.166 75.5 182.499s111.166 75.5 182.499 75.5
c78 0 140.333 -27.333 187 -82c35.333 -41.333 50.333 -82.666 45 -123.999c-4.66699 -38.667 -26.667 -61.667 -66 -69c-7.33301 -1.33301 -15.333 -2 -24 -2h-329c0 -51.333 19 -94 57 -128s83.667 -51 137 -51c62 0 109.667 15.333 143 46zM144.001 289l304 -0.000976562
c20 0 33.5 6.5 40.5 19.5s6.5 28.167 -1.5 45.5c-8 24.667 -25.833 46.834 -53.5 66.501s-62.167 29.5 -103.5 29.5c-33.333 0 -64 -7.5 -92 -22.5s-50.167 -34.667 -66.5 -59s-25.5 -50.833 -27.5 -79.5z" />
    <glyph glyph-name="eacute" unicode="&#xe9;" horiz-adv-x="630" 
d="M324 711h84l-93 -125h-59zM480 98l44.001 -44c-44 -41.333 -105.333 -62 -184 -62c-35.333 0 -69 6.16699 -101 18.5s-60.333 29.5 -85 51.5s-44.5 49.333 -59.5 82s-22.5 68 -22.5 106c0 71.333 25.167 132.166 75.5 182.499s111.166 75.5 182.499 75.5
c78 0 140.333 -27.333 187 -82c35.333 -41.333 50.333 -82.666 45 -123.999c-4.66699 -38.667 -26.667 -61.667 -66 -69c-7.33301 -1.33301 -15.333 -2 -24 -2h-329c0 -51.333 19 -94 57 -128s83.667 -51 137 -51c62 0 109.667 15.333 143 46zM144.001 289
l303.998 0.000976562c21.333 0 35.333 7.16699 42 21.5s5.33398 30.833 -3.99902 49.5c-6 14.667 -15.5 28.667 -28.5 42s-30.667 24.666 -53 33.999s-47.166 14 -74.499 14c-33.333 0 -64 -7.5 -92 -22.5s-50.167 -34.667 -66.5 -59s-25.5 -50.833 -27.5 -79.5z" />
    <glyph glyph-name="ecircumflex" unicode="&#xea;" horiz-adv-x="630" 
d="M300 711h64l123 -134h-71l-84 95l-84 -95h-71zM480 98l44.001 -44c-44 -41.333 -105.333 -62 -184 -62c-35.333 0 -69 6.16699 -101 18.5s-60.333 29.5 -85 51.5s-44.5 49.333 -59.5 82s-22.5 68 -22.5 106c0 71.333 25.167 132.166 75.5 182.499
s111.166 75.5 182.499 75.5c78 0 140.333 -27.333 187 -82c35.333 -41.333 50.333 -82.666 45 -123.999c-4.66699 -38.667 -26.667 -61.667 -66 -69c-7.33301 -1.33301 -15.333 -2 -24 -2h-329c0 -51.333 19 -94 57 -128s83.667 -51 137 -51c62 0 109.667 15.333 143 46z
M144.001 289h304c22 0 36.167 8 42.5 24s3.83301 34 -7.5 54c-6.66699 14 -16.5 27 -29.5 39s-30.333 22.333 -52 31s-45.5 13 -71.5 13c-33.333 0 -64 -7.5 -92 -22.5s-50.167 -34.667 -66.5 -59s-25.5 -50.833 -27.5 -79.5z" />
    <glyph glyph-name="edieresis" unicode="&#xeb;" horiz-adv-x="630" 
d="M228 634c-12 0 -22 4 -30 12s-12 17.667 -12 29s4 21.166 12 29.499s18 12.5 30 12.5c11.333 0 21 -4.16699 29 -12.5s12 -18.166 12 -29.499s-4 -21 -12 -29s-17.667 -12 -29 -12zM437 634c-11.333 0 -21.166 4 -29.499 12s-12.5 17.667 -12.5 29
s4.16699 21.166 12.5 29.499s18.166 12.5 29.499 12.5s21.166 -4.16699 29.499 -12.5s12.5 -18.166 12.5 -29.499s-4.16699 -21 -12.5 -29s-18.166 -12 -29.499 -12zM480 98l44.001 -44c-44 -41.333 -105.333 -62 -184 -62c-35.333 0 -69 6.16699 -101 18.5
s-60.333 29.5 -85 51.5s-44.5 49.333 -59.5 82s-22.5 68 -22.5 106c0 71.333 25.167 132.166 75.5 182.499s111.166 75.5 182.499 75.5c78 0 140.333 -27.333 187 -82c35.333 -41.333 50.333 -82.666 45 -123.999c-4.66699 -38.667 -26.667 -61.667 -66 -69
c-7.33301 -1.33301 -15.333 -2 -24 -2h-329c0 -51.333 19 -94 57 -128s83.667 -51 137 -51c62 0 109.667 15.333 143 46zM144.001 289l304.001 0.000976562c22 0 36.167 7.66699 42.5 23s4.16602 32.666 -6.50098 51.999c-6.66699 14.667 -16.5 28.167 -29.5 40.5
s-30.5 23 -52.5 32s-46 13.5 -72 13.5c-33.333 0 -64 -7.5 -92 -22.5s-50.167 -34.667 -66.5 -59s-25.5 -50.833 -27.5 -79.5z" />
    <glyph glyph-name="igrave" unicode="&#xec;" horiz-adv-x="331" 
d="M159 500h61v-500h-61v500zM184 575l-93 125h84l68 -125h-59z" />
    <glyph glyph-name="iacute" unicode="&#xed;" horiz-adv-x="289" 
d="M139 700h83l-92 -125h-59zM115 500h61v-500h-61v500z" />
    <glyph glyph-name="icircumflex" unicode="&#xee;" horiz-adv-x="488" 
d="M214 700h64l124 -134h-72l-84 95l-84 -95h-71zM217 500h61v-500h-61v500z" />
    <glyph glyph-name="idieresis" unicode="&#xef;" horiz-adv-x="470" 
d="M133 623c-6 0 -11.499 1.00098 -16.499 3.00098s-9.33301 4.83301 -13 8.5s-6.66699 8.16699 -9 13.5s-3.5 10.666 -3.5 15.999c0 11.333 4.16699 21.166 12.5 29.499s18.166 12.5 29.499 12.5s21 -4.16699 29 -12.5s12 -18.166 12 -29.499s-4 -21 -12 -29
s-17.667 -12 -29 -12zM342.001 623.001c-11.333 0 -21 4 -29 12s-12 17.667 -12 29s4 21.166 12 29.499s17.667 12.5 29 12.5c12 0 22 -4.16699 30 -12.5s12 -18.166 12 -29.499s-4 -21 -12 -29s-18 -12 -30 -12zM208.001 500.001h61v-500h-61v500z" />
    <glyph glyph-name="eth" unicode="&#xf0;" horiz-adv-x="628" 
d="M150 689l0.000976562 61.001c82.667 0 156.667 -22.333 222 -67l76 56l29 -36l-66 -48c50.667 -44.667 88 -102 112 -172s31 -148.667 21 -236c-8.66699 -76.667 -33.334 -138.334 -74.001 -185.001s-94 -70 -160 -70c-48.667 0 -91 12 -127 36s-62.333 55 -79 93
s-25 80.667 -25 128c0 76 21 139.167 63 189.5s96.333 75.5 163 75.5c40 0 74.5 -10.167 103.5 -30.5s51.5 -46.833 67.5 -79.5c-5.33301 44.667 -17.833 85.5 -37.5 122.5s-44.834 67.833 -75.501 92.5l-90 -66l-29 36l72 53c-49.333 31.333 -104.666 47 -165.999 47z
M311.001 453.001c-53.333 0 -94.832 -19.5 -124.499 -58.5s-44.5 -87.5 -44.5 -145.5c0 -56.667 14.667 -103.5 44 -140.5s71 -55.5 125 -55.5c47.333 0 86.166 17.833 116.499 53.5s48.5 83.167 54.5 142.5c0 38 -6.5 72.167 -19.5 102.5s-32.5 54.833 -58.5 73.5
s-57 28 -93 28z" />
    <glyph glyph-name="ntilde" unicode="&#xf1;" horiz-adv-x="608" 
d="M401 669l35.999 36v-62l-23 -23c-24 -24 -55.667 -24.333 -95 -1l-45 26c-29.333 17.333 -52 18 -68 2l-42 -42v61l29 30c22.667 22.667 53.334 22.667 92.001 0l45 -27c30 -17.333 53.667 -17.333 71 0zM147.999 500l-0.000976562 -46.001
c48.667 36.667 103.334 54.334 164.001 53.001c74 -0.666992 128.167 -23 162.5 -67s51.833 -110.333 52.5 -199v-241h-63v241c0 72 -12.833 124.833 -38.5 158.5s-69.167 50.167 -130.5 49.5c-50 0 -98.667 -16 -146 -48v-401h-63v500h62z" />
    <glyph glyph-name="ograve" unicode="&#xf2;" horiz-adv-x="662" 
d="M251 700h83l68 -125h-59zM331 508c34.667 0 68 -6.83203 100 -20.499s59.667 -32 83 -55s41.833 -50.5 55.5 -82.5s20.5 -65.333 20.5 -100c0 -71.333 -25.333 -132.166 -76 -182.499s-111.667 -75.5 -183 -75.5s-132.333 25.167 -183 75.5s-76 111.166 -76 182.499
s25.333 132.166 76 182.499s111.667 75.5 183 75.5zM331 446.001c-54.667 0 -101 -19 -139 -57s-57 -84.333 -57 -139s19 -101 57 -139s84.333 -57 139 -57s101 19 139 57s57 84.333 57 139s-19 101 -57 139s-84.333 57 -139 57z" />
    <glyph glyph-name="oacute" unicode="&#xf3;" horiz-adv-x="662" 
d="M331 508c34.667 0 68 -6.83203 100 -20.499s59.667 -32 83 -55s41.833 -50.5 55.5 -82.5s20.5 -65.333 20.5 -100c0 -71.333 -25.333 -132.166 -76 -182.499s-111.667 -75.5 -183 -75.5s-132.333 25.167 -183 75.5s-76 111.166 -76 182.499s25.333 132.166 76 182.499
s111.667 75.5 183 75.5zM331 446.001c-54.667 0 -101 -19 -139 -57s-57 -84.333 -57 -139s19 -101 57 -139s84.333 -57 139 -57s101 19 139 57s57 84.333 57 139s-19 101 -57 139s-84.333 57 -139 57zM329 700.001h84l-93 -125h-59z" />
    <glyph glyph-name="ocircumflex" unicode="&#xf4;" horiz-adv-x="662" 
d="M298 700h64l123 -134h-71l-84 95l-84 -95h-71zM331 508c34.667 0 68 -6.83203 100 -20.499s59.667 -32 83 -55s41.833 -50.5 55.5 -82.5s20.5 -65.333 20.5 -100c0 -71.333 -25.333 -132.166 -76 -182.499s-111.667 -75.5 -183 -75.5s-132.333 25.167 -183 75.5
s-76 111.166 -76 182.499s25.333 132.166 76 182.499s111.667 75.5 183 75.5zM331 446.001c-54.667 0 -101 -19 -139 -57s-57 -84.333 -57 -139s19 -101 57 -139s84.333 -57 139 -57s101 19 139 57s57 84.333 57 139s-19 101 -57 139s-84.333 57 -139 57z" />
    <glyph glyph-name="otilde" unicode="&#xf5;" horiz-adv-x="662" 
d="M434 663l36 36v-62l-22 -22c-24.667 -24 -56.334 -24.667 -95.001 -2l-45 27c-30 17.333 -53 18 -69 2l-42 -42v61l29 29c22.667 22.667 53.334 22.667 92.001 0l45 -26c30 -18 53.667 -18.333 71 -1zM331 508c46.667 0 89.833 -11.498 129.5 -34.498
s71.167 -54.333 94.5 -94s35 -82.834 35 -129.501c0 -71.333 -25.333 -132.166 -76 -182.499s-111.667 -75.5 -183 -75.5s-132.333 25.167 -183 75.5s-76 111.166 -76 182.499s25.333 132.166 76 182.499s111.667 75.5 183 75.5zM330.999 446.002
c-54.667 0 -101 -19 -139 -57s-57 -84.333 -57 -139s19 -101 57 -139s84.333 -57 139 -57s101 19 139 57s57 84.333 57 139c0 36 -8.66699 69 -26 99s-41 53.667 -71 71s-63 26 -99 26z" />
    <glyph glyph-name="odieresis" unicode="&#xf6;" horiz-adv-x="662" 
d="M228 623c-7.33301 0 -14.167 1.83398 -20.5 5.50098s-11.333 8.66699 -15 15s-5.5 13.166 -5.5 20.499c0 11.333 4 21.166 12 29.499s17.667 12.5 29 12.5s21.166 -4.16699 29.499 -12.5s12.5 -18.166 12.5 -29.499s-4.16699 -21 -12.5 -29s-18.166 -12 -29.499 -12z
M437.999 623.001c-12 0 -22 4 -30 12s-12 17.667 -12 29s4 21.166 12 29.499s18 12.5 30 12.5c11.333 0 21 -4.16699 29 -12.5s12 -18.166 12 -29.499s-4 -21 -12 -29s-17.667 -12 -29 -12zM330.999 508.001c34.667 0 68 -6.83203 100 -20.499s59.667 -32 83 -55
s41.833 -50.5 55.5 -82.5s20.5 -65.333 20.5 -100c0 -71.333 -25.333 -132.166 -76 -182.499s-111.667 -75.5 -183 -75.5s-132.333 25.167 -183 75.5s-76 111.166 -76 182.499s25.333 132.166 76 182.499s111.667 75.5 183 75.5zM330.999 446.002
c-54.667 0 -101 -19 -139 -57s-57 -84.333 -57 -139s19 -101 57 -139s84.333 -57 139 -57s101 19 139 57s57 84.333 57 139s-19 101 -57 139s-84.333 57 -139 57z" />
    <glyph glyph-name="divide" unicode="&#xf7;" horiz-adv-x="514" 
d="M258.5 467c11.667 0 21.5 -4 29.5 -12s12 -18 12 -30c0 -11.333 -4 -21 -12 -29s-17.833 -12 -29.5 -12s-21.5 4 -29.5 12s-12 17.667 -12 29c0 12 4 22 12 30s17.833 12 29.5 12zM50 288h414v-61h-414v61zM257.5 130c11.667 0 21.5 -4 29.5 -12s12 -17.667 12 -29
s-4 -21 -12 -29s-17.833 -12 -29.5 -12s-21.5 4 -29.5 12s-12 17.667 -12 29s4 21 12 29s17.833 12 29.5 12z" />
    <glyph glyph-name="oslash" unicode="&#xf8;" horiz-adv-x="662" 
d="M494 550l-34 -76.001c26 -15.333 48.667 -34.166 68 -56.499s34.5 -48 45.5 -77s16.5 -59.167 16.5 -90.5c0 -71.333 -25.333 -132.166 -76 -182.499s-111.667 -75.5 -183 -75.5c-28 0 -55.333 4.33301 -82 13l-25 -55h-64l36 80c-38 23.333 -68.167 54.333 -90.5 93
s-33.5 81 -33.5 127c0 71.333 25.333 132.166 76 182.499s111.667 75.5 183 75.5c25.333 0 50 -3.66699 74 -11l24 53h65zM221 86.999l159 353c-16 4 -32.333 6 -49 6c-54.667 0 -101 -19 -139 -57s-57 -84.333 -57 -139c0 -33.333 7.66699 -64.333 23 -93
s36.333 -52 63 -70zM434 416.999l-158.999 -355.001c18 -5.33301 36.667 -8 56 -8c54.667 0 101 19 139 57s57 84.333 57 139c0 34.667 -8.33301 66.834 -25 96.501s-39.334 53.167 -68.001 70.5z" />
    <glyph glyph-name="ugrave" unicode="&#xf9;" horiz-adv-x="617" 
d="M216 711h83l68 -125h-59zM466 500h64.002v-500h-62v61c-51.333 -46.667 -111 -69.667 -179 -69c-72 1.33301 -124.667 24 -158 68s-50 110.333 -50 199v241h63v-241c0 -72 12.167 -124.833 36.5 -158.5s66.166 -50.167 125.499 -49.5c57.333 0 110.666 21.333 159.999 64
v385z" />
    <glyph glyph-name="uacute" unicode="&#xfa;" horiz-adv-x="617" 
d="M313 711h83l-92 -125h-59zM466 500h64.002v-500h-62v61c-51.333 -46.667 -111 -69.667 -179 -69c-72 1.33301 -124.667 24 -158 68s-50 110.333 -50 199v241h63v-241c0 -72 12.167 -124.833 36.5 -158.5s66.166 -50.167 125.499 -49.5
c57.333 0 110.666 21.333 159.999 64v385z" />
    <glyph glyph-name="ucircumflex" unicode="&#xfb;" horiz-adv-x="617" 
d="M272 711h64l124 -134h-72l-84 95l-83 -95h-72zM466 500h64.002v-500h-62v61c-51.333 -46.667 -111 -69.667 -179 -69c-72 1.33301 -124.667 24 -158 68s-50 110.333 -50 199v241h63v-241c0 -72 12.167 -124.833 36.5 -158.5s66.166 -50.167 125.499 -49.5
c57.333 0 110.666 21.333 159.999 64v385z" />
    <glyph glyph-name="udieresis" unicode="&#xfc;" horiz-adv-x="617" 
d="M200 659c11.333 0 21.167 -4.16699 29.5 -12.5s12.5 -18.166 12.5 -29.499c0 -7.33301 -1.83301 -14.166 -5.5 -20.499s-8.66699 -11.5 -15 -15.5s-13.333 -6 -21 -6s-14.667 2 -21 6s-11.333 9.16699 -15 15.5s-5.5 13.166 -5.5 20.499c0 11.333 4 21.166 12 29.499
s17.667 12.5 29 12.5zM410.001 659c11.333 0 21 -4.16699 29 -12.5s12 -18.166 12 -29.499s-4 -21.166 -12 -29.499s-17.667 -12.5 -29 -12.5c-12 0 -22 4.16699 -30 12.5s-12 18.166 -12 29.499s4 21.166 12 29.499s18 12.5 30 12.5zM466.001 500h64.002v-500h-62v61
c-51.333 -46.667 -111 -69.667 -179 -69c-72 1.33301 -124.667 24 -158 68s-50 110.333 -50 199v241h63v-241c0 -72 12.167 -124.833 36.5 -158.5s66.166 -50.167 125.499 -49.5c57.333 0 110.666 21.333 159.999 64v385z" />
    <glyph glyph-name="yacute" unicode="&#xfd;" horiz-adv-x="579" 
d="M444 500l63.001 0.000976562v-455c-2 -76 -20.667 -131.167 -56 -165.5s-91.666 -50.833 -168.999 -49.5c-72 0.666992 -134 15.667 -186 45l8 50c51.333 -26.667 110.666 -39.667 177.999 -39c56.667 0 97.167 10.5 121.5 31.5s38.5 58.5 42.5 112.5v23
c-20.667 -15.333 -44.834 -28 -72.501 -38s-55.834 -15 -84.501 -15c-75.333 -0.666992 -131.166 21 -167.499 65s-54.5 111.333 -54.5 202v233h63v-233c0 -48 5.16699 -86.833 15.5 -116.5s28 -52.334 53 -68.001s58.167 -23.5 99.5 -23.5c49.333 0 98 16 146 48v393z
M286.001 700.001h84l-93 -125h-59z" />
    <glyph glyph-name="thorn" unicode="&#xfe;" horiz-adv-x="593" 
d="M86 700h56.999v-242c18.667 15.333 41 27.5 67 36.5s52.667 13.5 80 13.5c152.667 0 229.334 -84.667 230.001 -254c0.666992 -87.333 -19 -152.833 -59 -196.5s-97 -65.5 -171 -65.5c-51.333 0.666992 -98.333 15.667 -141 45v-241h-63v904zM148.999 401
l-0.000976562 -306.999c16 -12.667 36.333 -22.834 61 -30.501s49.334 -11.5 74.001 -11.5c115.333 0 173 67.333 173 202c0 65.333 -13.5 114.333 -40.5 147s-71.167 49 -132.5 49c-25.333 0 -50.333 -4.33301 -75 -13s-44.667 -20.667 -60 -36z" />
    <glyph glyph-name="ydieresis" unicode="&#xff;" horiz-adv-x="579" 
d="M177 623c-7.33301 0 -14.165 1.83301 -20.498 5.5s-11.333 8.66699 -15 15s-5.5 13.166 -5.5 20.499c0 11.333 4 21.166 12 29.499s17.667 12.5 29 12.5s21.166 -4.16699 29.499 -12.5s12.5 -18.166 12.5 -29.499c0 -7.33301 -1.83301 -14.166 -5.5 -20.499
s-8.83398 -11.333 -15.501 -15s-13.667 -5.5 -21 -5.5zM387.001 623c-12 0 -22 4 -30 12s-12 17.667 -12 29s4 21.166 12 29.499s18 12.5 30 12.5c11.333 0 21 -4.16699 29 -12.5s12 -18.166 12 -29.499s-4 -21 -12 -29s-17.667 -12 -29 -12zM444.001 500
l63.001 0.000976562v-455c-2 -76 -20.667 -131.167 -56 -165.5s-91.666 -50.833 -168.999 -49.5c-72 0.666992 -134 15.667 -186 45l8 50c51.333 -26.667 110.666 -39.667 177.999 -39c56.667 0 97.167 10.5 121.5 31.5s38.5 58.5 42.5 112.5v23
c-20.667 -15.333 -44.834 -28 -72.501 -38s-55.834 -15 -84.501 -15c-75.333 -0.666992 -131.166 21 -167.499 65s-54.5 111.333 -54.5 202v233h63v-233c0 -48 5.16699 -86.833 15.5 -116.5s28 -52.334 53 -68.001s58.167 -23.5 99.5 -23.5c49.333 0 98 16 146 48v393z" />
    <glyph glyph-name="Amacron" unicode="&#x100;" 
d="M223 900h305v-52h-305v52zM340 700h72l297 -700h-68l-94 218h-342l-94 -218h-68zM521 282l-145 342l-145 -342h290z" />
    <glyph glyph-name="amacron" unicode="&#x101;" horiz-adv-x="553" 
d="M114 711h306v-52h-306v52zM110 408l-24.999 49c45.333 34.667 108.666 52 189.999 52c45.333 0 84.166 -8.83301 116.499 -26.5s56.5 -42.667 72.5 -75s24 -70.5 24 -114.5v-293h-56v53c-17.333 -18 -42.666 -32.667 -75.999 -44s-66.333 -17 -99 -17
c-40 0 -74.5 6.66699 -103.5 20s-51.5 33.333 -67.5 60s-24 59 -24 97c0 52 18 93.5 54 124.5s87 46.5 153 46.5c57.333 -0.666992 109.333 -13.667 156 -39c-1.33301 48.667 -15.333 85.667 -42 111s-64.667 38 -114 38c-68.667 0 -121.667 -14 -159 -42zM425.001 107
l0.000976562 137.999c-40.667 24 -92.667 36 -156 36c-48 0 -84 -10.167 -108 -30.5s-36 -48.166 -36 -83.499c0 -36.667 11.5 -64.667 34.5 -84s57.5 -29 103.5 -29c25.333 0 53.666 4.83301 84.999 14.5s57 22.5 77 38.5z" />
    <glyph glyph-name="Abreve" unicode="&#x102;" 
d="M257 900h34.999c4 -20 14 -36.333 30 -49s34.333 -19 55 -19s38.834 6.33301 54.501 19s25.5 29 29.5 49h36c-2.66699 -19.333 -9.66699 -37 -21 -53s-25.666 -28.5 -42.999 -37.5s-36 -13.5 -56 -13.5c-30.667 0 -57.334 9.83301 -80.001 29.5s-36 44.5 -40 74.5z
M339.999 700h72l297 -700h-68l-94 218h-342l-94 -218h-68zM520.999 282l-145 342l-145 -342h290z" />
    <glyph glyph-name="abreve" unicode="&#x103;" horiz-adv-x="553" 
d="M133 711h63c4 -16 12.5 -29.167 25.5 -39.5s28.167 -15.5 45.5 -15.5s32.5 5.16699 45.5 15.5s21.5 23.5 25.5 39.5h63c-4.66699 -33.333 -19.667 -61.166 -45 -83.499s-55 -33.5 -89 -33.5s-63.833 11.167 -89.5 33.5s-40.5 50.166 -44.5 83.499zM110 408l-25 49
c45.333 34.667 108.666 52 189.999 52c68 0 120.5 -19.167 157.5 -57.5s55.5 -91.166 55.5 -158.499v-293h-56v53c-17.333 -18 -42.666 -32.667 -75.999 -44s-66.333 -17 -99 -17c-40 0 -74.5 6.66699 -103.5 20s-51.5 33.333 -67.5 60s-24 59 -24 97c0 52 18 93.5 54 124.5
s87 46.5 153 46.5c57.333 -0.666992 109.333 -13.667 156 -39c-0.666992 32 -7.16699 59.167 -19.5 81.5s-30 39.166 -53 50.499s-50.833 17 -83.5 17c-68.667 0 -121.667 -14 -159 -42zM425 107l0.000976562 137.999c-40.667 24 -92.667 36 -156 36
c-48 0 -84 -10.167 -108 -30.5s-36 -48.166 -36 -83.499c0 -36.667 11.5 -64.667 34.5 -84s57.5 -29 103.5 -29c25.333 0 53.666 4.83301 84.999 14.5s57 22.5 77 38.5z" />
    <glyph glyph-name="Aogonek" unicode="&#x104;" 
d="M340 700h72l297 -700h-68l-94 218h-342l-94 -218h-68zM521 282l-145 342l-145 -342h290zM663 0h32.001c-40 -24 -59.333 -51 -58 -81c0.666992 -30.667 15.667 -46 45 -46h21v-37h-27c-22.667 0 -41.334 6.5 -56.001 19.5s-22 30.833 -22 53.5
c0 22 5.66699 39.833 17 53.5s27.333 26.167 48 37.5z" />
    <glyph glyph-name="aogonek" unicode="&#x105;" horiz-adv-x="553" 
d="M110 408l-25 48.999c45.333 34.667 108.666 52 189.999 52c68 0 120.5 -19.167 157.5 -57.5s55.5 -91.166 55.5 -158.499v-293h-56v53c-17.333 -18 -42.666 -32.667 -75.999 -44s-66.333 -17 -99 -17c-40 0 -74.5 6.66699 -103.5 20s-51.5 33.333 -67.5 60s-24 59 -24 97
c0 52 18 93.5 54 124.5s87 46.5 153 46.5c57.333 -0.666992 109.333 -13.667 156 -39c-1.33301 48.667 -15.333 85.667 -42 111s-64.667 38 -114 38c-68.667 0 -121.667 -14 -159 -42zM425 106.999l0.000976562 137.999c-40.667 24 -92.667 36 -156 36
c-48 0 -84 -10.167 -108 -30.5s-36 -48.166 -36 -83.499c0 -36.667 11.5 -64.667 34.5 -84s57.5 -29 103.5 -29c25.333 0 53.666 4.83301 84.999 14.5s57 22.5 77 38.5zM446.001 -0.00195312l32.001 0.000976562c-40 -23.333 -59.333 -50 -58 -80
c1.33301 -30.667 16.666 -46 45.999 -46h21v-37h-27c-23.333 0 -42.333 6.5 -57 19.5s-22 30.833 -22 53.5c0 22 5.83301 39.667 17.5 53s27.5 25.666 47.5 36.999z" />
    <glyph glyph-name="Cacute" unicode="&#x106;" horiz-adv-x="730" 
d="M631 113l45.9971 -43.001c-66.667 -52.667 -141.667 -79 -225 -79c-64.667 0 -124.667 16 -180 48s-99.166 75.5 -131.499 130.5s-48.5 115.167 -48.5 180.5s16.167 125.5 48.5 180.5s76.166 98.5 131.499 130.5s115.333 48 180 48c84.667 0 159.667 -26.333 225 -79
l-45 -44c-52.667 40 -112.667 60 -180 60c-53.333 0 -102.666 -13.167 -147.999 -39.5s-81.166 -62.166 -107.499 -107.499s-39.5 -95 -39.5 -149c0 -82 28.667 -152 86 -210s127 -87 209 -87c66.667 0 126.334 20 179.001 60zM466.997 904.999h84l-93 -125h-59z" />
    <glyph glyph-name="cacute" unicode="&#x107;" horiz-adv-x="559" 
d="M324 711h83l-92 -125h-59zM447 92l44 -44c-46.667 -36.667 -100 -55 -160 -55c-71.333 0 -132.333 25 -183 75s-76 111 -76 183c0 71.333 25.333 132 76 182s111.667 75 183 75c60.667 0 114.334 -18.667 161.001 -56l-44 -44c-34 26 -73 39 -117 39
c-54.667 0 -101 -19 -139 -57s-57 -84.333 -57 -139c0 -22 3.16699 -43 9.5 -63s15.666 -38 27.999 -54s26.5 -30 42.5 -42s34 -21.333 54 -28s40.667 -10 62 -10c44 0 82.667 12.667 116 38z" />
    <glyph glyph-name="Cdotaccent" unicode="&#x10a;" horiz-adv-x="730" 
d="M452.5 828c-11.667 0 -21.5 4.16699 -29.5 12.5s-12 18.166 -12 29.499s4 21 12 29s17.833 12 29.5 12s21.5 -4 29.5 -12s12 -17.667 12 -29s-4 -21.166 -12 -29.499s-17.833 -12.5 -29.5 -12.5zM631 113l45.9971 -43.001c-66.667 -52.667 -141.667 -79 -225 -79
c-64.667 0 -124.667 16 -180 48s-99.166 75.5 -131.499 130.5s-48.5 115.167 -48.5 180.5s16.167 125.5 48.5 180.5s76.166 98.5 131.499 130.5s115.333 48 180 48c84.667 0 159.667 -26.333 225 -79l-45 -44c-52.667 40 -112.667 60 -180 60
c-53.333 0 -102.666 -13.167 -147.999 -39.5s-81.166 -62.166 -107.499 -107.499s-39.5 -95 -39.5 -149c0 -82 28.667 -152 86 -210s127 -87 209 -87c66.667 0 126.334 20 179.001 60z" />
    <glyph glyph-name="cdotaccent" unicode="&#x10b;" horiz-adv-x="559" 
d="M327 634c-11.333 0 -21 4 -29 12s-12 17.833 -12 29.5s4 21.5 12 29.5s17.667 12 29 12s21.166 -4 29.499 -12s12.5 -17.833 12.5 -29.5s-4.16699 -21.5 -12.5 -29.5s-18.166 -12 -29.499 -12zM447 92l43.999 -44c-46.667 -36.667 -100 -55 -160 -55
c-71.333 0 -132.333 25 -183 75s-76 111 -76 183c0 71.333 25.333 132 76 182s111.667 75 183 75c60.667 0 114.334 -18.667 161.001 -56l-44 -44c-34 26 -73 39 -117 39c-54.667 0 -101 -19 -139 -57s-57 -84.5 -57 -139.5s19 -101.5 57 -139.5s84.333 -57 139 -57
c44 0 82.667 12.667 116 38z" />
    <glyph glyph-name="Ccaron" unicode="&#x10c;" horiz-adv-x="730" 
d="M536 905h72l-124 -134h-63l-124 134h72l83 -94zM631 113l46.002 -43c-66.667 -52.667 -141.334 -79 -224.001 -79c-65.333 0 -125.666 16 -180.999 48s-99.166 75.5 -131.499 130.5s-48.5 115.167 -48.5 180.5s16.167 125.5 48.5 180.5s76.166 98.5 131.499 130.5
s115.666 48 180.999 48c84 0 158.667 -26.333 224 -79l-45 -44c-52.667 40 -112.334 60 -179.001 60c-82.667 0 -152.667 -28.833 -210 -86.5s-86 -127.5 -86 -209.5s28.667 -152 86 -210s127.333 -87 210 -87c66 0 125.333 20 178 60z" />
    <glyph glyph-name="ccaron" unicode="&#x10d;" horiz-adv-x="570" 
d="M411 711h71l-123 -134h-64l-123 134h71l84 -94zM447 92l44 -44.002c-46.667 -36.667 -100 -55 -160 -55c-71.333 0 -132.333 25 -183 75s-76 111 -76 183c0 71.333 25.333 132 76 182s111.667 75 183 75c60.667 0 114.334 -18.667 161.001 -56l-44 -44
c-34 26 -73 39 -117 39c-36 0 -69 -8.66699 -99 -26s-53.667 -41.166 -71 -71.499s-26 -63.166 -26 -98.499c0 -22 3.16699 -43 9.5 -63s15.666 -38 27.999 -54s26.5 -30 42.5 -42s34 -21.333 54 -28s40.667 -10 62 -10c44 0 82.667 12.667 116 38z" />
    <glyph glyph-name="Dcaron" unicode="&#x10e;" horiz-adv-x="805" 
d="M368 905h71l-123 -134h-64l-123 134h71l84 -94zM106 700h246c65.333 0 125.666 -15.667 180.999 -47s99 -73.833 131 -127.5s48 -112.167 48 -175.5s-16 -121.833 -48 -175.5s-75.667 -96.167 -131 -127.5s-115.666 -47 -180.999 -47h-246v700zM170 62
l181.999 0.000976562c82 0 151.833 28.167 209.5 84.5s86.5 124.166 86.5 203.499c0 52 -13.167 100 -39.5 144s-62.166 79 -107.499 105s-95 39 -149 39h-182v-576z" />
    <glyph glyph-name="dcaron" unicode="&#x10f;" horiz-adv-x="701" 
d="M618 709c11.333 0 21.168 -3.99902 29.501 -11.999s12.5 -17.667 12.5 -29c0 -6 -1 -12.833 -3 -20.5s-5.5 -16.334 -10.5 -26.001s-13.5 -17.667 -25.5 -24s-26.333 -9.5 -43 -9.5c15.333 11.333 26.666 24.333 33.999 39c-6.66699 0.666992 -12.667 3 -18 7
s-9.66602 8.83301 -12.999 14.5s-5 12.167 -5 19.5c0 11.333 4.16699 21 12.5 29s18.166 12 29.499 12zM444.002 700.001h62v-700h-57v42c-18 -15.333 -40 -27.5 -66 -36.5s-52.667 -13.5 -80 -13.5c-152.667 0 -229.667 84.667 -231 254c0 87.333 20 152.833 60 196.5
s97 65.167 171 64.5c52.667 0 99.667 -14 141 -42v235zM444.002 99.001v309.998c-34 26 -79 39 -135 39c-115.333 0 -173 -67.333 -173 -202c0 -43.333 5.5 -79.166 16.5 -107.499s29.5 -50.166 55.5 -65.499s59.667 -23 101 -23c25.333 0 50.333 4.33301 75 13
s44.667 20.667 60 36z" />
    <glyph glyph-name="Dcroat" unicode="&#x110;" horiz-adv-x="842" 
d="M143 700h246c64.667 0 124.667 -15.667 180 -47s99.166 -73.833 131.499 -127.5s48.5 -112.167 48.5 -175.5s-16.167 -121.833 -48.5 -175.5s-76.166 -96.167 -131.499 -127.5s-115.333 -47 -180 -47h-246v324h-121v52h121v324zM207 62l182 0.000976562
c82 0 151.667 28.167 209 84.5s86 124.166 86 203.499c0 52 -13 100 -39 144s-61.833 79 -107.5 105s-95.167 39 -148.5 39h-182v-262h120v-52h-120v-262z" />
    <glyph glyph-name="dcroat" unicode="&#x111;" horiz-adv-x="670" 
d="M628 640v-53h-122v-587h-57v42c-18 -15.333 -40 -27.5 -66 -36.5s-52.667 -13.5 -80 -13.5c-152.667 0 -229.667 84.667 -231 254c0 87.333 20 152.833 60 196.5s97 65.167 171 64.5c52.667 0 99.667 -14 141 -42v123h-122v52h122v60h62v-60h122zM444 99v309.998
c-34 26 -79 39 -135 39c-115.333 0 -173 -67.333 -173 -202c0 -43.333 5.5 -79.166 16.5 -107.499s29.5 -50.166 55.5 -65.499s59.667 -23 101 -23c25.333 0 50.333 4.33301 75 13s44.667 20.667 60 36z" />
    <glyph glyph-name="Emacron" unicode="&#x112;" horiz-adv-x="578" 
d="M106 700h416v-60h-352v-246h348v-60h-348v-274h355v-60h-419v700zM156 900h306v-52h-306v52z" />
    <glyph glyph-name="emacron" unicode="&#x113;" horiz-adv-x="630" 
d="M173 710h306v-52h-306v52zM480 98l44.001 -44c-44 -41.333 -105.333 -62 -184 -62c-35.333 0 -69 6.16699 -101 18.5s-60.333 29.5 -85 51.5s-44.5 49.333 -59.5 82s-22.5 68 -22.5 106c0 71.333 25.167 132.166 75.5 182.499s111.166 75.5 182.499 75.5
c78 0 140.333 -27.333 187 -82c35.333 -41.333 50.333 -82.666 45 -123.999c-4.66699 -38.667 -26.667 -61.667 -66 -69c-7.33301 -1.33301 -15.333 -2 -24 -2h-329c0 -51.333 19 -94 57 -128s83.667 -51 137 -51c62 0 109.667 15.333 143 46zM144.001 289h303.999
c20.667 0 34.5 7.16699 41.5 21.5s5.83301 30.5 -3.5 48.5c-9.33301 24 -27.666 45.167 -54.999 63.5s-61 27.5 -101 27.5c-33.333 0 -64 -7.5 -92 -22.5s-50.167 -34.667 -66.5 -59s-25.5 -50.833 -27.5 -79.5z" />
    <glyph glyph-name="Edotaccent" unicode="&#x116;" horiz-adv-x="578" 
d="M308.5 823c-11.667 0 -21.499 4 -29.499 12s-12 17.667 -12 29s4.16699 21.166 12.5 29.499s18.166 12.5 29.499 12.5s21 -4.16699 29 -12.5s12 -18.166 12 -29.499s-4 -21 -12 -29s-17.833 -12 -29.5 -12zM106.001 700h416v-60h-352v-246h348v-60h-348v-274h355v-60
h-419v700z" />
    <glyph glyph-name="edotaccent" unicode="&#x117;" horiz-adv-x="630" 
d="M334.5 634c-11.667 0 -21.5 4 -29.5 12s-12 17.667 -12 29s4 21.166 12 29.499s17.833 12.5 29.5 12.5s21.5 -4.16699 29.5 -12.5s12 -18.166 12 -29.499s-4 -21 -12 -29s-17.833 -12 -29.5 -12zM480 98l44.001 -44c-44 -41.333 -105.333 -62 -184 -62
c-35.333 0 -69 6.16699 -101 18.5s-60.333 29.5 -85 51.5s-44.5 49.333 -59.5 82s-22.5 68 -22.5 106c0 71.333 25.167 132.166 75.5 182.499s111.166 75.5 182.499 75.5c78 0 140.333 -27.333 187 -82c35.333 -41.333 50.333 -82.666 45 -123.999
c-4.66699 -38.667 -26.667 -61.667 -66 -69c-7.33301 -1.33301 -15.333 -2 -24 -2h-329c0 -51.333 19 -94 57 -128s83.667 -51 137 -51c62 0 109.667 15.333 143 46zM144.001 289l304 0.000976562c23.333 0 38 8.66699 44 26s2.33301 36.333 -11 57
c-12 21.333 -31 39.666 -57 54.999s-57.333 23 -94 23c-33.333 0 -64 -7.5 -92 -22.5s-50.167 -34.667 -66.5 -59s-25.5 -50.833 -27.5 -79.5z" />
    <glyph glyph-name="Eogonek" unicode="&#x118;" horiz-adv-x="578" 
d="M534 -126v-36.999h-27c-23.333 0 -42.333 6.5 -57 19.5s-22 30.833 -22 53.5c0 22 5.83301 39.667 17.5 53s27.5 25.666 47.5 36.999h-387v700h416v-60h-352v-246h348v-60h-348v-274h355v-60c-39.333 -23.333 -58.333 -50 -57 -80c0.666992 -30.667 15.667 -46 45 -46h21
z" />
    <glyph glyph-name="eogonek" unicode="&#x119;" horiz-adv-x="630" 
d="M428 -163l-27 -0.000976562c-22.667 0 -41.334 6.5 -56.001 19.5s-22 30.833 -22 53.5c0 34.667 17.667 62.667 53 84c-11.333 -1.33301 -23.333 -2 -36 -2c-47.333 0 -91.166 10.5 -131.499 31.5s-73.166 51.333 -98.499 91s-38 84.834 -38 135.501
c0 71.333 25.167 132.166 75.5 182.499s111.166 75.5 182.499 75.5c78 0 140.333 -27.333 187 -82c35.333 -41.333 50.333 -82.666 45 -123.999c-4.66699 -38.667 -26.667 -61.667 -66 -69c-7.33301 -1.33301 -15.333 -2 -24 -2h-329c0 -51.333 19 -94 57 -128
s83.667 -51 137 -51c62 0 109.667 15.333 143 46l44 -44c-28 -26.667 -63 -44.667 -105 -54h1c-40 -23.333 -59.333 -50 -58 -80c0.666992 -30.667 15.667 -46 45 -46h21v-37zM144 288.999l304.003 0.000976562c22 0 36.167 7.66699 42.5 23s4.16602 32.666 -6.50098 51.999
c-10.667 23.333 -29.334 43.5 -56.001 60.5s-59.334 25.5 -98.001 25.5c-33.333 0 -64 -7.5 -92 -22.5s-50.167 -34.667 -66.5 -59s-25.5 -50.833 -27.5 -79.5z" />
    <glyph glyph-name="Ecaron" unicode="&#x11a;" horiz-adv-x="578" 
d="M393 900h71l-123 -134h-64l-124 134h72l84 -95zM106 700h416v-60h-352v-246h348v-60h-348v-274h355v-60h-419v700z" />
    <glyph glyph-name="ecaron" unicode="&#x11b;" horiz-adv-x="630" 
d="M414 711h71l-123 -134h-64l-123 134h71l84 -95zM480 98l44.001 -44c-44 -41.333 -105.333 -62 -184 -62c-35.333 0 -69 6.16699 -101 18.5s-60.333 29.5 -85 51.5s-44.5 49.333 -59.5 82s-22.5 68 -22.5 106c0 71.333 25.167 132.166 75.5 182.499
s111.166 75.5 182.499 75.5c78 0 140.333 -27.333 187 -82c35.333 -41.333 50.333 -82.666 45 -123.999c-4.66699 -38.667 -26.667 -61.667 -66 -69c-7.33301 -1.33301 -15.333 -2 -24 -2h-329c0 -51.333 19 -94 57 -128s83.667 -51 137 -51c62 0 109.667 15.333 143 46z
M144.001 289h304c24.667 0 39.5 9.83301 44.5 29.5s-0.5 40.167 -16.5 61.5c-13.333 20 -32.5 36.667 -57.5 50s-54.5 20 -88.5 20c-33.333 0 -64 -7.5 -92 -22.5s-50.167 -34.667 -66.5 -59s-25.5 -50.833 -27.5 -79.5z" />
    <glyph glyph-name="Gbreve" unicode="&#x11e;" horiz-adv-x="763" 
d="M298 910h62.998c4 -16 12.5 -29.167 25.5 -39.5s28 -15.5 45 -15.5s32.167 5.16699 45.5 15.5s22 23.833 26 40.5h62c-4 -34 -18.667 -62 -44 -84s-55.166 -33 -89.499 -33s-64.166 11 -89.499 33s-40 49.667 -44 83zM662.998 334l-0.00195312 -265
c-65.333 -52 -139.666 -78 -222.999 -78c-64.667 0 -124.667 16 -180 48s-99.166 75.5 -131.499 130.5s-48.5 115.167 -48.5 180.5s16.167 125.5 48.5 180.5s76.166 98.5 131.499 130.5s115.333 48 180 48c84.667 0 159.334 -26.333 224.001 -79l-44 -44
c-52.667 40 -112.667 60 -180 60c-82 0 -151.667 -28.833 -209 -86.5s-86 -127.5 -86 -209.5s28.667 -151.833 86 -209.5s127 -86.5 209 -86.5c58 0 111 16 159 48v232h64z" />
    <glyph glyph-name="gbreve" unicode="&#x11f;" horiz-adv-x="593" 
d="M162 700h62.001c2 -6.66699 4.5 -12.834 7.5 -18.501s6.83301 -10.667 11.5 -15s9.66699 -8.16602 15 -11.499s11.166 -6 17.499 -8s12.833 -3 19.5 -3c17.333 0 32.5 5.33301 45.5 16s21.5 24 25.5 40h63c-4 -33.333 -18.667 -61.166 -44 -83.499
s-55.333 -33.5 -90 -33.5c-34 0 -63.667 11.167 -89 33.5s-40 50.166 -44 83.499zM109.001 -125l8.00195 50c53.333 -26.667 112.666 -39.667 177.999 -39c55.333 0.666992 93.833 12.334 115.5 35.001s33.5 65 35.5 127c-34 -33.333 -81.333 -50.333 -142 -51
c-74.667 0 -132 21 -172 63s-59.667 106.333 -59 193c0.666992 88 20.667 152.5 60 193.5s96.333 61.5 171 61.5c26.667 0 53.167 -4.5 79.5 -13.5s48.833 -21.167 67.5 -36.5v42h57v-443c0 -81.333 -16.333 -139.833 -49 -175.5s-87.334 -52.834 -164.001 -51.501
c-72 0.666992 -134 15.667 -186 45zM445.003 107l-0.00292969 294c-15.333 15.333 -35.5 27.166 -60.5 35.499s-49.833 12.5 -74.5 12.5c-31.333 0 -58.166 -4.16699 -80.499 -12.5s-40.166 -21 -53.499 -38s-23.166 -37.333 -29.499 -61s-9.5 -51.834 -9.5 -84.501
c0 -41.333 5.5 -76.166 16.5 -104.499s29.5 -50.666 55.5 -66.999s59.667 -24.5 101 -24.5c52 0 97 16.667 135 50z" />
    <glyph glyph-name="Gdotaccent" unicode="&#x120;" horiz-adv-x="763" 
d="M431.5 828c-11.667 0 -21.5 4.16699 -29.5 12.5s-12 18.166 -12 29.499s4 21 12 29s17.833 12 29.5 12s21.5 -4 29.5 -12s12 -17.667 12 -29s-4 -21.166 -12 -29.499s-17.833 -12.5 -29.5 -12.5zM663 334l-0.00195312 -265c-65.333 -52 -139.666 -78 -222.999 -78
c-64.667 0 -124.667 16 -180 48s-99.166 75.5 -131.499 130.5s-48.5 115.167 -48.5 180.5s16.167 125.5 48.5 180.5s76.166 98.5 131.499 130.5s115.333 48 180 48c84.667 0 159.334 -26.333 224.001 -79l-44 -44c-52.667 40 -112.667 60 -180 60
c-82 0 -151.667 -28.833 -209 -86.5s-86 -127.5 -86 -209.5s28.667 -151.833 86 -209.5s127 -86.5 209 -86.5c58 0 111 16 159 48v232h64z" />
    <glyph glyph-name="gdotaccent" unicode="&#x121;" horiz-adv-x="593" 
d="M301 706c11.333 0 21.166 -4.16699 29.499 -12.5s12.5 -18.166 12.5 -29.499s-4.16699 -21 -12.5 -29s-18.166 -12 -29.499 -12s-21.166 4 -29.499 12s-12.5 17.667 -12.5 29s4.16699 21.166 12.5 29.499s18.166 12.5 29.499 12.5zM109 -125l8 49.999
c53.333 -26.667 112.666 -39.667 177.999 -39c55.333 0.666992 93.833 12.334 115.5 35.001s33.5 65 35.5 127c-34.667 -33.333 -82 -50.333 -142 -51c-74 0 -131.167 21 -171.5 63s-60.166 106.667 -59.499 194c1.33301 169.333 78.333 254 231 254
c18 0 36 -2.16699 54 -6.5s34.833 -10.166 50.5 -17.499s29.5 -16 41.5 -26v42h58v-443c-0.666992 -81.333 -17.167 -139.833 -49.5 -175.5s-86.833 -52.834 -163.5 -51.501c-72 0.666992 -134 15.667 -186 45zM445 106.999l-0.000976562 294.001
c-15.333 15.333 -35.5 27.333 -60.5 36s-49.833 13 -74.5 13c-31.333 0 -58.166 -4.33301 -80.499 -13s-40.333 -21.334 -54 -38.001s-23.5 -37 -29.5 -61s-9 -52 -9 -84c0 -64 13.667 -112.833 41 -146.5s71.333 -50.5 132 -50.5c52 0 97 16.667 135 50z" />
    <glyph glyph-name="Gcommaaccent" unicode="&#x122;" horiz-adv-x="763" 
d="M663 334l-0.00195312 -265c-65.333 -52 -139.666 -78 -222.999 -78c-64.667 0 -124.667 16 -180 48s-99.166 75.5 -131.499 130.5s-48.5 115.167 -48.5 180.5s16.167 125.5 48.5 180.5s76.166 98.5 131.499 130.5s115.333 48 180 48
c84.667 0 159.334 -26.333 224.001 -79l-44 -44c-52.667 40 -112.667 60 -180 60c-82 0 -151.667 -28.833 -209 -86.5s-86 -127.5 -86 -209.5s28.667 -151.833 86 -209.5s127 -86.5 209 -86.5c58 0 111 16 159 48v232h64zM440.998 -90c11.333 0 21 -4.16895 29 -12.502
s12 -18.166 12 -29.499c0 -19.333 -6.33301 -37.333 -19 -54s-33.334 -25 -62.001 -25c14.667 11.333 25.667 24 33 38c-4.66699 1.33301 -9.16699 3.16602 -13.5 5.49902s-8.16602 5.33301 -11.499 9s-5.83301 7.83398 -7.5 12.501s-2.5 9.33398 -2.5 14.001
c0 12 4 22 12 30s18 12 30 12z" />
    <glyph glyph-name="gcommaaccent" unicode="&#x123;" horiz-adv-x="593" 
d="M343 724c-15.333 -11.333 -26.6709 -24 -34.0039 -38c10.667 -2 19.334 -6.66699 26.001 -14s10 -16.333 10 -27c0 -5.33301 -1.16699 -10.666 -3.5 -15.999s-5.33301 -9.83301 -9 -13.5s-8 -6.66699 -13 -9s-10.5 -3.5 -16.5 -3.5
c-11.333 0 -21.166 4.16699 -29.499 12.5s-12.5 18.166 -12.5 29.499c0.666992 19.333 7.33398 37.333 20.001 54s33.334 25 62.001 25zM107.995 -125l8.00098 50c53.333 -26.667 112.666 -39.667 177.999 -39c55.333 0.666992 93.833 12.334 115.5 35.001s33.5 65 35.5 127
c-34.667 -33.333 -82 -50.333 -142 -51c-74 0 -131 21 -171 63s-60 106.667 -60 194c1.33301 169.333 78.333 254 231 254c27.333 0 54 -4.5 80 -13.5s48 -21.167 66 -36.5v42h58v-443c-0.666992 -81.333 -17.167 -139.833 -49.5 -175.5s-86.833 -52.834 -163.5 -51.501
c-72 0.666992 -134 15.667 -186 45zM443.996 107v294c-15.333 15.333 -35.5 27.333 -60.5 36s-49.833 13 -74.5 13c-61.333 0 -105.5 -16.333 -132.5 -49s-40.5 -81.667 -40.5 -147c0 -64 13.667 -112.833 41 -146.5s71.333 -50.5 132 -50.5c52 0 97 16.667 135 50z" />
    <glyph glyph-name="Hbar" unicode="&#x126;" horiz-adv-x="779" 
d="M582 700h64v-137h91v-63h-91v-500h-64v335h-386v-335h-64v500h-90v63h90v137h64v-137h386v137zM582 397v103h-386v-103h386z" />
    <glyph glyph-name="hbar" unicode="&#x127;" horiz-adv-x="713" 
d="M191 700h60.999v-61h101v-60h-101v-125c48.667 36 102.334 53.667 161.001 53c74.667 0 129.667 -22 165 -66s53.333 -110.667 54 -200v-241h-63v241c0 72 -12.833 124.667 -38.5 158s-69.167 50 -130.5 50c-50 0 -98.667 -16 -146 -48v-401h-63v579h-100v60h100v61z" />
    <glyph glyph-name="Imacron" unicode="&#x12a;" horiz-adv-x="276" 
d="M-15 900h306v-52h-306v52zM106 0v700h64v-700h-64z" />
    <glyph glyph-name="imacron" unicode="&#x12b;" horiz-adv-x="483" 
d="M91 700h306v-52h-306v52zM214 500h61v-500h-61v500z" />
    <glyph glyph-name="Iogonek" unicode="&#x12e;" horiz-adv-x="222" 
d="M166 0h-15.999c-38.667 -23.333 -57.334 -50 -56.001 -80c0.666992 -30.667 15.667 -46 45 -46h21v-37h-27c-14.667 0 -28 2.83301 -40 8.5s-21.333 14 -28 25s-10 24.167 -10 39.5c0 21.333 5.5 39 16.5 53s26.5 26.333 46.5 37h-16v700h64v-700z" />
    <glyph glyph-name="iogonek" unicode="&#x12f;" horiz-adv-x="358" 
d="M178 623c-11.333 0 -21.166 3.99902 -29.499 11.999s-12.5 17.667 -12.5 29s4.16699 21.166 12.5 29.499s18.166 12.5 29.499 12.5s21.166 -4.16699 29.499 -12.5s12.5 -18.166 12.5 -29.499c0 -7.33301 -2 -14.166 -6 -20.499s-9.16699 -11.333 -15.5 -15
s-13.166 -5.5 -20.499 -5.5zM148 -0.000976562l0.000976562 500h61v-500h-13c-40 -23.333 -59.333 -50 -58 -80c0.666992 -30.667 15.667 -46 45 -46h21v-37h-27c-15.333 0 -28.833 2.83301 -40.5 8.5s-20.834 14 -27.501 25s-10 24.167 -10 39.5s3.16699 29 9.5 41
s13.833 21.333 22.5 28s19.667 13.667 33 21h-16z" />
    <glyph glyph-name="Idotaccent" unicode="&#x130;" horiz-adv-x="276" 
d="M139 823c-11.333 0 -21.167 3.99902 -29.5 11.999s-12.5 17.667 -12.5 29s4.16699 21.166 12.5 29.499s18.166 12.5 29.499 12.5s21 -4.16699 29 -12.5s12 -18.166 12 -29.499c0 -7.33301 -1.83301 -14.166 -5.5 -20.499s-8.66699 -11.333 -15 -15
s-13.166 -5.5 -20.499 -5.5zM106.999 -0.000976562v700h64v-700h-64z" />
    <glyph glyph-name="dotlessi" unicode="&#x131;" horiz-adv-x="238" 
d="M91 500h61v-500h-61v500z" />
    <glyph glyph-name="IJ" unicode="&#x132;" horiz-adv-x="714" 
d="M543 700l65 0.000976562v-411c0 -94.667 -27.833 -168 -83.5 -220s-127.5 -78 -215.5 -78h-24v64h25c69.333 -0.666992 125.5 19.166 168.5 59.499s64.5 98.5 64.5 174.5v411zM106 0.000976562v700h64v-700h-64z" />
    <glyph glyph-name="ij" unicode="&#x133;" horiz-adv-x="466" 
d="M130.5 656c11 0 20.333 -3.83301 28 -11.5s11.5 -17 11.5 -28s-3.83301 -20.333 -11.5 -28s-17 -11.5 -28 -11.5s-20.333 3.83301 -28 11.5s-11.5 17 -11.5 28s3.83301 20.333 11.5 28s17 11.5 28 11.5zM341 656c10.667 0 19.834 -3.83301 27.501 -11.5
s11.5 -17 11.5 -28s-3.83301 -20.333 -11.5 -28s-16.834 -11.5 -27.501 -11.5c-11.333 0 -20.833 3.83301 -28.5 11.5s-11.5 17 -11.5 28s3.83301 20.333 11.5 28s17.167 11.5 28.5 11.5zM100 500h61v-500h-61v500zM310 500h61v-526c0 -45.333 -12 -81.5 -36 -108.5
s-59 -40.167 -105 -39.5h-24v56h24c26 0 45.833 8.33301 59.5 25s20.5 39 20.5 67v526z" />
    <glyph glyph-name="Kcommaaccent" unicode="&#x136;" horiz-adv-x="639" 
d="M478 700h76l-235 -269l276 -431h-76l-243 381l-106 -120v-261h-64v700h64v-353zM321 -84c12 0 22.001 -4.16797 30.001 -12.501s12 -18.166 12 -29.499c0 -19.333 -6.33301 -37.333 -19 -54s-33.667 -25 -63 -25c15.333 11.333 26.666 24 33.999 38
c-4.66699 0.666992 -9.16699 2.16699 -13.5 4.5s-8.16602 5.33301 -11.499 9s-5.83301 7.83398 -7.5 12.501s-2.5 9.66699 -2.5 15s1 10.666 3 15.999s4.83301 9.83301 8.5 13.5s8.16699 6.66699 13.5 9s10.666 3.5 15.999 3.5z" />
    <glyph glyph-name="kcommaaccent" unicode="&#x137;" horiz-adv-x="558" 
d="M91 0v700h63v-427l228 227h84l-186 -189l232 -311h-74l-202 265l-82 -82v-183h-63zM276 -81c11.333 0 21.1699 -4.16797 29.5029 -12.501s12.5 -18.166 12.5 -29.499c-0.666992 -19.333 -7.33398 -37.333 -20.001 -54s-33.334 -25 -62.001 -25
c15.333 11.333 26.333 24 33 38c-6.66699 1.33301 -12.667 3.83301 -18 7.5s-9.5 8.5 -12.5 14.5s-4.5 12.333 -4.5 19c0 12 4.16699 22 12.5 30s18.166 12 29.499 12z" />
    <glyph glyph-name="Lacute" unicode="&#x139;" horiz-adv-x="553" 
d="M279 900h83l-92 -125h-59zM106 700h65v-639h338v-61h-403v700z" />
    <glyph glyph-name="lacute" unicode="&#x13a;" horiz-adv-x="325" 
d="M116 0v700h61v-700h-61zM160 900h84l-93 -125h-59z" />
    <glyph glyph-name="Lcommaaccent" unicode="&#x13b;" horiz-adv-x="553" 
d="M106 700h65v-639h338v-61h-403v700zM306 -84c7.33301 0 14.168 -2.00098 20.501 -6.00098s11.333 -9.16699 15 -15.5s5.5 -13.166 5.5 -20.499c0 -19.333 -6.33301 -37.333 -19 -54s-33.334 -25 -62.001 -25c14.667 11.333 25.667 24 33 38
c-10 1.33301 -18.333 5.83301 -25 13.5s-10 16.834 -10 27.501c0 11.333 4 21.166 12 29.499s18 12.5 30 12.5z" />
    <glyph glyph-name="lcommaaccent" unicode="&#x13c;" horiz-adv-x="256" 
d="M103 700h61v-700h-61v700zM134 -81c11.333 0 21.1699 -4.16797 29.5029 -12.501s12.5 -18.166 12.5 -29.499c-0.666992 -19.333 -7.33398 -37.333 -20.001 -54s-33.334 -25 -62.001 -25c15.333 11.333 26.333 24 33 38c-10 2 -18.333 6.83301 -25 14.5s-10 16.5 -10 26.5
c0 12 4.16699 22 12.5 30s18.166 12 29.499 12z" />
    <glyph glyph-name="Lcaron" unicode="&#x13d;" horiz-adv-x="553" 
d="M468 709c11.333 0 21.167 -4.00098 29.5 -12.001s12.5 -17.667 12.5 -29c0 -4.66699 -0.5 -9.83398 -1.5 -15.501s-3.16699 -12.5 -6.5 -20.5s-7.83301 -15.167 -13.5 -21.5s-13.667 -11.666 -24 -15.999s-22.5 -6.5 -36.5 -6.5c16 11.333 27.333 24.333 34 39
c-10 1.33301 -18.333 5.83301 -25 13.5s-10 16.834 -10 27.501c0 11.333 4 21 12 29s17.667 12 29 12zM106.001 699.999h65v-639h338v-61h-403v700z" />
    <glyph glyph-name="lcaron" unicode="&#x13e;" horiz-adv-x="382" 
d="M302 709c11.333 0 21 -4 29 -12s12 -17.667 12 -29c0 -4.66699 -0.5 -9.83398 -1.5 -15.501s-3.16699 -12.5 -6.5 -20.5s-7.83301 -15.167 -13.5 -21.5s-13.667 -11.666 -24 -15.999s-22.5 -6.5 -36.5 -6.5c16 11.333 27.333 24.333 34 39
c-6.66699 0.666992 -12.667 3 -18 7s-9.5 8.83301 -12.5 14.5s-4.5 12.167 -4.5 19.5c0 11.333 4 21 12 29s18 12 30 12zM122 700h61v-700h-61v700z" />
    <glyph glyph-name="Ldot" unicode="&#x13f;" horiz-adv-x="553" 
d="M106 700h65v-639h338v-61h-403v700zM368.5 272c-11.667 0 -21.499 4 -29.499 12s-12 17.667 -12 29s4.16699 21.166 12.5 29.499s18.166 12.5 29.499 12.5s21 -4.16699 29 -12.5s12 -18.166 12 -29.499s-4 -21 -12 -29s-17.833 -12 -29.5 -12z" />
    <glyph glyph-name="ldot" unicode="&#x140;" horiz-adv-x="381" 
d="M122 0v700h61v-700h-61zM292 272c-11.333 0 -21.166 4 -29.499 12s-12.5 17.667 -12.5 29s4.16699 21.166 12.5 29.499s18.166 12.5 29.499 12.5s21.166 -4.16699 29.499 -12.5s12.5 -18.166 12.5 -29.499s-4.16699 -21 -12.5 -29s-18.166 -12 -29.499 -12z" />
    <glyph glyph-name="Lslash" unicode="&#x141;" horiz-adv-x="643" 
d="M197 700h65v-305l134 97v-70l-135 -97v-264h339v-61h-403v279l-91 -66v70l91 65v352z" />
    <glyph glyph-name="lslash" unicode="&#x142;" horiz-adv-x="418" 
d="M184 700h61v-311l92 69v-70l-92 -68v-320h-61v276l-93 -67v70l93 67v354z" />
    <glyph glyph-name="Nacute" unicode="&#x143;" horiz-adv-x="746" 
d="M106 700h72l398 -597v597h64v-700h-72l-398 598v-598h-64v700zM385 900h84l-93 -125h-59z" />
    <glyph glyph-name="nacute" unicode="&#x144;" horiz-adv-x="608" 
d="M323 705h83l-92 -126h-59zM148 500l-0.000976562 -46.001c48.667 36.667 103.334 54.334 164.001 53.001c74 -0.666992 128.167 -23 162.5 -67s51.833 -110.333 52.5 -199v-241h-63v241c0 72 -12.833 124.833 -38.5 158.5s-69.167 50.167 -130.5 49.5
c-50 0 -98.667 -16 -146 -48v-401h-63v500h62z" />
    <glyph glyph-name="Ncommaaccent" unicode="&#x145;" horiz-adv-x="746" 
d="M576 700h64v-700h-72l-398 598v-598h-64v700h72l398 -597v597zM370 -84c8 0 15.1689 -2.00098 21.502 -6.00098s11.333 -9.16699 15 -15.5s5.5 -13.166 5.5 -20.499c0 -19.333 -6.33301 -37.333 -19 -54s-33.667 -25 -63 -25c15.333 11.333 26.666 24 33.999 38
c-10 1.33301 -18.333 5.83301 -25 13.5s-10 16.834 -10 27.501c0 5.33301 1 10.666 3 15.999s4.83301 9.83301 8.5 13.5s8.16699 6.66699 13.5 9s10.666 3.5 15.999 3.5z" />
    <glyph glyph-name="ncommaaccent" unicode="&#x146;" horiz-adv-x="608" 
d="M148 500l-0.000976562 -46.001c48.667 36.667 103.334 54.334 164.001 53.001c74 -0.666992 128.167 -23 162.5 -67s51.833 -110.333 52.5 -199v-241h-63v241c0 72 -12.833 124.833 -38.5 158.5s-69.167 50.167 -130.5 49.5c-50 0 -98.667 -16 -146 -48v-401h-63v500h62z
M300.999 -81.001c11.333 0 21.001 -4.16797 29.001 -12.501s12 -18.166 12 -29.499c0 -18.667 -6.33301 -36.5 -19 -53.5s-33.667 -25.5 -63 -25.5c15.333 11.333 26.666 24 33.999 38c-10 2 -18.333 6.83301 -25 14.5s-10 16.5 -10 26.5c0 6 1 11.5 3 16.5s5 9.33301 9 13
s8.5 6.66699 13.5 9s10.5 3.5 16.5 3.5z" />
    <glyph glyph-name="Ncaron" unicode="&#x147;" horiz-adv-x="746" 
d="M461 900h71l-123 -134h-64l-123 134h71l84 -95zM106 700h72l398 -597v597h64v-700h-72l-398 598v-598h-64v700z" />
    <glyph glyph-name="ncaron" unicode="&#x148;" horiz-adv-x="608" 
d="M379 705h71l-123 -134h-64l-123 134h71l84 -95zM527 0l-63.001 -0.000976562v241c0 72 -12.833 124.833 -38.5 158.5s-69.167 50.167 -130.5 49.5c-50 0 -98.667 -16 -146 -48v-401h-63v500h62v-46c48.667 36.667 103.334 54.334 164.001 53.001
c74 -0.666992 128.167 -23 162.5 -67s51.833 -110.333 52.5 -199v-241z" />
    <glyph glyph-name="Eng" unicode="&#x14a;" horiz-adv-x="746" 
d="M576 700h64v-582c0 -94.667 -27.667 -168 -83 -220s-127 -78 -215 -78h-24v63h25c50 0 94.167 11.833 132.5 35.5s65.5 56.5 81.5 98.5l-387 581v-598h-64v700h72l398 -596v596z" />
    <glyph glyph-name="eng" unicode="&#x14b;" horiz-adv-x="608" 
d="M527 241l-0.00195312 -269c-0.666992 -46.667 -14.834 -83.334 -42.501 -110.001s-67.834 -37.667 -120.501 -33v55c32.667 -2 57.334 4.33301 74.001 19s25.334 35.667 26.001 63v275c0 66.667 -10.667 116.5 -32 149.5s-59.666 51.5 -114.999 55.5
c-51.333 8 -107.333 -6.66699 -168 -44v-402h-63v500h61v-46c55.333 36.667 112 54.334 170 53.001c74 -2 127.333 -25.333 160 -70s49.334 -110 50.001 -196z" />
    <glyph glyph-name="Omacron" unicode="&#x14c;" horiz-adv-x="880" 
d="M440.5 709c65 0 125.167 -16 180.5 -48s99 -75.5 131 -130.5s48 -115.167 48 -180.5s-16 -125.5 -48 -180.5s-75.667 -98.5 -131 -130.5s-115.5 -48 -180.5 -48s-125.167 16 -180.5 48s-99.166 75.5 -131.499 130.5s-48.5 115.167 -48.5 180.5s16.167 125.5 48.5 180.5
s76.166 98.5 131.499 130.5s115.5 48 180.5 48zM440 646c-82 0 -151.667 -28.833 -209 -86.5s-86 -127.5 -86 -209.5s28.667 -151.833 86 -209.5s127 -86.5 209 -86.5s151.833 28.833 209.5 86.5s86.5 127.5 86.5 209.5s-28.833 151.833 -86.5 209.5
s-127.5 86.5 -209.5 86.5zM286 900h306v-52h-306v52z" />
    <glyph glyph-name="omacron" unicode="&#x14d;" horiz-adv-x="662" 
d="M178 700h305v-52h-305v52zM331 508c34.667 0 68 -6.83203 100 -20.499s59.667 -32 83 -55s41.833 -50.5 55.5 -82.5s20.5 -65.333 20.5 -100c0 -71.333 -25.333 -132.166 -76 -182.499s-111.667 -75.5 -183 -75.5s-132.333 25.167 -183 75.5s-76 111.166 -76 182.499
s25.333 132.166 76 182.499s111.667 75.5 183 75.5zM331 446.001c-54.667 0 -101 -19 -139 -57s-57 -84.333 -57 -139s19 -101 57 -139s84.333 -57 139 -57s101 19 139 57s57 84.333 57 139s-19 101 -57 139s-84.333 57 -139 57z" />
    <glyph glyph-name="Ohungarumlaut" unicode="&#x150;" horiz-adv-x="880" 
d="M439.5 709c65 0 125.167 -16 180.5 -48s99 -75.5 131 -130.5s48 -115.167 48 -180.5s-16 -125.5 -48 -180.5s-75.667 -98.5 -131 -130.5s-115.5 -48 -180.5 -48s-125.167 16 -180.5 48s-99.166 75.5 -131.499 130.5s-48.5 115.167 -48.5 180.5s16.167 125.5 48.5 180.5
s76.166 98.5 131.499 130.5s115.5 48 180.5 48zM439 646c-82 0 -151.667 -28.833 -209 -86.5s-86 -127.5 -86 -209.5s28.667 -151.833 86 -209.5s127 -86.5 209 -86.5s151.833 28.833 209.5 86.5s86.5 127.5 86.5 209.5s-28.833 151.833 -86.5 209.5
s-127.5 86.5 -209.5 86.5zM402 900h84l-93 -125h-59zM539 900h84l-93 -125h-59z" />
    <glyph glyph-name="ohungarumlaut" unicode="&#x151;" horiz-adv-x="669" 
d="M331 508c34.667 0 68 -6.83203 100 -20.499s59.667 -32 83 -55s41.833 -50.5 55.5 -82.5s20.5 -65.333 20.5 -100c0 -71.333 -25.333 -132.166 -76 -182.499s-111.667 -75.5 -183 -75.5s-132.333 25.167 -183 75.5s-76 111.166 -76 182.499s25.333 132.166 76 182.499
s111.667 75.5 183 75.5zM331 446.001c-54.667 0 -101 -19 -139 -57s-57 -84.333 -57 -139s19 -101 57 -139s84.333 -57 139 -57s101 19 139 57s57 84.333 57 139s-19 101 -57 139s-84.333 57 -139 57zM303 700.001h84l-93 -125h-59zM440 700.001h84l-93 -125h-59z" />
    <glyph glyph-name="OE" unicode="&#x152;" horiz-adv-x="1091" 
d="M618 0v39c-55.333 -32 -115 -48 -179 -48c-64.667 0 -124.667 16 -180 48s-99.166 75.5 -131.499 130.5s-48.5 115.167 -48.5 180.5s16.167 125.5 48.5 180.5s76.166 98.5 131.499 130.5s115.333 48 180 48c64 0 123.667 -16 179 -48v39h419v-62h-355v-243h355v-63h-355
v-270h355v-62h-419zM618 115v470c-52 40.667 -111.667 61 -179 61c-82 0 -151.667 -28.833 -209 -86.5s-86 -127.5 -86 -209.5s28.667 -151.833 86 -209.5s127 -86.5 209 -86.5c67.333 0 127 20.333 179 61z" />
    <glyph glyph-name="oe" unicode="&#x153;" horiz-adv-x="1094" 
d="M953 109l44.0039 -45.002c-44 -48 -113.333 -72 -208 -72c-51.333 0 -97.833 13.667 -139.5 41s-71.834 63.333 -90.501 108c-19.333 -44.667 -49.5 -80.667 -90.5 -108s-86.833 -41 -137.5 -41c-71.333 0 -132.333 25 -183 75s-76 111 -76 183
c0 71.333 25.333 132.166 76 182.499s111.667 75.5 183 75.5c50.667 0 96.5 -13.833 137.5 -41.5s70.833 -63.5 89.5 -107.5c12.667 28.667 30.167 54.334 52.5 77.001s48.666 40.334 78.999 53.001s62.166 19 95.499 19c82 0 147.333 -28 196 -84
c35.333 -40.667 50.333 -81.667 45 -123c-4.66699 -38 -26.334 -60.667 -65.001 -68c-8 -1.33301 -16 -2 -24 -2h-339c0 -49.333 18.667 -91.166 56 -125.499s82.333 -51.5 135 -51.5c78 0 132.667 18.333 164 55zM599.004 291.998h313.002c28 0 43.333 11.333 46 34
c3.33301 26 -9.33398 51.333 -38.001 76c-35.333 29.333 -80.333 44.333 -135 45c-24 0 -47 -4.16699 -69 -12.5s-41.333 -19.333 -58 -33s-30.334 -30.167 -41.001 -49.5s-16.667 -39.333 -18 -60zM331.006 445.998c-54.667 0 -101 -19 -139 -57s-57 -84.333 -57 -139
s19 -101 57 -139s84.333 -57 139 -57s101 19 139 57s57 84.333 57 139c0 36 -8.66699 69 -26 99s-41 53.667 -71 71s-63 26 -99 26z" />
    <glyph glyph-name="Racute" unicode="&#x154;" horiz-adv-x="661" 
d="M286 900h84l-93 -125h-59zM106 700h236c42.667 0 80 -8 112 -24s56.667 -38.833 74 -68.5s26 -63.834 26 -102.501c0 -52.667 -15.833 -96.167 -47.5 -130.5s-74.167 -55.166 -127.5 -62.499l202 -312h-75l-199 309h-137v-309h-64v700zM170 372l170.999 0.00195312
c29.333 0 55.166 5.33301 77.499 16s39.833 26.167 52.5 46.5s19 43.666 19 69.999s-6.66699 49.666 -20 69.999s-31.166 36 -53.499 47s-47.166 16.5 -74.499 16.5h-172v-266z" />
    <glyph glyph-name="racute" unicode="&#x155;" horiz-adv-x="488" 
d="M268 700h83l-92 -125h-59zM148 500v-82.998c22.667 27.333 49.667 49.166 81 65.499s63.666 24.5 96.999 24.5c42 0.666992 81 -12.333 117 -39l-45 -45c-27.333 18.667 -56.666 27.667 -87.999 27c-58 -0.666992 -111.667 -30.334 -161 -89.001v-361h-63v500h62z" />
    <glyph glyph-name="Rcommaaccent" unicode="&#x156;" horiz-adv-x="661" 
d="M106 700h235.998c42.667 0 80 -8 112 -24s56.667 -38.833 74 -68.5s26 -63.834 26 -102.501c0 -35.333 -7.16699 -66.666 -21.5 -93.999s-34.666 -49.5 -60.999 -66.5s-57.166 -27.833 -92.499 -32.5l202 -312h-75l-199 309h-137v-309h-64v700zM169.998 372
l170.999 0.00195312c29.333 0 55.166 5.33301 77.499 16s39.833 26.167 52.5 46.5s19 43.666 19 69.999s-6.66699 49.666 -20 69.999s-31.166 36 -53.499 47s-47.166 16.5 -74.499 16.5h-172v-266zM327.997 -83.998c11.333 0 21.1699 -4.16797 29.5029 -12.501
s12.5 -18.166 12.5 -29.499c-0.666992 -19.333 -7.33398 -37.5 -20.001 -54.5s-33.334 -25.5 -62.001 -25.5c15.333 12 26.333 25 33 39c-4.66699 0.666992 -9.16699 2.16699 -13.5 4.5s-8 5.33301 -11 9s-5.5 7.83398 -7.5 12.501s-3 9.66699 -3 15
c0 11.333 4.16699 21.166 12.5 29.499s18.166 12.5 29.499 12.5z" />
    <glyph glyph-name="rcommaaccent" unicode="&#x157;" horiz-adv-x="492" 
d="M151 500l-0.000976562 -82.998c23.333 27.333 50.5 49.166 81.5 65.499s63.5 24.5 97.5 24.5c41.333 0.666992 80 -12.333 116 -39l-44 -45c-27.333 18.667 -56.666 27.667 -87.999 27c-58 -0.666992 -111.667 -30.334 -161 -89.001v-361h-63v500h61zM265.999 -93.998
c8.66699 -5.33301 13.666 -13.668 14.999 -25.001s-3 -21.333 -13 -30c4 -9.33301 2.5 -18.666 -4.5 -27.999s-19.833 -13 -38.5 -11c0.666992 1.33301 4.66699 13.666 12 36.999c-7.33301 4.66699 -12.166 10.834 -14.499 18.501s-1.5 15.167 2.5 22.5
c3.33301 8 9 13.5 17 16.5s16 2.83301 24 -0.5z" />
    <glyph glyph-name="Rcaron" unicode="&#x158;" horiz-adv-x="661" 
d="M378 900h71l-123 -134h-64l-123 134h71l84 -95zM106 700h236c42.667 0 80 -8 112 -24s56.667 -38.833 74 -68.5s26 -63.834 26 -102.501c0 -52.667 -15.833 -96.167 -47.5 -130.5s-74.167 -55.166 -127.5 -62.499l202 -312h-75l-199 309h-137v-309h-64v700zM170 372
l170.999 0.00195312c29.333 0 55.166 5.33301 77.499 16s39.833 26.167 52.5 46.5s19 43.666 19 69.999s-6.66699 49.666 -20 69.999s-31.166 36 -53.499 47s-47.166 16.5 -74.499 16.5h-172v-266z" />
    <glyph glyph-name="rcaron" unicode="&#x159;" horiz-adv-x="496" 
d="M362 700h71l-123 -134h-64l-123 134h71l84 -95zM147 500l1 -82.998c22.667 27.333 49.667 49.166 81 65.499s63.666 24.5 96.999 24.5c42 0.666992 81 -12.333 117 -39l-45 -45c-27.333 18.667 -56.666 27.667 -87.999 27c-58 -0.666992 -111.667 -30.334 -161 -89.001
v-361h-63v500h61z" />
    <glyph glyph-name="Sacute" unicode="&#x15a;" horiz-adv-x="523" 
d="M263 900h84l-93 -125h-59zM287 324l-45 15.999c-38 10 -70.333 23 -97 39s-48 36.5 -64 61.5s-24 53.167 -24 84.5c0 58.667 20 104 60 136s87.667 48.333 143 49c31.333 0 61.5 -5.16699 90.5 -15.5s53.5 -24.833 73.5 -43.5l-40 -44c-32.667 29.333 -74 43 -124 41
c-38 -1.33301 -70.167 -12.5 -96.5 -33.5s-39.5 -50.167 -39.5 -87.5c0 -32.667 11.5 -59.667 34.5 -81s58.167 -39 105.5 -53l49 -15c106 -34.667 159 -100 159 -196c0 -40 -11 -74.833 -33 -104.5s-49.833 -51.5 -83.5 -65.5s-70.167 -21 -109.5 -21
c-36.667 0.666992 -72 7.83398 -106 21.501s-63 33.834 -87 60.501l40 45c39.333 -44 90.333 -65.667 153 -65c44 0 82.167 11.667 114.5 35s48.5 54.666 48.5 93.999c0 36 -9.83301 65 -29.5 87s-50.5 40.333 -92.5 55z" />
    <glyph glyph-name="sacute" unicode="&#x15b;" horiz-adv-x="412" 
d="M214 711h84l-93 -125h-59zM50 60l39.998 39.9971c38 -31.333 75.667 -47.333 113 -48c26.667 0 49.167 7.5 67.5 22.5s27.833 33.5 28.5 55.5c1.33301 17.333 -1.16699 32.333 -7.5 45s-17.166 24 -32.499 34s-35.666 19 -60.999 27c-46 12.667 -80.333 30 -103 52
s-34 51.667 -34 89c0 38.667 14.167 70.167 42.5 94.5s62.166 36.833 101.499 37.5c45.333 0 89 -15 131 -45l-42 -41c-26.667 16 -54.334 24 -83.001 24c-22.667 0 -42.5 -5.83301 -59.5 -17.5s-25.833 -27.5 -26.5 -47.5c-1.33301 -21.333 4.33398 -39.166 17.001 -53.499
s35.334 -26.166 68.001 -35.499c54.667 -15.333 93.667 -35.666 117 -60.999s35 -59 35 -101c0 -41.333 -15 -75 -45 -101s-68 -39 -114 -39c-53.333 0 -104.333 23 -153 69z" />
    <glyph glyph-name="Scedilla" unicode="&#x15e;" horiz-adv-x="523" 
d="M287 324l-45.001 15.999c-58 15.333 -103.333 38.333 -136 69s-49 69.334 -49 116.001c0 40 10.167 74.333 30.5 103s45.666 49.5 75.999 62.5s63.5 19.5 99.5 19.5c66.667 -0.666992 120.334 -20.334 161.001 -59.001l-40 -44c-32 28.667 -72 42.334 -120 41.001
c-38.667 -0.666992 -71.667 -11.5 -99 -32.5s-41 -50.5 -41 -88.5c0 -32.667 11.5 -59.667 34.5 -81s58.167 -39 105.5 -53l49 -15c106 -34.667 159 -100 159 -196c0 -56.667 -20.333 -102 -61 -136s-90 -52.333 -148 -55v-30h10c23.333 0 41.5 -6.5 54.5 -19.5
s19.5 -29.667 19.5 -50s-6.83301 -37.5 -20.5 -51.5s-31.834 -21 -54.501 -21h-84v37h80c12.667 0 22.334 3.66699 29.001 11s10 15.333 10 24c0 6.66699 -1.16699 12.5 -3.5 17.5s-6.66602 9.5 -12.999 13.5s-13.833 6 -22.5 6h-41v65c-72 5.33301 -130 32 -174 80l40 45
c20 -22 44 -38.5 72 -49.5s56.667 -16.167 86 -15.5c43.333 0.666992 80.5 12.667 111.5 36s46.5 54.333 46.5 93c0 24.667 -4.5 46 -13.5 64s-22.333 33 -40 45s-40.5 23 -68.5 33z" />
    <glyph glyph-name="scedilla" unicode="&#x15f;" horiz-adv-x="412" 
d="M50 60l40.001 39.9971c38 -31.333 75.667 -47.333 113 -48c26.667 0 49.167 7.5 67.5 22.5s27.833 33.5 28.5 55.5c1.33301 26 -5.66699 47.333 -21 64s-42 30.667 -80 42c-46 12.667 -80.333 30 -103 52s-34 51.667 -34 89c0 38.667 14.167 70.167 42.5 94.5
s62.166 36.833 101.499 37.5c45.333 0 89 -15 131 -45l-42 -41c-26.667 16 -54.334 24 -83.001 24c-22.667 0 -42.5 -5.83301 -59.5 -17.5s-25.833 -27.5 -26.5 -47.5c-1.33301 -21.333 4.33398 -39.166 17.001 -53.499s35.334 -26.166 68.001 -35.499
c54.667 -15.333 93.667 -35.666 117 -60.999s35 -59 35 -101c0 -26 -6.33301 -49.5 -19 -70.5s-30.334 -37.5 -53.001 -49.5s-48.334 -18.667 -77.001 -20v-26h10c23.333 0 41.5 -6.83301 54.5 -20.5s19.5 -30.5 19.5 -50.5s-6.83301 -37 -20.5 -51s-31.834 -21 -54.501 -21
h-84v37h80c12.667 0 22.334 3.5 29.001 10.5s10 15.167 10 24.5c0 10 -3.16699 18.667 -9.5 26s-16.166 11 -29.499 11h-41v62c-44.667 6.66699 -87 29 -127 67z" />
    <glyph glyph-name="Scaron" unicode="&#x160;" horiz-adv-x="523" 
d="M342 900h72l-124 -134h-63l-124 134h72l83 -95zM287 324l-45.001 15.9971c-38 10 -70.333 23 -97 39s-48 36.5 -64 61.5s-24 53.167 -24 84.5c0 40 10.167 74.333 30.5 103s45.5 49.5 75.5 62.5s63 19.5 99 19.5c67.333 -0.666992 121.333 -20.334 162 -59.001l-40 -44
c-32 28.667 -72.667 42.334 -122 41.001c-38 -0.666992 -70.5 -11.5 -97.5 -32.5s-40.5 -50.5 -40.5 -88.5c0 -32.667 11.5 -59.667 34.5 -81s58.167 -39 105.5 -53l49 -15c106 -34.667 159 -100 159 -196c0 -59.333 -22.167 -106.166 -66.5 -140.499
s-97.166 -51.166 -158.499 -50.499c-36.667 0.666992 -72.167 7.83398 -106.5 21.501s-63.5 33.834 -87.5 60.501l40 45c40 -44 91.333 -65.667 154 -65c44 0 82 11.667 114 35s48 54.666 48 93.999c0 36 -9.83301 65 -29.5 87s-50.5 40.333 -92.5 55z" />
    <glyph glyph-name="scaron" unicode="&#x161;" horiz-adv-x="425" 
d="M295 711h71l-123 -134h-64l-123 134h71l84 -95zM55 60l41 39.9961c37.333 -31.333 74.666 -47.333 111.999 -48c18 0 34.333 3.5 49 10.5s26.167 16.333 34.5 28s12.5 24.834 12.5 39.501c1.33301 17.333 -1.16699 32.333 -7.5 45s-17 24 -32 34s-35.5 19 -61.5 27
c-46 12.667 -80.167 30 -102.5 52s-33.5 51.667 -33.5 89c0 38.667 14.167 70.167 42.5 94.5s61.833 36.833 100.5 37.5c45.333 0 89 -15 131 -45l-42 -41c-26.667 16 -54.334 24 -83.001 24c-22 0 -41.5 -5.83301 -58.5 -17.5s-26.167 -27.5 -27.5 -47.5
c-1.33301 -21.333 4.33398 -39.166 17.001 -53.499s35.667 -26.166 69 -35.499c54 -15.333 92.667 -35.666 116 -60.999s35 -59 35 -101c0 -41.333 -15 -75 -45 -101s-67.667 -39 -113 -39c-53.333 0 -104.666 23 -153.999 69z" />
    <glyph glyph-name="Tcedilla" unicode="&#x162;" horiz-adv-x="578" 
d="M43 700h490v-60h-213v-640h-64v639h-213v61zM269 0h36v-45h10c23.333 0 41.666 -6.66699 54.999 -20s20 -30 20 -50c0 -20.667 -7 -38 -21 -52s-32.333 -21 -55 -21h-84v38h80c12.667 0 22.334 3.5 29.001 10.5s10 15.167 10 24.5c0 4.66699 -0.666992 9 -2 13
s-3.5 7.83301 -6.5 11.5s-7 6.5 -12 8.5s-11.167 3 -18.5 3h-41v79z" />
    <glyph glyph-name="tcedilla" unicode="&#x163;" horiz-adv-x="379" 
d="M122 627h62.9971v-127h129v-59h-129v-331c0 -19.333 7.33301 -34.5 22 -45.5s32.334 -16.5 53.001 -16.5h54v-56h-48c-10 0 -20 0.333008 -30 1v-24h9c24 0 42.5 -6.66699 55.5 -20s19.5 -30 19.5 -50s-7 -37 -21 -51s-32.333 -21 -55 -21h-83v37h79
c12.667 0 22.334 3.5 29.001 10.5s10 15.167 10 24.5c0 10.667 -3.16699 19.5 -9.5 26.5s-16.166 10.5 -29.499 10.5h-40v66c-24 8 -43 21.5 -57 40.5s-21 41.5 -21 67.5v331h-72v59h72v127z" />
    <glyph glyph-name="Tcaron" unicode="&#x164;" horiz-adv-x="578" 
d="M371 900h71l-123 -134h-64l-123 134h71l84 -95zM43 700h490v-60h-213v-640h-64v639h-213v61z" />
    <glyph glyph-name="tcaron" unicode="&#x165;" horiz-adv-x="470" 
d="M379 709c5.33301 0 10.6689 -1 16.002 -3s9.83301 -5 13.5 -9s6.5 -8.5 8.5 -13.5s3 -10.167 3 -15.5c0 -19.333 -6.33301 -37.5 -19 -54.5s-33.334 -25.5 -62.001 -25.5c15.333 11.333 26.333 24.333 33 39c-6.66699 0.666992 -12.667 3 -18 7s-9.5 8.83301 -12.5 14.5
s-4.5 12.167 -4.5 19.5c0 11.333 4.16699 21 12.5 29s18.166 12 29.499 12zM122.003 627h62.999v-127h129v-59h-129v-331c0 -19.333 7.33301 -34.5 22 -45.5s32.334 -16.5 53.001 -16.5h54v-56h-54c-40 0 -73 10.667 -99 32s-39 50 -39 86v331h-72v59h72v127z" />
    <glyph glyph-name="Tbar" unicode="&#x166;" horiz-adv-x="578" 
d="M43 700h490v-60h-213v-233h121v-52h-121v-355h-64v355h-121v52h121v232h-213v61z" />
    <glyph glyph-name="tbar" unicode="&#x167;" horiz-adv-x="364" 
d="M314 441h-129.001v-126h129v-52h-129v-153c0 -19.333 7.33301 -34.5 22 -45.5s32.334 -16.5 53.001 -16.5h54v-56h-54c-40 0 -73 10.667 -99 32s-39 50 -39 86v153h-72v52h72v126h-72v59h72v127h63v-127h129v-59z" />
    <glyph glyph-name="Umacron" unicode="&#x16a;" 
d="M228 863h305v-52h-305v52zM591 265l-0.00195312 435h65v-442c0 -73.333 -26.333 -136.166 -79 -188.499s-118 -78.5 -196 -78.5s-143.333 26.167 -196 78.5s-79 115.166 -79 188.499v442h66v-435c0 -29.333 5.5 -57 16.5 -83s25.833 -48.333 44.5 -67
s40.834 -33.5 66.501 -44.5s52.834 -16.5 81.501 -16.5c58 0 107.5 20.5 148.5 61.5s61.5 90.833 61.5 149.5z" />
    <glyph glyph-name="umacron" unicode="&#x16b;" horiz-adv-x="617" 
d="M466 500h64.002v-500h-62v61c-51.333 -46.667 -111 -69.667 -179 -69c-72 1.33301 -124.667 24 -158 68s-50 110.333 -50 199v241h63v-241c0 -72 12.167 -124.833 36.5 -158.5s66.166 -50.167 125.499 -49.5c57.333 0 110.666 21.333 159.999 64v385zM152.002 711h306
v-52h-306v52z" />
    <glyph glyph-name="Uring" unicode="&#x16e;" 
d="M376 953c28 0 51.999 -9.83301 71.999 -29.5s30 -43.5 30 -71.5c0 -28.667 -10 -52.834 -30 -72.501s-44 -29.5 -72 -29.5c-28.667 0 -52.667 9.83301 -72 29.5s-29 43.834 -29 72.501c0 14 2.66699 27.167 8 39.5s12.333 23 21 32s19.334 16.167 32.001 21.5s26 8 40 8z
M375.999 903c-14 0 -26.001 -5 -36.001 -15s-15 -22 -15 -36c0 -14.667 4.83301 -27 14.5 -37s21.834 -15 36.501 -15c14 0 26 5 36 15s15 22.333 15 37c0 14 -5 26 -15 36s-22 15 -36 15zM590.998 700h65.001v-442c0 -73.333 -26.333 -136.166 -79 -188.499
s-118 -78.5 -196 -78.5s-143.333 26.167 -196 78.5s-79 115.166 -79 188.499v442h66v-435c0 -38.667 9.16699 -74.167 27.5 -106.5s43.666 -57.833 75.999 -76.5s67.5 -28 105.5 -28c58 0 107.5 20.5 148.5 61.5s61.5 90.833 61.5 149.5v435z" />
    <glyph glyph-name="uring" unicode="&#x16f;" horiz-adv-x="617" 
d="M310 797c28 0 52.001 -10 72.001 -30s30 -43.667 30 -71c0 -28.667 -9.83301 -53 -29.5 -73s-43.834 -30 -72.501 -30c-28 0 -51.833 10 -71.5 30s-29.5 44.333 -29.5 73c0 27.333 9.83301 51 29.5 71s43.5 30 71.5 30zM310.001 746
c-14 0 -25.833 -4.99902 -35.5 -14.999s-14.5 -21.667 -14.5 -35c0 -10 2.16699 -18.833 6.5 -26.5s10.333 -13.834 18 -18.501s16.167 -7 25.5 -7s18 2.16699 26 6.5s14.333 10.5 19 18.5s7 17 7 27c0 13.333 -5.16699 25 -15.5 35s-22.5 15 -36.5 15zM466.001 500.001
h64.002v-500h-62v61c-51.333 -46.667 -111 -69.667 -179 -69c-72 1.33301 -124.667 24 -158 68s-50 110.333 -50 199v241h63v-241c0 -72 12.167 -124.833 36.5 -158.5s66.166 -50.167 125.499 -49.5c57.333 0 110.666 21.333 159.999 64v385z" />
    <glyph glyph-name="Uhungarumlaut" unicode="&#x170;" 
d="M346 919h83l-93 -126h-59zM483 919h83l-93 -126h-59zM591 700h64.998v-442c0 -73.333 -26.333 -136.166 -79 -188.499s-118 -78.5 -196 -78.5s-143.333 26.167 -196 78.5s-79 115.166 -79 188.499v442h66v-435c0 -29.333 5.5 -57 16.5 -83s25.833 -48.333 44.5 -67
s40.834 -33.5 66.501 -44.5s52.834 -16.5 81.501 -16.5c58 0 107.5 20.5 148.5 61.5s61.5 90.833 61.5 149.5v435z" />
    <glyph glyph-name="uhungarumlaut" unicode="&#x171;" horiz-adv-x="631" 
d="M252 711h83l-93 -125h-59zM389 711h83l-93 -125h-59zM466 500h64.002v-500h-62v61c-51.333 -46.667 -111 -69.667 -179 -69c-72 1.33301 -124.667 24 -158 68s-50 110.333 -50 199v241h63v-241c0 -72 12.167 -124.833 36.5 -158.5s66.166 -50.167 125.499 -49.5
c57.333 0 110.666 21.333 159.999 64v385z" />
    <glyph glyph-name="Uogonek" unicode="&#x172;" 
d="M591 700l64.998 0.000976562v-442c0 -60.667 -18.833 -115 -56.5 -163s-86.5 -79.667 -146.5 -95c-40 -23.333 -59.333 -50 -58 -80c0.666992 -30.667 16 -46 46 -46h20v-37h-26c-23.333 0 -42.333 6.5 -57 19.5s-22 30.833 -22 53.5c0 34 17.333 61.333 52 82
c-9.33301 -0.666992 -18.333 -1 -27 -1c-78 0 -143.333 26.167 -196 78.5s-79 115.166 -79 188.499v442h66v-435c0 -29.333 5.5 -57 16.5 -83s25.833 -48.333 44.5 -67s40.834 -33.5 66.501 -44.5s52.834 -16.5 81.501 -16.5c58 0 107.5 20.5 148.5 61.5
s61.5 90.833 61.5 149.5v435z" />
    <glyph glyph-name="uogonek" unicode="&#x173;" horiz-adv-x="617" 
d="M503 -126l21.0029 0.000976562v-37h-27c-22.667 0 -41.334 6.5 -56.001 19.5s-22 30.833 -22 53.5c0 22 5.66699 39.667 17 53s27.333 25.666 48 36.999h-16v61c-51.333 -46.667 -111 -69.667 -179 -69c-72 1.33301 -124.667 24 -158 68s-50 110.333 -50 199v241h63v-241
c0 -72 12.167 -124.833 36.5 -158.5s66.166 -50.167 125.499 -49.5c57.333 0 110.666 21.333 159.999 64v385h64v-500h-14c-40 -23.333 -59.333 -50 -58 -80c0.666992 -30.667 15.667 -46 45 -46z" />
    <glyph glyph-name="Wcircumflex" unicode="&#x174;" horiz-adv-x="1067" 
d="M955 700h67l-233 -700h-72l-184 599l-186 -599h-70l-234 700h67l203 -598l183 598h74l183 -598zM495 900h64l123 -134h-71l-84 95l-84 -95h-71z" />
    <glyph glyph-name="wcircumflex" unicode="&#x175;" horiz-adv-x="830" 
d="M784 500l-168 -500h-65l-136 409l-136 -409h-64l-169 500h61l140 -408l136 408h65l136 -408l139 408h61zM384 700h64l123 -134h-71l-84 95l-84 -95h-71z" />
    <glyph glyph-name="Ycircumflex" unicode="&#x176;" horiz-adv-x="670" 
d="M555 700h70l-259 -407v-293h-64v293l-259 407h71l220 -346zM302 900h64l123 -134h-71l-84 95l-84 -95h-71z" />
    <glyph glyph-name="ycircumflex" unicode="&#x177;" horiz-adv-x="579" 
d="M444 500l63.001 0.000976562v-455c-2 -76 -20.667 -131.167 -56 -165.5s-91.666 -50.833 -168.999 -49.5c-72 0.666992 -134 15.667 -186 45l8 50c51.333 -26.667 110.666 -39.667 177.999 -39c56.667 0 97.167 10.5 121.5 31.5s38.5 58.5 42.5 112.5v23
c-20.667 -15.333 -44.834 -28 -72.501 -38s-55.834 -15 -84.501 -15c-75.333 -0.666992 -131.166 21 -167.499 65s-54.5 111.333 -54.5 202v233h63v-233c0 -48 5.16699 -86.833 15.5 -116.5s28 -52.334 53 -68.001s58.167 -23.5 99.5 -23.5c49.333 0 98 16 146 48v393z
M250.001 700.001h64l123 -134h-71l-84 95l-84 -95h-71z" />
    <glyph glyph-name="Ydieresis" unicode="&#x178;" horiz-adv-x="670" 
d="M229 823c-7.33301 0 -14.167 1.83398 -20.5 5.50098s-11.333 8.66699 -15 15s-5.5 13.166 -5.5 20.499c0 11.333 4 21.166 12 29.499s17.667 12.5 29 12.5c12 0 22 -4.16699 30 -12.5s12 -18.166 12 -29.499s-4 -21 -12 -29s-18 -12 -30 -12zM438.999 823.001
c-12 0 -22 4 -30 12s-12 17.667 -12 29s4 21.166 12 29.499s18 12.5 30 12.5c11.333 0 21 -4.16699 29 -12.5s12 -18.166 12 -29.499s-4 -21 -12 -29s-17.667 -12 -29 -12zM554.999 700.001h70l-259 -407v-293h-64v293l-259 407h71l220 -346z" />
    <glyph glyph-name="Zacute" unicode="&#x179;" horiz-adv-x="576" 
d="M66 700h454v-61l-394 -579h397v-60h-470v61l394 579h-381v60zM294 900h84l-93 -125h-59z" />
    <glyph glyph-name="zacute" unicode="&#x17a;" horiz-adv-x="446" 
d="M226 700h83l-92 -125h-60zM128 59h268v-59h-346v55l264 385h-251v60h329v-56z" />
    <glyph glyph-name="Zdotaccent" unicode="&#x17b;" horiz-adv-x="576" 
d="M283 823c-11.333 0 -21.166 4 -29.499 12s-12.5 17.667 -12.5 29s4.16699 21.166 12.5 29.499s18.166 12.5 29.499 12.5s21.166 -4.16699 29.499 -12.5s12.5 -18.166 12.5 -29.499s-4.16699 -21 -12.5 -29s-18.166 -12 -29.499 -12zM66 700h454v-61l-394 -579h397v-60
h-470v61l394 579h-381v60z" />
    <glyph glyph-name="zdotaccent" unicode="&#x17c;" horiz-adv-x="446" 
d="M220.5 623c-11.667 0 -21.499 4 -29.499 12s-12 17.667 -12 29s4 21.166 12 29.499s17.667 12.5 29 12.5s21.166 -4.16699 29.499 -12.5s12.5 -18.166 12.5 -29.499s-4 -21 -12 -29s-17.833 -12 -29.5 -12zM128.001 59h268v-59h-346v55l264 385h-251v60h329v-56z" />
    <glyph glyph-name="Zcaron" unicode="&#x17d;" horiz-adv-x="576" 
d="M367 900h71l-123 -134h-64l-124 134h72l84 -95zM66 700h454v-61l-394 -579h397v-60h-470v61l394 579h-381v60z" />
    <glyph glyph-name="zcaron" unicode="&#x17e;" horiz-adv-x="456" 
d="M310 700h72l-124 -134h-64l-123 134h72l83 -95zM132 59h268v-59h-347v55l264 385h-250v60h328v-56z" />
    <glyph glyph-name="florin" unicode="&#x192;" horiz-adv-x="362" 
d="M290 750h22.001l-5 -56h-11c-30.667 0 -52.334 -8.16699 -65.001 -24.5s-20.667 -46.5 -24 -90.5l-9 -79h91l-6 -62h-90l-54 -601h-64l55 601h-81l5 62h82l7 77c5.33301 59.333 19 103 41 131s57.333 42 106 42z" />
    <glyph glyph-name="Acaron" unicode="&#x1cd;" 
d="M461 900h71l-123 -134h-64l-124 134h72l84 -95zM340 700h72l297 -700h-67l-95 218h-342l-94 -218h-68zM521 282l-145 342l-145 -342h290z" />
    <glyph glyph-name="acaron" unicode="&#x1ce;" horiz-adv-x="553" 
d="M351 711h71l-123 -134h-64l-123 134h71l84 -95zM110 408l-25 48.999c45.333 34.667 108.666 52 189.999 52c68 0 120.5 -19.167 157.5 -57.5s55.5 -91.166 55.5 -158.499v-293h-56v53c-17.333 -18 -42.666 -32.667 -75.999 -44s-66.333 -17 -99 -17
c-40 0 -74.5 6.66699 -103.5 20s-51.5 33.333 -67.5 60s-24 59 -24 97c0 52 18 93.5 54 124.5s87 46.5 153 46.5c57.333 -0.666992 109.333 -13.667 156 -39c-0.666992 32 -7.16699 59 -19.5 81s-30 38.833 -53 50.5s-50.833 17.5 -83.5 17.5
c-68.667 0 -121.667 -14 -159 -42zM425 106.999l0.000976562 137.999c-40.667 24 -92.667 36 -156 36c-48 0 -84 -10.167 -108 -30.5s-36 -48.166 -36 -83.499c0 -36.667 11.5 -64.667 34.5 -84s57.5 -29 103.5 -29c25.333 0 53.666 4.83301 84.999 14.5s57 22.5 77 38.5z
" />
    <glyph glyph-name="Icaron" unicode="&#x1cf;" horiz-adv-x="277" 
d="M223 900h71l-123 -134h-64l-123 134h71l84 -95zM107 0v700h64v-700h-64z" />
    <glyph glyph-name="icaron" unicode="&#x1d0;" horiz-adv-x="488" 
d="M330 700h72l-124 -134h-64l-123 134h71l84 -95zM216 500h61v-500h-61v500z" />
    <glyph glyph-name="Ocaron" unicode="&#x1d1;" horiz-adv-x="880" 
d="M524 900h71l-123 -134h-64l-123 134h71l84 -95zM440.5 709c65 0 125.167 -16 180.5 -48s99 -75.5 131 -130.5s48 -115.167 48 -180.5s-16 -125.5 -48 -180.5s-75.667 -98.5 -131 -130.5s-115.5 -48 -180.5 -48s-125.167 16 -180.5 48s-99.166 75.5 -131.499 130.5
s-48.5 115.167 -48.5 180.5s16.167 125.5 48.5 180.5s76.166 98.5 131.499 130.5s115.5 48 180.5 48zM440 646c-82 0 -151.667 -28.833 -209 -86.5s-86 -127.5 -86 -209.5s28.667 -151.833 86 -209.5s127 -86.5 209 -86.5s151.833 28.833 209.5 86.5s86.5 127.5 86.5 209.5
s-28.833 151.833 -86.5 209.5s-127.5 86.5 -209.5 86.5z" />
    <glyph glyph-name="ocaron" unicode="&#x1d2;" horiz-adv-x="662" 
d="M414 700h71l-123 -134h-64l-123 134h71l84 -95zM331 508c34.667 0 68 -6.83203 100 -20.499s59.667 -32 83 -55s41.833 -50.5 55.5 -82.5s20.5 -65.333 20.5 -100c0 -71.333 -25.333 -132.166 -76 -182.499s-111.667 -75.5 -183 -75.5s-132.333 25.167 -183 75.5
s-76 111.166 -76 182.499s25.333 132.166 76 182.499s111.667 75.5 183 75.5zM331 446.001c-54.667 0 -101 -19 -139 -57s-57 -84.333 -57 -139s19 -101 57 -139s84.333 -57 139 -57s101 19 139 57s57 84.333 57 139s-19 101 -57 139s-84.333 57 -139 57z" />
    <glyph glyph-name="Ucaron" unicode="&#x1d3;" 
d="M464 900h71l-123 -134h-64l-123 134h71l84 -95zM591 265l-0.00195312 435h65v-442c0 -73.333 -26.333 -136.166 -79 -188.499s-118 -78.5 -196 -78.5s-143.333 26.167 -196 78.5s-79 115.166 -79 188.499v442h66v-435c0 -29.333 5.5 -57 16.5 -83
s25.833 -48.333 44.5 -67s40.834 -33.5 66.501 -44.5s52.834 -16.5 81.501 -16.5c58 0 107.5 20.5 148.5 61.5s61.5 90.833 61.5 149.5z" />
    <glyph glyph-name="ucaron" unicode="&#x1d4;" horiz-adv-x="617" 
d="M388 711h71l-123 -134h-64l-123 134h71l84 -95zM466 500h64.002v-500h-62v61c-51.333 -46.667 -111 -69.667 -179 -69c-72 1.33301 -124.667 24 -158 68s-50 110.333 -50 199v241h63v-241c0 -72 12.167 -124.833 36.5 -158.5s66.166 -50.167 125.499 -49.5
c57.333 0 110.666 21.333 159.999 64v385z" />
    <glyph glyph-name="Udieresismacron" unicode="&#x1d5;" 
d="M227 937h306v-52h-306v52zM275 750c-7.33301 0 -14.167 1.83301 -20.5 5.5s-11.333 8.66699 -15 15s-5.5 13.166 -5.5 20.499c0 12 4 22 12 30s17.667 12 29 12c12 0 22 -4.16699 30 -12.5s12 -18.166 12 -29.499s-4 -21 -12 -29s-18 -12 -30 -12zM484.999 750
c-12 0 -22 3.99902 -30 11.999s-12 17.833 -12 29.5s4 21.5 12 29.5s18 12 30 12c11.333 0 21 -4.16699 29 -12.5s12 -18.166 12 -29.499s-4 -21 -12 -29s-17.667 -12 -29 -12zM590.999 264.999l0.000976562 435h65v-442c0 -73.333 -26.333 -136.166 -79 -188.499
s-118 -78.5 -196 -78.5s-143.333 26.167 -196 78.5s-79 115.166 -79 188.499v442h66v-435c0 -38.667 9.16699 -74.167 27.5 -106.5s43.666 -57.833 75.999 -76.5s67.5 -28 105.5 -28c58 0 107.5 20.5 148.5 61.5s61.5 90.833 61.5 149.5z" />
    <glyph glyph-name="udieresismacron" unicode="&#x1d6;" horiz-adv-x="617" 
d="M153 776h305v-52h-305v52zM200 659c11.333 0 21.167 -4.16699 29.5 -12.5s12.5 -18.166 12.5 -29.499c0 -7.33301 -1.83301 -14.166 -5.5 -20.499s-8.66699 -11.5 -15 -15.5s-13.333 -6 -21 -6s-14.667 2 -21 6s-11.333 9.16699 -15 15.5s-5.5 13.166 -5.5 20.499
c0 11.333 4 21.166 12 29.499s17.667 12.5 29 12.5zM410.001 659c11.333 0 21 -4.16699 29 -12.5s12 -18.166 12 -29.499s-4 -21.166 -12 -29.499s-17.667 -12.5 -29 -12.5c-12 0 -22 4.16699 -30 12.5s-12 18.166 -12 29.499s4 21.166 12 29.499s18 12.5 30 12.5z
M466.001 500h64.002v-500h-62v61c-51.333 -46.667 -111 -69.667 -179 -69c-72 1.33301 -124.667 24 -158 68s-50 110.333 -50 199v241h63v-241c0 -72 12.167 -124.833 36.5 -158.5s66.166 -50.167 125.499 -49.5c57.333 0 110.666 21.333 159.999 64v385z" />
    <glyph glyph-name="Udieresisacute" unicode="&#x1d7;" 
d="M403 985h84l-93 -125h-59zM275 750c-7.33301 0 -14.167 1.83301 -20.5 5.5s-11.333 8.66699 -15 15s-5.5 13.166 -5.5 20.499c0 12 4 22 12 30s17.667 12 29 12c12 0 22 -4.16699 30 -12.5s12 -18.166 12 -29.499s-4 -21 -12 -29s-18 -12 -30 -12zM484.999 750
c-12 0 -22 3.99902 -30 11.999s-12 17.833 -12 29.5s4 21.5 12 29.5s18 12 30 12c11.333 0 21 -4.16699 29 -12.5s12 -18.166 12 -29.499s-4 -21 -12 -29s-17.667 -12 -29 -12zM590.999 264.999l-0.00195312 435h65v-442c0 -73.333 -26.333 -136.166 -79 -188.499
s-118 -78.5 -196 -78.5s-143.333 26.167 -196 78.5s-79 115.166 -79 188.499v442h66v-435c0 -29.333 5.5 -57 16.5 -83s25.833 -48.333 44.5 -67s40.834 -33.5 66.501 -44.5s52.834 -16.5 81.501 -16.5c58 0 107.5 20.5 148.5 61.5s61.5 90.833 61.5 149.5z" />
    <glyph glyph-name="udieresisacute" unicode="&#x1d8;" horiz-adv-x="617" 
d="M336 816h83l-92 -126h-59zM200 659c11.333 0 21.168 -4 29.501 -12s12.5 -17.667 12.5 -29c0 -8 -2 -15.167 -6 -21.5s-9.16699 -11.333 -15.5 -15s-13.166 -5.5 -20.499 -5.5s-14.333 1.83301 -21 5.5s-11.834 8.66699 -15.501 15s-5.5 13.5 -5.5 21.5
c0 11.333 4.16699 21 12.5 29s18.166 12 29.499 12zM409.002 659c11.333 0 21.166 -4 29.499 -12s12.5 -17.833 12.5 -29.5s-4.16699 -21.5 -12.5 -29.5s-18.166 -12 -29.499 -12s-21 4 -29 12s-12 17.833 -12 29.5s4 21.5 12 29.5s17.667 12 29 12zM466.002 500h64.002
v-500h-62v61c-51.333 -46.667 -111 -69.667 -179 -69c-72 1.33301 -124.667 24 -158 68s-50 110.333 -50 199v241h63v-241c0 -72 12.167 -124.833 36.5 -158.5s66.166 -50.167 125.499 -49.5c57.333 0 110.666 21.333 159.999 64v385z" />
    <glyph glyph-name="Udieresiscaron" unicode="&#x1d9;" 
d="M465 991h71l-123 -134h-64l-123 134h71l84 -95zM276 750c-8 0 -15.166 1.83398 -21.499 5.50098s-11.333 8.66699 -15 15s-5.5 13.166 -5.5 20.499c0 11.333 4.16699 21.166 12.5 29.499s18.166 12.5 29.499 12.5s21.166 -4.16699 29.499 -12.5
s12.5 -18.166 12.5 -29.499s-4.16699 -21 -12.5 -29s-18.166 -12 -29.499 -12zM485.001 750.001c-11.333 0 -21 4 -29 12s-12 17.667 -12 29s4 21.166 12 29.499s17.667 12.5 29 12.5s21.166 -4.16699 29.499 -12.5s12.5 -18.166 12.5 -29.499s-4.16699 -21 -12.5 -29
s-18.166 -12 -29.499 -12zM591.001 265.001v435h65v-442c0 -73.333 -26.333 -136.166 -79 -188.499s-118 -78.5 -196 -78.5s-143.333 26.167 -196 78.5s-79 115.166 -79 188.499v442h66v-435c0 -58.667 20.333 -108.5 61 -149.5s90 -61.5 148 -61.5s107.5 20.5 148.5 61.5
s61.5 90.833 61.5 149.5z" />
    <glyph glyph-name="udieresiscaron" unicode="&#x1da;" horiz-adv-x="617" 
d="M388 825h71l-123 -135h-64l-123 135h71l84 -95zM199 659c11.333 0 21 -4 29 -12s12 -17.667 12 -29c0 -8 -1.83301 -15.167 -5.5 -21.5s-8.66699 -11.333 -15 -15s-13.333 -5.5 -21 -5.5s-14.667 1.83301 -21 5.5s-11.333 8.66699 -15 15s-5.5 13.5 -5.5 21.5
c0 11.333 4 21 12 29s18 12 30 12zM408 659c11.333 0 21.166 -4 29.499 -12s12.5 -17.833 12.5 -29.5s-4.16699 -21.5 -12.5 -29.5s-18.166 -12 -29.499 -12s-21.166 4 -29.499 12s-12.5 17.833 -12.5 29.5s4.16699 21.5 12.5 29.5s18.166 12 29.499 12zM466 500h64.002
v-500h-62v61c-51.333 -46.667 -111 -69.667 -179 -69c-72 1.33301 -124.667 24 -158 68s-50 110.333 -50 199v241h63v-241c0 -72 12.167 -124.833 36.5 -158.5s66.166 -50.167 125.499 -49.5c57.333 0 110.666 21.333 159.999 64v385z" />
    <glyph glyph-name="Udieresisgrave" unicode="&#x1db;" 
d="M274 985h84l68 -125h-59zM275 750c-7.33301 0 -14.167 1.83301 -20.5 5.5s-11.333 8.66699 -15 15s-5.5 13.166 -5.5 20.499c0 12 4 22 12 30s17.667 12 29 12c12 0 22 -4.16699 30 -12.5s12 -18.166 12 -29.499s-4 -21 -12 -29s-18 -12 -30 -12zM484.999 750
c-12 0 -22 3.99902 -30 11.999s-12 17.833 -12 29.5s4 21.5 12 29.5s18 12 30 12c11.333 0 21 -4.16699 29 -12.5s12 -18.166 12 -29.499s-4 -21 -12 -29s-17.667 -12 -29 -12zM590.999 264.999l-0.00195312 435h65v-442c0 -73.333 -26.333 -136.166 -79 -188.499
s-118 -78.5 -196 -78.5s-143.333 26.167 -196 78.5s-79 115.166 -79 188.499v442h66v-435c0 -29.333 5.5 -57 16.5 -83s25.833 -48.333 44.5 -67s40.834 -33.5 66.501 -44.5s52.834 -16.5 81.501 -16.5c58 0 107.5 20.5 148.5 61.5s61.5 90.833 61.5 149.5z" />
    <glyph glyph-name="udieresisgrave" unicode="&#x1dc;" horiz-adv-x="617" 
d="M196 816h83l68 -126h-59zM200 659c12 0 22 -4.16699 30 -12.5s12 -18.166 12 -29.499c0 -7.33301 -1.83301 -14.166 -5.5 -20.499s-8.66699 -11.5 -15 -15.5s-13.333 -6 -21 -6s-14.667 2 -21 6s-11.333 9.16699 -15 15.5s-5.5 13.166 -5.5 20.499
c0 11.333 4 21.166 12 29.499s17.667 12.5 29 12.5zM410 659c11.333 0 21 -4.16699 29 -12.5s12 -18.166 12 -29.499s-4 -21.166 -12 -29.499s-17.667 -12.5 -29 -12.5c-12 0 -22 4.16699 -30 12.5s-12 18.166 -12 29.499s4 21.166 12 29.499s18 12.5 30 12.5zM466 500
h64.002v-500h-62v61c-51.333 -46.667 -111 -69.667 -179 -69c-72 1.33301 -124.667 24 -158 68s-50 110.333 -50 199v241h63v-241c0 -72 12.167 -124.833 36.5 -158.5s66.166 -50.167 125.499 -49.5c57.333 0 110.666 21.333 159.999 64v385z" />
    <glyph glyph-name="Scommaaccent" unicode="&#x218;" horiz-adv-x="523" 
d="M287 324l-44.999 16.001c-58 15.333 -103.333 38.333 -136 69s-49 69.334 -49 116.001c0 39.333 9.83301 73.333 29.5 102s44.334 49.5 74.001 62.5s62.167 19.833 97.5 20.5c21.333 0 41.833 -2.16699 61.5 -6.5s38.667 -11 57 -20s34.166 -19.833 47.499 -32.5l-40 -44
c-32.667 29.333 -74 43 -124 41c-38 -1.33301 -70.167 -12.5 -96.5 -33.5s-39.5 -50.167 -39.5 -87.5c0 -32.667 11.5 -59.834 34.5 -81.501s58.167 -39.167 105.5 -52.5l49 -15c106 -34.667 159 -100 159 -196c0 -59.333 -22 -106 -66 -140s-96.667 -51 -158 -51
c-36.667 0 -72.334 7 -107.001 21s-64 34.333 -88 61l40 45c40 -44 91.333 -65.667 154 -65c44 0 82 11.667 114 35s48 54.666 48 93.999c0 24.667 -4.5 46 -13.5 64s-22.333 33 -40 45s-40.5 23 -68.5 33zM251.001 -83.999c11.333 0 21.1699 -4.16699 29.5029 -12.5
s12.5 -18.166 12.5 -29.499c-0.666992 -19.333 -7.33398 -37.333 -20.001 -54s-33.334 -25 -62.001 -25c15.333 11.333 26.666 24 33.999 38c-6.66699 1.33301 -12.667 3.83301 -18 7.5s-9.66602 8.5 -12.999 14.5s-5 12.333 -5 19c0 11.333 4.16699 21.166 12.5 29.499
s18.166 12.5 29.499 12.5z" />
    <glyph glyph-name="scommaaccent" unicode="&#x219;" horiz-adv-x="412" 
d="M50 60l39.999 39.9971c38 -31.333 75.667 -47.333 113 -48c17.333 0 33.333 3.5 48 10.5s26.334 16.333 35.001 28s13 24.834 13 39.501c1.33301 17.333 -1.16699 32.333 -7.5 45s-17.166 24 -32.499 34s-35.666 19 -60.999 27c-30.667 8 -55.834 18 -75.501 30
s-34.834 27.167 -45.501 45.5s-16 40.166 -16 65.499c0 38.667 14.167 70.167 42.5 94.5s62.166 36.833 101.499 37.5c45.333 0 89 -15 131 -45l-42 -41c-26.667 16 -54.334 24 -83.001 24c-22.667 0 -42.5 -5.83301 -59.5 -17.5s-25.833 -27.5 -26.5 -47.5
c-1.33301 -21.333 4.33398 -39.166 17.001 -53.499s35.334 -26.166 68.001 -35.499c54.667 -15.333 93.667 -35.666 117 -60.999s35 -59 35 -101c0 -41.333 -15 -75 -45 -101s-68 -39 -114 -39c-53.333 0 -104.333 23 -153 69zM204.999 -81.0029
c11.333 0 21.001 -4.16797 29.001 -12.501s12 -18.166 12 -29.499c0 -19.333 -6.33301 -37.333 -19 -54s-33.667 -25 -63 -25c15.333 11.333 26.666 24 33.999 38c-10 2 -18.333 6.83301 -25 14.5s-10 16.5 -10 26.5c0 12 4 22 12 30s18 12 30 12z" />
    <glyph glyph-name="uni021A" unicode="&#x21a;" horiz-adv-x="578" 
d="M43 700h490v-60h-213v-640h-64v639h-213v61zM289 -84c11.333 0 21.1699 -4.16699 29.5029 -12.5s12.5 -18.166 12.5 -29.499c-0.666992 -19.333 -7.33398 -37.333 -20.001 -54s-33.334 -25 -62.001 -25c15.333 11.333 26.333 24 33 38c-10 2 -18.333 6.83301 -25 14.5
s-10 16.5 -10 26.5c0 11.333 4.16699 21.166 12.5 29.499s18.166 12.5 29.499 12.5z" />
    <glyph glyph-name="uni021B" unicode="&#x21b;" horiz-adv-x="364" 
d="M314 441h-129.001v-331c0 -19.333 7.33301 -34.5 22 -45.5s32.334 -16.5 53.001 -16.5h54v-56h-54c-40 0 -73 10.667 -99 32s-39 50 -39 86v331h-72v59h72v127h63v-127h129v-59zM213.999 -107c5.33301 0.666992 9.83496 -0.500977 13.502 -3.50098
s5.5 -7.16699 5.5 -12.5c-0.666992 -12 -4.33398 -21.667 -11.001 -29c0.666992 0.666992 2 1 4 1c-2.66699 -1.33301 -5 -2.33301 -7 -3c-7.33301 -6 -16.666 -9 -27.999 -9c3.33301 2 6.66602 3.66699 9.99902 5c-8.66699 0 -17.667 3 -27 9
c3.33301 10.667 8.66602 19.834 15.999 27.501s15.333 12.5 24 14.5z" />
    <glyph glyph-name="circumflex" unicode="&#x2c6;" horiz-adv-x="410" 
d="M173 700h64l123 -134h-71l-84 95l-84 -95h-71z" />
    <glyph glyph-name="caron" unicode="&#x2c7;" horiz-adv-x="410" 
d="M289 700h71l-123 -134h-64l-123 134h71l84 -95z" />
    <glyph glyph-name="breve" unicode="&#x2d8;" horiz-adv-x="367" 
d="M50 700h63c4 -16 12.5 -29.167 25.5 -39.5s28 -15.5 45 -15.5s32.167 5.16699 45.5 15.5s22 23.5 26 39.5h63c-4.66699 -33.333 -19.667 -61.166 -45 -83.499s-55 -33.5 -89 -33.5c-34.667 0 -64.667 11.167 -90 33.5s-40 50.166 -44 83.499z" />
    <glyph glyph-name="dotaccent" unicode="&#x2d9;" horiz-adv-x="183" 
d="M92 623c-8 0 -15.166 1.83398 -21.499 5.50098s-11.333 8.66699 -15 15s-5.5 13.166 -5.5 20.499c0 11.333 4.16699 21.166 12.5 29.499s18.166 12.5 29.499 12.5s21 -4.16699 29 -12.5s12 -18.166 12 -29.499s-4 -21 -12 -29s-17.667 -12 -29 -12z" />
    <glyph glyph-name="ring" unicode="&#x2da;" horiz-adv-x="304" 
d="M151 700c14 0 27.333 -2.66699 40 -8s23.5 -12.5 32.5 -21.5s16.333 -19.833 22 -32.5s8.5 -25.667 8.5 -39c0 -28.667 -10 -52.834 -30 -72.501s-44.167 -29.5 -72.5 -29.5s-52.333 9.83301 -72 29.5s-29.5 43.834 -29.5 72.501c0 27.333 9.83301 51 29.5 71
s43.5 30 71.5 30zM152 650c-14.667 0 -26.832 -5 -36.499 -15s-14.5 -22 -14.5 -36c0 -7.33301 1.33301 -14.166 4 -20.499s6.16699 -11.833 10.5 -16.5s9.66602 -8.33398 15.999 -11.001s13.166 -4 20.499 -4c9.33301 0 17.833 2.33301 25.5 7s13.834 11 18.501 19
s7 16.667 7 26c0 14 -5 26 -15 36s-22 15 -36 15z" />
    <glyph glyph-name="ogonek" unicode="&#x2db;" horiz-adv-x="266" 
d="M126 0l32 0.000976562c-40 -23.333 -59.333 -50 -58 -80c0.666992 -30.667 16 -46 46 -46h20v-37h-26c-15.333 0 -28.833 2.83301 -40.5 8.5s-21 14 -28 25s-10.5 24.167 -10.5 39.5c0 22 5.66699 39.667 17 53s27.333 25.666 48 36.999z" />
    <glyph glyph-name="tilde" unicode="&#x2dc;" horiz-adv-x="373" 
d="M286 655l35.999 36.001v-62l-23 -22c-24 -24.667 -55.667 -25.334 -95 -2.00098l-45 27c-29.333 17.333 -52 18 -68 2l-42 -42v61l29 29c22.667 22.667 53.334 22.667 92.001 0l45 -26c30 -18 53.667 -18.333 71 -1z" />
    <glyph glyph-name="hungarumlaut" unicode="&#x2dd;" horiz-adv-x="386" 
d="M118 700h84l-93 -125h-59zM252 700h84l-93 -125h-59z" />
    <glyph glyph-name="commaaccentcomb" unicode="&#x326;" horiz-adv-x="0" 
d="M93 -71c11.333 0 21.001 -3.99902 29.001 -11.999s12 -17.667 12 -29c0 -19.333 -6.33301 -37.5 -19 -54.5s-33.334 -25.5 -62.001 -25.5c14.667 11.333 25.667 24.333 33 39c-6.66699 0.666992 -12.667 3 -18 7s-9.5 8.83301 -12.5 14.5s-4.5 12.167 -4.5 19.5
s1.83301 14.166 5.5 20.499s8.66699 11.333 15 15s13.5 5.5 21.5 5.5z" />
    <glyph glyph-name="Delta" unicode="&#x394;" horiz-adv-x="787" 
d="M358 700h69l315 -700h-699zM649 63l-256 570l-257 -570h513z" />
    <glyph glyph-name="Omega" unicode="&#x3a9;" horiz-adv-x="895" 
d="M68 56l192.999 -0.000976562c-52.667 28 -95 68.167 -127 120.5s-48 110.166 -48 173.499c0 65.333 16.167 125.5 48.5 180.5s76 98.5 131 130.5s115.167 48 180.5 48s125.5 -16 180.5 -48s98.667 -75.5 131 -130.5s48.5 -115.167 48.5 -180.5
c0 -62.667 -15.833 -120.334 -47.5 -173.001s-73.834 -93 -126.501 -121h193v-62h-332v64c72.667 11.333 132.334 44.333 179.001 99s70 119 70 193c0 82 -28.833 151.833 -86.5 209.5s-127.5 86.5 -209.5 86.5c-54 0 -103.667 -13.167 -149 -39.5
s-81.166 -62.166 -107.499 -107.499s-39.5 -95 -39.5 -149c0 -73.333 23.833 -137.666 71.5 -192.999s107.167 -88.666 178.5 -99.999v-64h-332v63z" />
    <glyph glyph-name="mu" unicode="&#x3bc;" horiz-adv-x="619" 
d="M471 500h63.001v-500h-61v61c-51.333 -46.667 -111.333 -69.667 -180 -69c-72 0.666992 -121 26 -147 76v-231h-61v663h63v-241c0 -72 12.333 -124.833 37 -158.5s66.667 -50.167 126 -49.5c57.333 0 110.666 21.333 159.999 64v385z" />
    <glyph glyph-name="pi" unicode="&#x3c0;" horiz-adv-x="682" 
d="M494 439l22 -235c4 -45.333 17 -82 39 -110s48.667 -42 80 -42v-57c-53.333 0 -95.5 18.167 -126.5 54.5s-49.833 87.833 -56.5 154.5l-22 235h-190v-439h-63v439h-107v61h528v-61h-104z" />
    <glyph glyph-name="afii10017" unicode="&#x410;" 
d="M340 700h72l297 -700h-68l-94 218h-342l-94 -218h-68zM521 282l-145 342l-145 -342h290z" />
    <glyph glyph-name="afii10018" unicode="&#x411;" horiz-adv-x="617" 
d="M170 385h186c63.333 0 113.833 -18 151.5 -54s56.5 -83 56.5 -141c0 -58.667 -19.167 -106 -57.5 -142s-88.5 -54 -150.5 -54h-250v706h412v-62h-348v-253zM171 57l184 -0.000976562c40.667 0 75 12.333 103 37s42 56.334 42 95.001c0 39.333 -13.5 71.333 -40.5 96
s-61.833 37 -104.5 37h-184v-265z" />
    <glyph glyph-name="afii10019" unicode="&#x412;" horiz-adv-x="645" 
d="M106 705h250.999c57.333 0 105.333 -17.167 144 -51.5s58 -78.833 58 -133.5c0 -35.333 -8.5 -66.333 -25.5 -93s-40.5 -47.334 -70.5 -62.001c38.667 -13.333 69.834 -35.666 93.501 -66.999s35.5 -68 35.5 -110c0 -56 -19.833 -102.333 -59.5 -139
s-88.167 -55 -145.5 -55h-281v711zM170.999 390l173 -1c42.667 0 78 11.333 106 34s42 53.667 42 93s-14 70.333 -42 93s-63.333 34 -106 34h-173v-253zM171.999 57l204 -0.000976562c42.667 0 78.167 12.333 106.5 37s42.5 57.334 42.5 98.001c0 26 -6.66699 49.5 -20 70.5
s-31.333 37 -54 48s-47.667 16.5 -75 16.5h-204v-270z" />
    <glyph glyph-name="afii10020" unicode="&#x413;" horiz-adv-x="574" 
d="M530 700v-62h-359v-638h-65v700h424z" />
    <glyph glyph-name="afii10021" unicode="&#x414;" horiz-adv-x="817" 
d="M267 700h400v-639h66v-185h-61v124h-568v-124h-61v185h36c42 3.33301 76.333 24.333 103 63s43 92 49 160zM603 61v577h-275l-32 -354c-9.33301 -106 -40 -180.333 -92 -223h399z" />
    <glyph glyph-name="afii10022" unicode="&#x415;" horiz-adv-x="578" 
d="M106 700h416v-60h-352v-246h348v-60h-348v-274h355v-60h-419v700z" />
    <glyph glyph-name="afii10024" unicode="&#x416;" horiz-adv-x="1002" 
d="M681 431l277 -431h-76l-244 381l-106 -120v-261h-64v261l-105 120l-244 -381h-76l276 431l-235 269h76l308 -353v353h64v-353l308 353h77z" />
    <glyph glyph-name="afii10025" unicode="&#x417;" horiz-adv-x="556" 
d="M95 584l-44.998 44.9971c66 52.667 141 79 225 79c59.333 0 108.833 -16 148.5 -48s59.5 -75.667 59.5 -131c0 -40.667 -11.833 -75.834 -35.5 -105.501s-54.5 -50.5 -92.5 -62.5c40.667 -12 73.667 -34.333 99 -67s38 -72 38 -118c0 -58 -20.5 -103.5 -61.5 -136.5
s-93.167 -49.5 -156.5 -49.5c-84 0 -159 26.333 -225 79l45 45c49.333 -40.667 107.333 -61 174 -61c47.333 -0.666992 85.666 11 114.999 35s44 57 44 99c0 42.667 -15.167 76.834 -45.5 102.501s-72.833 38.834 -127.5 39.501h-80v59h70
c55.333 0.666992 98.166 12.334 128.499 35.001s45.5 54.334 45.5 95.001c0 40 -14.167 71.167 -42.5 93.5s-63.833 33.5 -106.5 33.5c-67.333 0 -125.333 -20.333 -174 -61z" />
    <glyph glyph-name="afii10026" unicode="&#x418;" horiz-adv-x="746" 
d="M568 700h72v-700h-64v598l-398 -598h-72v700h64v-597z" />
    <glyph glyph-name="afii10027" unicode="&#x419;" horiz-adv-x="746" 
d="M239 900h62.998c4 -16 12.5 -29.167 25.5 -39.5s28 -15.5 45 -15.5s32.167 5.16699 45.5 15.5s22 23.5 26 39.5h62c-4 -33.333 -18.667 -61.166 -44 -83.499s-55.166 -33.5 -89.499 -33.5s-64.166 11.167 -89.499 33.5s-40 50.166 -44 83.499zM169.998 103l398 597h72
v-700h-64v598l-398 -598h-72v700h64v-597z" />
    <glyph glyph-name="afii10028" unicode="&#x41a;" horiz-adv-x="639" 
d="M478 700h76l-235 -269l276 -431h-76l-243 381l-106 -120v-261h-64v700h64v-353z" />
    <glyph glyph-name="afii10029" unicode="&#x41b;" horiz-adv-x="748" 
d="M252 700l392.997 0.000976562v-700h-64v638h-275l-32 -354c-7.33301 -90 -32.166 -161.167 -74.499 -213.5s-94.166 -78.5 -155.499 -78.5v63c21.333 0 41.5 5.16699 60.5 15.5s35.667 25.166 50 44.499s26.333 43.333 36 72s15.834 61 18.501 97l37 416h6z" />
    <glyph glyph-name="afii10030" unicode="&#x41c;" horiz-adv-x="904" 
d="M726 700h72v-700h-64v611l-282 -353l-282 354v-612h-64v700h72l274 -348z" />
    <glyph glyph-name="afii10031" unicode="&#x41d;" horiz-adv-x="726" 
d="M556 700h64v-700h-64v335h-386v-335h-64v700h64v-303h386v303z" />
    <glyph glyph-name="afii10032" unicode="&#x41e;" horiz-adv-x="880" 
d="M440.5 709c65 0 125.167 -16 180.5 -48s99 -75.5 131 -130.5s48 -115.167 48 -180.5s-16 -125.5 -48 -180.5s-75.667 -98.5 -131 -130.5s-115.5 -48 -180.5 -48s-125.167 16 -180.5 48s-99.166 75.5 -131.499 130.5s-48.5 115.167 -48.5 180.5s16.167 125.5 48.5 180.5
s76.166 98.5 131.499 130.5s115.5 48 180.5 48zM440 646c-82 0 -151.667 -28.833 -209 -86.5s-86 -127.5 -86 -209.5s28.667 -151.833 86 -209.5s127 -86.5 209 -86.5s151.833 28.833 209.5 86.5s86.5 127.5 86.5 209.5s-28.833 151.833 -86.5 209.5
s-127.5 86.5 -209.5 86.5z" />
    <glyph glyph-name="afii10033" unicode="&#x41f;" horiz-adv-x="726" 
d="M106 700h514v-700h-64v638h-386v-638h-64v700z" />
    <glyph glyph-name="afii10034" unicode="&#x420;" horiz-adv-x="623" 
d="M106 705l230.999 0.000976562c65.333 0.666992 117.833 -17.833 157.5 -55.5s59.5 -87.834 59.5 -150.501c0 -62 -19.667 -112 -59 -150s-91.666 -57 -156.999 -57h-169v-292h-63v705zM169.999 355.001l164.001 0.000976562c46.667 0 84.334 13.167 113.001 39.5
s43 61.166 43 104.499c0 28.667 -6.83301 54 -20.5 76s-32.334 38.667 -56.001 50s-49.834 17 -78.501 17h-165v-287z" />
    <glyph glyph-name="afii10035" unicode="&#x421;" horiz-adv-x="730" 
d="M631 113l45.9971 -43.001c-66.667 -52.667 -141.667 -79 -225 -79c-64.667 0 -124.667 16 -180 48s-99.166 75.5 -131.499 130.5s-48.5 115.167 -48.5 180.5s16.167 125.5 48.5 180.5s76.166 98.5 131.499 130.5s115.333 48 180 48c84.667 0 159.667 -26.333 225 -79
l-45 -44c-52.667 40 -112.667 60 -180 60c-53.333 0 -102.666 -13.167 -147.999 -39.5s-81.166 -62.166 -107.499 -107.499s-39.5 -95 -39.5 -149c0 -82 28.667 -152 86 -210s127 -87 209 -87c66.667 0 126.334 20 179.001 60z" />
    <glyph glyph-name="afii10036" unicode="&#x422;" horiz-adv-x="578" 
d="M533 700v-62h-213v-638h-64v637h-213v63h490z" />
    <glyph glyph-name="afii10037" unicode="&#x423;" horiz-adv-x="670" 
d="M555 700h70l-259 -407v-293h-64v293l-259 407h71l220 -346z" />
    <glyph glyph-name="afii10038" unicode="&#x424;" horiz-adv-x="886" 
d="M410 700h64.002v-77h134c62.667 0 113 -17.5 151 -52.5s57 -81.833 57 -140.5c0 -57.333 -18.833 -103.666 -56.5 -138.999s-87.834 -53 -150.501 -53h-135v-238h-64v238h-135c-62.667 0 -112.834 17.667 -150.501 53s-56.5 81.666 -56.5 138.999
c0 58.667 19 105.5 57 140.5s88.333 52.5 151 52.5h134v77zM410.002 301v259.001h-133c-41.333 0 -75.833 -12 -103.5 -36s-41.5 -55.333 -41.5 -94s13.5 -69.834 40.5 -93.501s61.833 -35.5 104.5 -35.5h133zM474.002 301.001l133 -0.00195312
c42.667 0 77.5 11.833 104.5 35.5s40.5 54.834 40.5 93.501c0 26 -6.5 48.833 -19.5 68.5s-30.333 34.834 -52 45.501s-46.167 16 -73.5 16h-133v-259z" />
    <glyph glyph-name="afii10039" unicode="&#x425;" horiz-adv-x="649" 
d="M283 366l-220 334h72l190 -289l187 289h72l-219 -336l239 -364h-72l-208 318l-210 -318h-71z" />
    <glyph glyph-name="afii10040" unicode="&#x426;" horiz-adv-x="811" 
d="M620 62h111v-180h-62v118h-563v700h64v-637h386v637h64v-638z" />
    <glyph glyph-name="afii10041" unicode="&#x427;" horiz-adv-x="681" 
d="M511 700h64v-700h-62v252c-21.333 -17.333 -50 -31.666 -86 -42.999s-72.333 -17 -109 -17c-94.667 0 -162.5 22.833 -203.5 68.5s-61.5 111.167 -61.5 196.5v243h65v-236c0 -71.333 15 -124 45 -158s83.667 -51 161 -51c20 0 41.833 2.5 65.5 7.5s46.5 12.167 68.5 21.5
s39.667 19.666 53 30.999v385z" />
    <glyph glyph-name="afii10042" unicode="&#x428;" horiz-adv-x="1118" 
d="M948 700h64v-700h-906v700h64v-637h357v637h64v-637h357v637z" />
    <glyph glyph-name="afii10043" unicode="&#x429;" horiz-adv-x="1202" 
d="M948 700h64v-637h111v-181h-63v118h-954v700h64v-637h357v637h64v-637h357v637z" />
    <glyph glyph-name="afii10044" unicode="&#x42a;" horiz-adv-x="751" 
d="M276 385l186 0.000976562c42 0 78.667 -8.5 110 -25.5s55.5 -40.333 72.5 -70s25.5 -63.5 25.5 -101.5c0 -58.667 -19.167 -106.334 -57.5 -143.001s-88.5 -54.667 -150.5 -54h-250v646h-114v63h178v-315zM276 54.001l185 -0.999023c40.667 0 75 12.667 103 38
s42 57.333 42 96c0 39.333 -13.667 71.666 -41 96.999s-62 38 -104 38h-185v-268z" />
    <glyph glyph-name="afii10045" unicode="&#x42b;" horiz-adv-x="853" 
d="M170 385l186 -0.00195312c42 0 78.667 -8.5 110 -25.5s55.5 -40.333 72.5 -70s25.5 -63.5 25.5 -101.5c0 -59.333 -19.167 -107.166 -57.5 -143.499s-88.5 -54.166 -150.5 -53.499h-249v709h63v-315zM683 699.998h64v-700h-64v700zM170 52.998l185 0.000976562
c40.667 0 75 12.667 103 38s42 57.333 42 96c0 39.333 -13.667 71.666 -41 96.999s-62 38 -104 38h-185v-269z" />
    <glyph glyph-name="afii10046" unicode="&#x42c;" horiz-adv-x="643" 
d="M170 385l186 -0.00195312c42 0 78.667 -8.5 110 -25.5s55.5 -40.333 72.5 -70s25.5 -63.5 25.5 -101.5c0 -59.333 -19.167 -107.166 -57.5 -143.499s-88.5 -54.166 -150.5 -53.499h-249v709h63v-315zM170 52.998l185 0.000976562c40.667 0 75 12.667 103 38
s42 57.333 42 96c0 39.333 -13.667 71.666 -41 96.999s-62 38 -104 38h-185v-269z" />
    <glyph glyph-name="afii10047" unicode="&#x42d;" horiz-adv-x="730" 
d="M98 586l-45.001 44c65.333 52.667 140.333 79 225 79c64.667 0 124.667 -16 180 -48s99.166 -75.5 131.499 -130.5s48.5 -115.167 48.5 -180.5s-16.167 -125.5 -48.5 -180.5s-76.166 -98.5 -131.499 -130.5s-115.333 -48 -180 -48c-83.333 0 -158 26 -224 78l53 39
c50.667 -36 107.667 -54 171 -54c76.667 0 142.834 25.5 198.501 76.5s86.834 114.167 93.501 189.5h-346v63h345c-6.66699 74 -37.834 136.333 -93.501 187s-121.5 76 -197.5 76c-67.333 0 -127.333 -20 -180 -60z" />
    <glyph glyph-name="afii10048" unicode="&#x42e;" horiz-adv-x="1130" 
d="M170 382h149c5.33301 60.667 24.5 116 57.5 166s76 89.333 129 118s110.167 43 171.5 43c65.333 0 125.5 -16 180.5 -48s98.667 -75.5 131 -130.5s48.5 -115.167 48.5 -180.5s-16.167 -125.5 -48.5 -180.5s-76 -98.5 -131 -130.5s-115.167 -48 -180.5 -48
c-94 0 -175.333 31.5 -244 94.5s-106.667 140.833 -114 233.5h-149v-319h-64v700h64v-318zM677 54c54 0 103.667 13.167 149 39.5s81.166 62.166 107.499 107.499s39.5 95 39.5 149c0 82 -28.833 151.833 -86.5 209.5s-127.5 86.5 -209.5 86.5
c-54 0 -103.667 -13.167 -149 -39.5s-81.166 -62.166 -107.499 -107.499s-39.5 -95 -39.5 -149c0 -82 28.833 -151.833 86.5 -209.5s127.5 -86.5 209.5 -86.5z" />
    <glyph glyph-name="afii10049" unicode="&#x42f;" horiz-adv-x="664" 
d="M80 0l205 317c-34.667 4.66699 -65.167 15.5 -91.5 32.5s-46.833 39.167 -61.5 66.5s-22 58.666 -22 93.999c0 58.667 19.333 105.834 58 141.501s90 53.5 154 53.5h236v-705h-63v314h-138l-202 -314h-75zM494 643h-172.002c-27.333 0 -52.166 -5.5 -74.499 -16.5
s-40.166 -26.667 -53.499 -47s-20 -43.5 -20 -69.5c0 -40 13.833 -72.333 41.5 -97s63.5 -37 107.5 -37h171v267z" />
    <glyph glyph-name="afii10065" unicode="&#x430;" horiz-adv-x="553" 
d="M110 408l-25 48.999c45.333 34.667 108.666 52 189.999 52c68 0 120.5 -19.167 157.5 -57.5s55.5 -91.166 55.5 -158.499v-293h-56v53c-17.333 -18 -42.666 -32.667 -75.999 -44s-66.333 -17 -99 -17c-40 0 -74.5 6.66699 -103.5 20s-51.5 33.333 -67.5 60s-24 59 -24 97
c0 52 18 93.5 54 124.5s87 46.5 153 46.5c57.333 -0.666992 109.333 -13.667 156 -39c-1.33301 48.667 -15.333 85.667 -42 111s-64.667 38 -114 38c-68.667 0 -121.667 -14 -159 -42zM425 106.999l0.000976562 137.999c-40.667 24 -92.667 36 -156 36
c-48 0 -84 -10.167 -108 -30.5s-36 -48.166 -36 -83.499c0 -36.667 11.5 -64.667 34.5 -84s57.5 -29 103.5 -29c25.333 0 53.666 4.83301 84.999 14.5s57 22.5 77 38.5z" />
    <glyph glyph-name="afii10066" unicode="&#x431;" horiz-adv-x="662" 
d="M510 771l63.998 -0.00390625c0 -38.667 -13.667 -69 -41 -91s-63.333 -33 -108 -33h-97c-52.667 0.666992 -97 -16.166 -133 -50.499s-54.667 -79.833 -56 -136.5v-64c16.667 32.667 42.5 59.5 77.5 80.5s73.167 31.5 114.5 31.5c71.333 0 132.333 -25.167 183 -75.5
s76 -111.166 76 -182.499s-25.333 -132.166 -76 -182.499s-111.667 -75.5 -183 -75.5s-132.166 25 -182.499 75s-75.833 110.667 -76.5 182v175c0 36 4.5 69.333 13.5 100s21.167 56.834 36.5 78.501s33.5 40.167 54.5 55.5s43.667 26.666 68 33.999s49.833 11 76.5 11h104
c11.333 0 22.333 1.66699 33 5s19.834 7.83301 27.501 13.5s13.667 12.834 18 21.501s6.5 18 6.5 28zM330.998 445.996c-54 0 -100 -19.333 -138 -58s-57 -85 -57 -139s19 -100 57 -138s84.167 -57 138.5 -57s100.5 19 138.5 57s57 84.333 57 139s-19 101 -57 139
s-84.333 57 -139 57z" />
    <glyph glyph-name="afii10067" unicode="&#x432;" horiz-adv-x="513" 
d="M86 508l176.002 -0.000976562c44.667 0 81.167 -12.667 109.5 -38s42.5 -58.333 42.5 -99c0 -24.667 -5.5 -46.667 -16.5 -66s-26.5 -34.666 -46.5 -45.999c25.333 -10 45.666 -26.667 60.999 -50s23 -49.333 23 -78c0 -41.333 -14.833 -74.833 -44.5 -100.5
s-67.834 -38.5 -114.501 -38.5h-190v516zM149.002 286.999h108.999c28 0 50.5 7 67.5 21s25.5 34 25.5 60c0 24.667 -8.66699 44 -26 58s-39.666 21 -66.999 21h-109v-160zM149.001 52.999l122 0.000976562c30.667 0 55 7.66699 73 23s27 35.666 27 60.999
c0 26 -9.5 47 -28.5 63s-42.5 24 -70.5 24h-123v-171z" />
    <glyph glyph-name="afii10068" unicode="&#x433;" horiz-adv-x="458" 
d="M399 500v-61h-250v-439h-63v500h313z" />
    <glyph glyph-name="afii10069" unicode="&#x434;" horiz-adv-x="629" 
d="M206 500h315.001v-438h49v-150h-62v89h-399v-89h-63v150h27c29.333 2.66699 53.666 16.5 72.999 41.5s31 58.167 35 99.5zM458.001 62v377h-192l-22 -236c-6.66699 -64.667 -25 -111.667 -55 -141h269z" />
    <glyph glyph-name="afii10070" unicode="&#x435;" horiz-adv-x="630" 
d="M480 98l44.001 -44c-44 -41.333 -105.333 -62 -184 -62c-35.333 0 -69 6.16699 -101 18.5s-60.333 29.5 -85 51.5s-44.5 49.333 -59.5 82s-22.5 68 -22.5 106c0 71.333 25.167 132.166 75.5 182.499s111.166 75.5 182.499 75.5c78 0 140.333 -27.333 187 -82
c35.333 -41.333 50.333 -82.666 45 -123.999c-4.66699 -38.667 -26.667 -61.667 -66 -69c-7.33301 -1.33301 -15.333 -2 -24 -2h-329c0 -51.333 19 -94 57 -128s83.667 -51 137 -51c62 0 109.667 15.333 143 46zM144.001 289l303.998 -0.000976562
c21.333 0 35.333 7.33301 42 22s5.33398 31.334 -3.99902 50.001c-10 23.333 -28.667 44 -56 62s-60.666 27 -99.999 27c-33.333 0 -64 -7.5 -92 -22.5s-50.167 -34.667 -66.5 -59s-25.5 -50.833 -27.5 -79.5z" />
    <glyph glyph-name="afii10072" unicode="&#x436;" horiz-adv-x="872" 
d="M593 311l233 -311h-75l-201 265l-83 -82v-183h-62v183l-83 82l-202 -265h-74l233 311l-187 189h84l229 -227v227h62v-227l229 227h83z" />
    <glyph glyph-name="afii10073" unicode="&#x437;" horiz-adv-x="421" 
d="M96 409l-50 38.001c48 40.667 105.333 61 172 61c43.333 0 79.166 -11.5 107.499 -34.5s42.5 -54.5 42.5 -94.5c0 -28.667 -8.5 -53.667 -25.5 -75s-39.5 -36.333 -67.5 -45c30 -8.66699 54 -24.834 72 -48.501s27 -51.834 27 -84.501c0 -42 -14.667 -75 -44 -99
s-67 -36 -113 -36c-66.667 0 -123.667 19 -171 57l43 44c30.667 -26 69.667 -39 117 -39c31.333 0 56.5 7.33301 75.5 22s28.5 35.334 28.5 62.001c0 26 -9.16699 47.333 -27.5 64s-42.833 25 -73.5 25h-64v58h58c32.667 0 58 7.33301 76 22s27 35 27 61
c0 25.333 -9.33301 45 -28 59s-42 21 -70 21c-43.333 0 -80.666 -12.667 -111.999 -38z" />
    <glyph glyph-name="afii10074" unicode="&#x438;" horiz-adv-x="572" 
d="M419 500h67v-500h-63v402l-270 -402h-67v500h63v-402z" />
    <glyph glyph-name="afii10075" unicode="&#x439;" horiz-adv-x="572" 
d="M165 700h36.001c2.66699 -12.667 8 -24.167 16 -34.5s18 -18.5 30 -24.5s24.667 -9 38 -9c20.667 0 39 6.33301 55 19s26 29 30 49h35c-2 -19.333 -8.66699 -37 -20 -53s-25.833 -28.5 -43.5 -37.5s-36.5 -13.5 -56.5 -13.5c-30.667 0 -57.334 9.83301 -80.001 29.5
s-36 44.5 -40 74.5zM149.001 98l270 402h67v-500h-63v402l-270 -402h-67v500h63v-402z" />
    <glyph glyph-name="afii10076" unicode="&#x43a;" horiz-adv-x="556" 
d="M436 0l-202 265l-82 -82v-183h-63v500h63v-227l229 227h83l-186 -189l232 -311h-74z" />
    <glyph glyph-name="afii10077" unicode="&#x43b;" horiz-adv-x="590" 
d="M200 500h304v-500h-63v439h-190l-22 -235c-6.66699 -66.667 -25.5 -118.167 -56.5 -154.5s-73.167 -54.5 -126.5 -54.5v58c31.333 -0.666992 58 13 80 41s35.333 64.667 40 110l26 296h8z" />
    <glyph glyph-name="afii10078" unicode="&#x43c;" horiz-adv-x="701" 
d="M547 500h69v-500h-64v410l-201 -253l-202 253v-410h-63v500h69l196 -249z" />
    <glyph glyph-name="afii10079" unicode="&#x43d;" horiz-adv-x="565" 
d="M417 500h62v-500h-62v231h-268v-231h-63v499h63v-207h268v208z" />
    <glyph glyph-name="afii10080" unicode="&#x43e;" horiz-adv-x="662" 
d="M331 508c34.667 0 68 -6.83203 100 -20.499s59.667 -32 83 -55s41.833 -50.5 55.5 -82.5s20.5 -65.333 20.5 -100c0 -71.333 -25.333 -132.166 -76 -182.499s-111.667 -75.5 -183 -75.5s-132.333 25.167 -183 75.5s-76 111.166 -76 182.499s25.333 132.166 76 182.499
s111.667 75.5 183 75.5zM331 446.001c-54.667 0 -101 -19 -139 -57s-57 -84.333 -57 -139s19 -101 57 -139s84.333 -57 139 -57s101 19 139 57s57 84.333 57 139s-19 101 -57 139s-84.333 57 -139 57z" />
    <glyph glyph-name="afii10081" unicode="&#x43f;" horiz-adv-x="569" 
d="M86 500h397v-500h-63v438h-271v-438h-63v500z" />
    <glyph glyph-name="afii10082" unicode="&#x440;" horiz-adv-x="592" 
d="M143 500l-0.00292969 -42c18.667 15.333 41 27.5 67 36.5s52.667 13.5 80 13.5c152.667 0 229.334 -84.667 230.001 -254c0.666992 -87.333 -19.166 -152.833 -59.499 -196.5s-97.166 -65.5 -170.499 -65.5c-51.333 0.666992 -98.333 15.667 -141 45v-215h-63v678h57z
M148.997 402l-0.00195312 -308c10.667 -8.66699 23.334 -16.167 38.001 -22.5s30.334 -11.166 47.001 -14.499s33.334 -5 50.001 -5c115.333 0 173 67.333 173 202c0 65.333 -13.5 114.333 -40.5 147s-71.5 49 -133.5 49c-24.667 0 -49.334 -4.33301 -74.001 -13
s-44.667 -20.334 -60 -35.001z" />
    <glyph glyph-name="afii10083" unicode="&#x441;" horiz-adv-x="559" 
d="M447 92l44 -44c-46.667 -36.667 -100 -55 -160 -55c-71.333 0 -132.333 25 -183 75s-76 111 -76 183c0 71.333 25.333 132 76 182s111.667 75 183 75c60.667 0 114.334 -18.667 161.001 -56l-44 -44c-34 26 -73 39 -117 39c-54.667 0 -101 -19 -139 -57
s-57 -84.333 -57 -139c0 -22 3.16699 -43 9.5 -63s15.666 -38 27.999 -54s26.5 -30 42.5 -42s34 -21.333 54 -28s40.667 -10 62 -10c44 0 82.667 12.667 116 38z" />
    <glyph glyph-name="afii10084" unicode="&#x442;" horiz-adv-x="441" 
d="M395 500v-61h-143v-439h-62v438h-144v62h349z" />
    <glyph glyph-name="afii10085" unicode="&#x443;" horiz-adv-x="579" 
d="M444 500l62.999 0.00195312v-455c-2 -76 -20.667 -131.167 -56 -165.5s-91.666 -50.833 -168.999 -49.5c-72 0.666992 -134 15.667 -186 45l8 50c51.333 -26.667 110.666 -39.667 177.999 -39c56.667 0 97.167 10.5 121.5 31.5s38.5 58.5 42.5 112.5v23
c-46.667 -34.667 -99 -52.334 -157 -53.001c-75.333 -0.666992 -131.166 21 -167.499 65s-54.5 111.333 -54.5 202v233h63v-233c0 -48 5.16699 -86.833 15.5 -116.5s28 -52.334 53 -68.001s58.167 -23.5 99.5 -23.5c49.333 0 98 16 146 48v393z" />
    <glyph glyph-name="afii10086" unicode="&#x444;" horiz-adv-x="950" 
d="M507 700v-237c40 30 87 45 141 45c152.667 0 229.334 -84.667 230.001 -254c0.666992 -58.667 -8.33301 -107.667 -27 -147s-45 -68.333 -79 -87s-75.667 -28 -125 -28c-50.667 0.666992 -97.334 15.667 -140.001 45v-215h-63v215
c-43.333 -29.333 -90.333 -44.333 -141 -45c-74 0 -131 21.833 -171 65.5s-60 109.167 -60 196.5c1.33301 169.333 78.333 254 231 254c53.333 0 100.333 -15 141 -45v237h63zM444 94l-0.000976562 306.999c-15.333 15.333 -35.333 27.333 -60 36s-49.667 13 -75 13
c-61.333 0 -105.5 -16.333 -132.5 -49s-40.5 -81.667 -40.5 -147c0 -134.667 57.667 -202 173 -202c24.667 0 49.334 3.83301 74.001 11.5s45 17.834 61 30.501zM506.999 400.999l-0.00195312 -306.999c16 -12.667 36.333 -22.834 61 -30.501s49.334 -11.5 74.001 -11.5
c115.333 0 173 67.333 173 202c0 65.333 -13.5 114.333 -40.5 147s-71.5 49 -133.5 49c-16 0 -32.167 -1.83301 -48.5 -5.5s-32.166 -9.16699 -47.499 -16.5s-28 -16.333 -38 -27z" />
    <glyph glyph-name="afii10087" unicode="&#x445;" horiz-adv-x="503" 
d="M457 500l-165 -254l165 -246h-74l-134 201l-128 -201h-75l167 252l-167 248h75l135 -203l127 203h74z" />
    <glyph glyph-name="afii10088" unicode="&#x446;" horiz-adv-x="627" 
d="M488 61h78v-150h-61v89h-419v500h63v-439h276v439h63v-439z" />
    <glyph glyph-name="afii10089" unicode="&#x447;" horiz-adv-x="521" 
d="M371 500l62.999 -0.00292969v-500h-63v177c-15.333 -11.333 -35.666 -20.666 -60.999 -27.999s-49 -11 -71 -11c-65.333 0.666992 -111.666 16.334 -138.999 47.001s-41 78.667 -41 144v171h63v-159c0 -47.333 8.5 -82.166 25.5 -104.499s49.5 -34.5 97.5 -36.5
c20 -2 42.667 0.833008 68 8.5s44.666 17.167 57.999 28.5v263z" />
    <glyph glyph-name="afii10090" unicode="&#x448;" horiz-adv-x="861" 
d="M775 500v-500h-689v500h63v-438h250v438h63v-438h250v438h63z" />
    <glyph glyph-name="afii10091" unicode="&#x449;" horiz-adv-x="914" 
d="M775 61h78v-150h-61v89h-706v500h63v-439h250v439h63v-439h250v439h63v-439z" />
    <glyph glyph-name="afii10092" unicode="&#x44a;" horiz-adv-x="584" 
d="M232 280l131.999 0.000976562c44.667 0 80.334 -13.333 107.001 -40s40 -60.834 40 -102.501s-13.5 -75.667 -40.5 -102s-62.5 -39.5 -106.5 -39.5h-194v443h-100v61h162v-220zM232.999 57.001h129c24.667 0 45.167 7.5 61.5 22.5s24.5 34.5 24.5 58.5
s-8.16699 43.5 -24.5 58.5s-36.833 22.5 -61.5 22.5h-129v-162z" />
    <glyph glyph-name="afii10093" unicode="&#x44b;" horiz-adv-x="674" 
d="M149 280l131.999 0.000976562c44.667 0 80.334 -13.333 107.001 -40s40 -60.834 40 -102.501s-13.5 -75.667 -40.5 -102s-62.5 -39.5 -106.5 -39.5h-195v504h63v-220zM527.999 0.000976562v500h61v-500h-61zM149.999 57.001h128.998c24.667 0 45.167 7.5 61.5 22.5
s24.5 34.5 24.5 58.5c0 8 -1 15.5 -3 22.5s-4.66699 13.5 -8 19.5s-7.66602 11.5 -12.999 16.5s-11.166 9.16699 -17.499 12.5s-13.333 5.83301 -21 7.5s-15.5 2.5 -23.5 2.5h-129v-162z" />
    <glyph glyph-name="afii10094" unicode="&#x44c;" horiz-adv-x="500" 
d="M149 280l131.999 0.000976562c44.667 0 80.334 -13.333 107.001 -40s40 -60.834 40 -102.501s-13.5 -75.667 -40.5 -102s-62.5 -39.5 -106.5 -39.5h-195v504h63v-220zM149.999 57.001h128.998c24.667 0 45.167 7.5 61.5 22.5s24.5 34.5 24.5 58.5c0 8 -1 15.5 -3 22.5
s-4.66699 13.5 -8 19.5s-7.66602 11.5 -12.999 16.5s-11.166 9.16699 -17.499 12.5s-13.333 5.83301 -21 7.5s-15.5 2.5 -23.5 2.5h-129v-162z" />
    <glyph glyph-name="afii10095" unicode="&#x44d;" horiz-adv-x="559" 
d="M112 408l-45.001 44.002c47.333 37.333 101.333 56 162 56c46.667 0 89.834 -11.333 129.501 -34s71 -53.834 94 -93.501s34.5 -82.834 34.5 -129.501c0 -72 -25.167 -133 -75.5 -183s-111.166 -75 -182.499 -75c-60 0 -113.667 18.333 -161 55l45 45
c34 -26 72.667 -39 116 -39c48.667 0 91 15.833 127 47.5s57 71.167 63 118.5h-208v61h208c-4 30.667 -14.833 58.667 -32.5 84s-40.334 45.333 -68.001 60s-57.5 22 -89.5 22c-44 0 -83 -13 -117 -39z" />
    <glyph glyph-name="afii10096" unicode="&#x44e;" horiz-adv-x="846" 
d="M149 281l110.999 -0.00195312c7.33301 64 35.333 117.833 84 161.5s106 65.5 172 65.5c34.667 0 68 -6.83301 100 -20.5s59.5 -32 82.5 -55s41.333 -50.5 55 -82.5s20.5 -65.333 20.5 -100c0 -71.333 -25.167 -132.166 -75.5 -182.499s-111.166 -75.5 -182.499 -75.5
c-66 0 -123.333 21.833 -172 65.5s-76.667 97.834 -84 162.501h-111v-220h-63v500h63v-219zM515.499 53.998c54.333 0 100.5 19 138.5 57s57 84.333 57 139c0 36 -8.66699 69 -26 99s-41 53.667 -71 71s-62.667 26 -98 26c-54.667 0 -101 -19 -139 -57s-57 -84.333 -57 -139
s19 -101 57 -139s84.167 -57 138.5 -57z" />
    <glyph glyph-name="afii10097" unicode="&#x44f;" horiz-adv-x="532" 
d="M259 500h187v-501h-62v221h-90l-145 -220h-71l148 224c-34.667 7.33301 -62.5 23 -83.5 47s-31.5 53.667 -31.5 89c0 41.333 13.5 75 40.5 101s62.833 39 107.5 39zM384 281v158h-125c-16 0 -30.333 -3.16699 -43 -9.5s-22.834 -15.5 -30.501 -27.5s-11.5 -26 -11.5 -42
s3.83301 -30.167 11.5 -42.5s17.834 -21.5 30.501 -27.5s27 -9 43 -9h125z" />
    <glyph glyph-name="Wgrave" unicode="&#x1e80;" horiz-adv-x="1067" 
d="M428 900h84l68 -125h-59zM955 700h67l-233 -700h-72l-184 599l-186 -599h-70l-234 700h67l203 -598l183 598h74l183 -598z" />
    <glyph glyph-name="wgrave" unicode="&#x1e81;" horiz-adv-x="830" 
d="M332 700h84l68 -125h-59zM784 500l-168 -500h-65l-136 409l-136 -409h-64l-169 500h61l140 -408l136 408h65l136 -408l139 408h61z" />
    <glyph glyph-name="Wacute" unicode="&#x1e82;" horiz-adv-x="1067" 
d="M542 900h83l-92 -125h-59zM955 700h67l-233 -700h-72l-184 599l-186 -599h-70l-234 700h67l203 -598l183 598h74l183 -598z" />
    <glyph glyph-name="wacute" unicode="&#x1e83;" horiz-adv-x="830" 
d="M784 500l-168 -500h-65l-136 409l-136 -409h-64l-169 500h61l140 -408l136 408h65l136 -408l139 408h61zM446 700h84l-93 -125h-59z" />
    <glyph glyph-name="Wdieresis" unicode="&#x1e84;" horiz-adv-x="1067" 
d="M423 823c-11.333 0 -21.166 4 -29.499 12s-12.5 17.667 -12.5 29s4.16699 21.166 12.5 29.499s18.166 12.5 29.499 12.5s21.166 -4.16699 29.499 -12.5s12.5 -18.166 12.5 -29.499s-4.16699 -21 -12.5 -29s-18.166 -12 -29.499 -12zM632 823c-11.333 0 -21 4 -29 12
s-12 17.667 -12 29s4 21.166 12 29.499s17.667 12.5 29 12.5c12 0 22 -4.16699 30 -12.5s12 -18.166 12 -29.499s-4 -21 -12 -29s-18 -12 -30 -12zM955 700h67l-233 -700h-72l-184 599l-186 -599h-70l-234 700h67l203 -598l183 598h74l183 -598z" />
    <glyph glyph-name="wdieresis" unicode="&#x1e85;" horiz-adv-x="830" 
d="M312 623c-12 0 -22 4 -30 12s-12 17.667 -12 29s4 21.166 12 29.499s18 12.5 30 12.5c11.333 0 21 -4.16699 29 -12.5s12 -18.166 12 -29.499s-4 -21 -12 -29s-17.667 -12 -29 -12zM521 623c-11.333 0 -21.166 4 -29.499 12s-12.5 17.667 -12.5 29
s4.16699 21.166 12.5 29.499s18.166 12.5 29.499 12.5s21.166 -4.16699 29.499 -12.5s12.5 -18.166 12.5 -29.499s-4.16699 -21 -12.5 -29s-18.166 -12 -29.499 -12zM784 500l-168 -500h-65l-136 409l-136 -409h-64l-169 500h61l140 -408l136 408h65l136 -408l139 408h61z
" />
    <glyph glyph-name="Ygrave" unicode="&#x1ef2;" horiz-adv-x="670" 
d="M330 775l-92 125h83l68 -125h-59zM555 700h70l-259 -407v-293h-64v293l-259 407h71l220 -346z" />
    <glyph glyph-name="ygrave" unicode="&#x1ef3;" horiz-adv-x="579" 
d="M199 700h84l68 -125h-59zM444 500l63.001 0.000976562v-455c-2 -76 -20.667 -131.167 -56 -165.5s-91.666 -50.833 -168.999 -49.5c-72 0.666992 -134 15.667 -186 45l8 50c51.333 -26.667 110.666 -39.667 177.999 -39c56.667 0 97.167 10.5 121.5 31.5
s38.5 58.5 42.5 112.5v23c-20.667 -15.333 -44.834 -28 -72.501 -38s-55.834 -15 -84.501 -15c-75.333 -0.666992 -131.166 21 -167.499 65s-54.5 111.333 -54.5 202v233h63v-233c0 -48 5.16699 -86.833 15.5 -116.5s28 -52.334 53 -68.001s58.167 -23.5 99.5 -23.5
c49.333 0 98 16 146 48v393z" />
    <glyph glyph-name="endash" unicode="&#x2013;" horiz-adv-x="500" 
d="M50 299h400v-61h-400v61z" />
    <glyph glyph-name="emdash" unicode="&#x2014;" horiz-adv-x="654" 
d="M50 299h554v-61h-554v61z" />
    <glyph glyph-name="quoteleft" unicode="&#x2018;" horiz-adv-x="184" 
d="M132 709c-16 -12 -27.334 -25 -34.001 -39c10 -2 18.333 -6.66699 25 -14s10 -16.333 10 -27c0 -7.33301 -1.83301 -14.166 -5.5 -20.499s-8.66699 -11.5 -15 -15.5s-13.166 -6 -20.499 -6c-12 0 -22 4.16699 -30 12.5s-12 18.166 -12 29.499
c0 19.333 6.33301 37.5 19 54.5s33.667 25.5 63 25.5z" />
    <glyph glyph-name="quoteright" unicode="&#x2019;" horiz-adv-x="184" 
d="M93 709c11.333 0 21.001 -3.99902 29.001 -11.999s12 -17.667 12 -29c0 -6 -0.833008 -12.833 -2.5 -20.5s-5 -16.334 -10 -26.001s-13.5 -17.667 -25.5 -24s-26.333 -9.5 -43 -9.5c15.333 11.333 26.333 24.333 33 39c-6.66699 0.666992 -12.667 3 -18 7
s-9.5 8.83301 -12.5 14.5s-4.5 12.167 -4.5 19.5c0 11.333 4.16699 21 12.5 29s18.166 12 29.499 12z" />
    <glyph glyph-name="quotesinglbase" unicode="&#x201a;" horiz-adv-x="184" 
d="M93 72c11.333 0 21 -4 29 -12s12 -17.667 12 -29c0 -8 -1.16699 -16.167 -3.5 -24.5s-6.33301 -16.833 -12 -25.5s-14.167 -15.834 -25.5 -21.501s-24.666 -8.5 -39.999 -8.5c15.333 12 26.333 25 33 39c-10 1.33301 -18.333 5.83301 -25 13.5s-10 16.834 -10 27.501
c0 11.333 4.16699 21 12.5 29s18.166 12 29.499 12z" />
    <glyph glyph-name="quotedblleft" unicode="&#x201c;" horiz-adv-x="305" 
d="M132 709c-16 -12 -27.334 -24.666 -34.001 -37.999c10 -2 18.333 -6.83301 25 -14.5s10 -16.834 10 -27.501c0 -11.333 -4 -21 -12 -29s-17.667 -12 -29 -12s-21.166 4 -29.499 12s-12.5 17.667 -12.5 29c0 6.66699 1 13.667 3 21s5.5 15.833 10.5 25.5
s13.333 17.667 25 24s26.167 9.5 43.5 9.5zM252.999 709.001c-16 -12 -27.002 -24.666 -33.002 -37.999c10 -2 18.333 -6.83301 25 -14.5s10 -16.834 10 -27.501c0 -11.333 -4.16699 -21 -12.5 -29s-18.166 -12 -29.499 -12s-21.166 4 -29.499 12s-12.5 17.667 -12.5 29
c0 6.66699 1 13.667 3 21s5.5 15.833 10.5 25.5s13.5 17.667 25.5 24s26.333 9.5 43 9.5z" />
    <glyph glyph-name="quotedblright" unicode="&#x201d;" horiz-adv-x="309" 
d="M93 709c11.333 0 21.001 -3.99902 29.001 -11.999s12 -17.667 12 -29c0 -6 -0.833008 -12.833 -2.5 -20.5s-5 -16.334 -10 -26.001s-13.5 -17.667 -25.5 -24s-26.333 -9.5 -43 -9.5c16 12 27 25 33 39c-6.66699 0.666992 -12.667 3 -18 7s-9.5 8.83301 -12.5 14.5
s-4.5 12.167 -4.5 19.5c0 11.333 4.16699 21 12.5 29s18.166 12 29.499 12zM214.001 709.001c11.333 0 21.167 -4 29.5 -12s12.5 -17.667 12.5 -29c0 -6 -1 -12.833 -3 -20.5s-5.5 -16.334 -10.5 -26.001s-13.5 -17.667 -25.5 -24s-26.333 -9.5 -43 -9.5
c16 12 27.333 25 34 39c-10 1.33301 -18.333 5.83301 -25 13.5s-10 16.834 -10 27.501c0 11.333 4 21 12 29s17.667 12 29 12z" />
    <glyph glyph-name="quotedblbase" unicode="&#x201e;" horiz-adv-x="305" 
d="M93 75c11.333 0 21.001 -4.16797 29.001 -12.501s12 -18.166 12 -29.499c0 -6 -0.833008 -12.667 -2.5 -20s-5 -15.833 -10 -25.5s-13.5 -17.667 -25.5 -24s-26.333 -9.5 -43 -9.5c15.333 11.333 26.333 24 33 38c-10 1.33301 -18.333 5.83301 -25 13.5
s-10 16.834 -10 27.501c0 11.333 4.16699 21.166 12.5 29.499s18.166 12.5 29.499 12.5zM214.001 73.999c11.333 0 21.168 -4.00098 29.501 -12.001s12.5 -17.667 12.5 -29c0 -6 -1 -12.667 -3 -20s-5.5 -15.833 -10.5 -25.5s-13.5 -17.667 -25.5 -24s-26.333 -9.5 -43 -9.5
c15.333 11.333 26.666 24 33.999 38c-10 1.33301 -18.333 5.83301 -25 13.5s-10 16.834 -10 27.501c0 11.333 4 21 12 29s17.667 12 29 12z" />
    <glyph glyph-name="dagger" unicode="&#x2020;" horiz-adv-x="373" 
d="M156 686h62v-187h105v-61h-105v-494h-62v494h-106v61h106v187z" />
    <glyph glyph-name="daggerdbl" unicode="&#x2021;" horiz-adv-x="373" 
d="M156 686h62v-187h105v-61h-105v-246h105v-61h-105v-187h-62v187h-106v61h106v246h-106v61h106v187z" />
    <glyph glyph-name="bullet" unicode="&#x2022;" horiz-adv-x="361" 
d="M180.5 304c3 0 4.5 -1 4.5 -3c0 -2.66699 -1.5 -4 -4.5 -4s-4.5 1.33301 -4.5 4c0 2 1.5 3 4.5 3z" />
    <glyph glyph-name="ellipsis" unicode="&#x2026;" horiz-adv-x="573" 
d="M92 73c11.333 0 21.001 -4 29.001 -12s12 -18 12 -30c0 -11.333 -4 -21 -12 -29s-17.833 -12 -29.5 -12s-21.5 4 -29.5 12s-12 17.667 -12 29c0 12 4.16699 22 12.5 30s18.166 12 29.499 12zM286.501 73c11.667 0 21.5 -4 29.5 -12s12 -18 12 -30
c0 -11.333 -4 -21 -12 -29s-17.833 -12 -29.5 -12s-21.5 4 -29.5 12s-12 17.667 -12 29c0 12 4 22 12 30s17.833 12 29.5 12zM481.501 73c11.667 0 21.5 -4 29.5 -12s12 -18 12 -30c0 -11.333 -4 -21 -12 -29s-17.833 -12 -29.5 -12s-21.5 4 -29.5 12s-12 17.667 -12 29
c0 12 4 22 12 30s17.833 12 29.5 12z" />
    <glyph glyph-name="perthousand" unicode="&#x2030;" horiz-adv-x="1039" 
d="M193 709c37.333 0 69.333 -13.332 96 -39.999s40 -58.834 40 -96.501s-13.333 -69.667 -40 -96s-58.667 -39.5 -96 -39.5c-24.667 0 -47.5 6 -68.5 18s-37.5 28.5 -49.5 49.5s-18 43.833 -18 68.5c0 37.333 13.333 69.333 40 96s58.667 40 96 40zM529 700.001h58
l-406 -700h-59zM193 657.001c-16 0 -30.501 -3.50098 -43.501 -10.501s-23 -17 -30 -30s-10.5 -27.5 -10.5 -43.5c0 -24.667 7.83301 -45 23.5 -61s35.834 -24 60.501 -24s45 8 61 24s24 36.333 24 61s-8 44.834 -24 60.501s-36.333 23.5 -61 23.5zM519.499 264
c37.667 0 69.834 -13.333 96.501 -40s40 -58.834 40 -96.501s-13.333 -69.834 -40 -96.501s-58.834 -40 -96.501 -40s-69.834 13.333 -96.501 40s-40 58.834 -40 96.501s13.333 69.834 40 96.501s58.834 40 96.501 40zM824.499 263c37.667 0 69.667 -13.333 96 -40
s39.5 -58.667 39.5 -96s-13.167 -69.333 -39.5 -96s-58.333 -40 -96 -40s-69.834 13.333 -96.501 40s-40 58.667 -40 96s13.333 69.333 40 96s58.834 40 96.501 40zM519.999 212c-24.667 0 -45 -8 -61 -24s-24 -36.333 -24 -61s8 -45 24 -61s36.333 -24 61 -24
s44.834 8 60.501 24s23.5 36.333 23.5 61s-7.83301 45 -23.5 61s-35.834 24 -60.501 24zM823.999 211c-24.667 0 -44.834 -7.83203 -60.501 -23.499s-23.5 -35.834 -23.5 -60.501c0 -16 3.5 -30.5 10.5 -43.5s17 -23.167 30 -30.5s27.5 -11 43.5 -11c24.667 0 45 8 61 24
s24 36.333 24 61c0 12 -2.16699 23.333 -6.5 34s-10.166 19.667 -17.499 27s-16.333 13 -27 17s-22 6 -34 6z" />
    <glyph glyph-name="guilsinglleft" unicode="&#x2039;" horiz-adv-x="267" 
d="M50 308l167 120v-68l-120 -80l120 -80v-68l-167 119v57z" />
    <glyph glyph-name="guilsinglright" unicode="&#x203a;" horiz-adv-x="267" 
d="M50 360v68l167 -120v-57l-167 -119v68l120 80z" />
    <glyph glyph-name="fraction" unicode="&#x2044;" horiz-adv-x="480" 
d="M50 0l315 700h65l-315 -700h-65z" />
    <glyph glyph-name="Euro" unicode="&#x20ac;" horiz-adv-x="857" 
d="M598 309h-311.001c10 -72.667 42.667 -133.5 98 -182.5s120.333 -73.5 195 -73.5c66 0 125.667 20 179 60l44 -45c-65.333 -51.333 -139.666 -77 -222.999 -77c-92 0 -172.167 30.5 -240.5 91.5s-107.5 136.5 -117.5 226.5h-155l34 33h-32l46 45h107
c9.33301 90.667 48.166 167 116.499 229s148.833 93 241.5 93c84.667 0 159.334 -26.333 224.001 -79l-44 -44c-52.667 40 -112.667 60 -180 60c-77.333 0 -143.5 -23.833 -198.5 -71.5s-86.833 -110.167 -95.5 -187.5h389l-44 -45h-1z" />
    <glyph glyph-name="trademark" unicode="&#x2122;" horiz-adv-x="891" 
d="M773 700h68v-406h-63v322l-164 -205l-163 205v-322h-64v406h69l158 -201zM50 700h299v-61h-118v-345h-63v344h-118v62z" />
    <glyph glyph-name="partialdiff" unicode="&#x2202;" horiz-adv-x="600" 
 />
    <glyph glyph-name="emptyset" unicode="&#x2205;" horiz-adv-x="654" 
d="M585 465l-55.999 -56c38 -46 57 -99 57 -159c0 -71.333 -25.333 -132.166 -76 -182.499s-111.667 -75.5 -183 -75.5c-59.333 0 -112.333 18.667 -159 56l-57 -57l-43 43l57 57c-37.333 46 -56 99 -56 159c0 71.333 25.167 132.166 75.5 182.499
s111.166 75.5 182.499 75.5c59.333 0 112.333 -18.667 159 -56l56 56zM172.001 138l268.001 268c-32.667 26.667 -70.334 40 -113.001 40c-54 0 -100 -19 -138 -57s-57 -84.333 -57 -139c0 -42.667 13.333 -80 40 -112zM483.002 363l-269.001 -269.001
c32.667 -26.667 70.334 -40 113.001 -40c54.667 0 101 19 139 57s57 84.333 57 139c0 42.667 -13.333 80.334 -40 113.001z" />
    <glyph glyph-name="product" unicode="&#x220f;" horiz-adv-x="600" 
 />
    <glyph glyph-name="summation" unicode="&#x2211;" horiz-adv-x="600" 
 />
    <glyph glyph-name="minus" unicode="&#x2212;" horiz-adv-x="539" 
d="M50 339h439v-61h-439v61z" />
    <glyph glyph-name="radical" unicode="&#x221a;" horiz-adv-x="600" 
 />
    <glyph glyph-name="infinity" unicode="&#x221e;" horiz-adv-x="600" 
 />
    <glyph glyph-name="integral" unicode="&#x222b;" horiz-adv-x="600" 
 />
    <glyph glyph-name="approxequal" unicode="&#x2248;" horiz-adv-x="467" 
d="M417 414v-69l-35 -35c-30.667 -30.667 -72.334 -30.334 -125.001 0.999023l-61 35c-41.333 24 -73.666 24.333 -96.999 1l-49 -49v70l35 35c30.667 30.667 72.334 30.334 125.001 -0.999023l61 -36c41.333 -23.333 73.666 -23.333 96.999 0zM417 265l0.000976562 -70.001
l-35 -35c-30.667 -30 -72.334 -29.667 -125.001 1l-61 36c-40.667 24 -73 24 -97 0l-49 -48v69l35 35c30.667 30.667 72.334 30.334 125.001 -0.999023l61 -35c41.333 -24 73.666 -24.333 96.999 -1z" />
    <glyph glyph-name="notequal" unicode="&#x2260;" horiz-adv-x="539" 
d="M488 365h-157l-46 -101h203v-61h-230l-92 -203h-65l92 203h-144v61h171l46 101h-217v61h244l89 197h65l-89 -197h130v-61z" />
    <glyph glyph-name="lessequal" unicode="&#x2264;" horiz-adv-x="450" 
d="M62 368l326 196v-74l-244 -144l244 -143v-74l-326 197v42zM62 0v61h326v-61h-326z" />
    <glyph glyph-name="greaterequal" unicode="&#x2265;" horiz-adv-x="422" 
d="M50 490v74l326 -196v-42l-326 -197v74l244 143zM50 61h326v-61h-326v61z" />
    <glyph glyph-name="lozenge" unicode="&#x25ca;" horiz-adv-x="600" 
 />
    <glyph glyph-name=".null" horiz-adv-x="0" 
 />
    <glyph glyph-name="nonmarkingreturn" horiz-adv-x="333" 
 />
    <glyph glyph-name="ordfeminine.001" horiz-adv-x="376" 
d="M71 640l-18.002 34.001c29.333 23.333 70 35 122 35c43.333 0 76.833 -12.333 100.5 -37s35.834 -58.334 36.501 -101.001v-185h-42v29c-12 -10 -28 -18.167 -48 -24.5s-39.333 -9.5 -58 -9.5c-38.667 0 -69.167 9.83301 -91.5 29.5s-33.5 47.5 -33.5 83.5
c0 33.333 11.667 60 35 80s56 29.667 98 29c34 0 65.333 -7.33301 94 -22c-3.33301 57.333 -35 86 -95 86c-43.333 0 -76.666 -9 -99.999 -27zM265.998 456.001l-0.000976562 83.999c-24.667 14.667 -56 22 -94 22c-29.333 0 -51.333 -6.16699 -66 -18.5
s-22 -29.166 -22 -50.499c0 -46 28 -69 84 -69c15.333 0 32.333 3 51 9s34.334 13.667 47.001 23z" />
    <glyph glyph-name="ordmasculine.001" horiz-adv-x="441" 
d="M205 709c45.333 0 84.167 -15.999 116.5 -47.999s48.5 -70.667 48.5 -116c0 -30 -7.5 -57.5 -22.5 -82.5s-35 -44.833 -60 -59.5s-52.5 -22 -82.5 -22c-45.333 0 -84.166 16 -116.499 48s-48.5 70.667 -48.5 116c0 29.333 7.5 56.666 22.5 81.999s35.167 45.333 60.5 60
s52.666 22 81.999 22zM205.001 665.001c-22 0 -42.1689 -5.33203 -60.502 -15.999s-32.666 -25.167 -42.999 -43.5s-15.5 -38.5 -15.5 -60.5c0 -33.333 11.5 -61.666 34.5 -84.999s51.167 -35 84.5 -35c13.333 0 26 2 38 6s23 9.66699 33 17s18.667 15.833 26 25.5
s13 20.667 17 33s6 25.166 6 38.499c0 33.333 -11.667 61.666 -35 84.999s-51.666 35 -84.999 35z" />
    <glyph glyph-name="two.dnom" horiz-adv-x="323" 
d="M89 264l-32.999 32.998c31.333 28 67 42.667 107 44c30 1.33301 55.333 -6.33398 76 -23.001c24 -17.333 35 -41.666 33 -72.999c0 -12 -2.16699 -22.333 -6.5 -31s-11 -16.5 -20 -23.5s-17.333 -12.333 -25 -16s-18.834 -8.5 -33.501 -14.5
c-25.333 -10.667 -44.333 -23.167 -57 -37.5s-19 -37.5 -19 -69.5h160v-53h-218v34c0 22 2.16699 41.833 6.5 59.5s9.66602 31.834 15.999 42.501s14.666 20.334 24.999 29.001s19.333 15 27 19s17.5 8.33301 29.5 13l10 3.5c4.66699 1.66699 8 3 10 4
s4.83301 2.16699 8.5 3.5s6.5 2.66602 8.5 3.99902l7 4.5c2.66699 1.66699 4.66699 3.5 6 5.5l4.5 6.5c1.66699 2.33301 2.83398 5 3.50098 8s1.33398 6.16699 2.00098 9.5c0.666992 14.667 -5 26.334 -17 35.001c-10 7.33301 -23 11 -39 11
c-27.333 -0.666992 -51.333 -10 -72 -28z" />
    <glyph glyph-name="four.dnom" horiz-adv-x="348" 
d="M273 131h25v-50h-25v-81h-56v81h-167v53l160 204h63v-207zM217 131v148l-114 -148h114z" />
    <glyph glyph-name="one.numr" horiz-adv-x="156" 
d="M50 362v338h56v-338h-56z" />
    <glyph glyph-name="three.numr" horiz-adv-x="317" 
d="M82 635l-33.002 33.002c33.333 25.333 70 38 110 38c30 0 54.833 -7.83301 74.5 -23.5s29.5 -37.167 29.5 -64.5c0 -13.333 -2.66699 -25.5 -8 -36.5s-12.666 -20.167 -21.999 -27.5s-20.333 -12.333 -33 -15c20 -3.33301 36.167 -12.833 48.5 -28.5
s18.5 -35.5 18.5 -59.5c0 -27.333 -9.83301 -49 -29.5 -65s-46.167 -24.667 -79.5 -26c-39.333 0 -75.666 13 -108.999 39l33 33c21.333 -15.333 44.333 -23 69 -23c16.667 -0.666992 30.667 3.5 42 12.5s17 21.5 17 37.5c0 16.667 -5.5 29.667 -16.5 39
s-26.5 14.666 -46.5 15.999h-32v48h31c18.667 0 33.167 4.66699 43.5 14s15.5 21.666 15.5 36.999c0 14.667 -5 26.167 -15 34.5s-22.667 12.5 -38 12.5c-24.667 0 -48 -8.33301 -70 -25z" />
    </font>
</defs>
</svg>
